STARTFONT 2.1
FONT -HP-Sammul-Bold-R-Normal--64-640-75-75-C-640-KSC5601.1987-1
SIZE 64 75 75
FONTBOUNDINGBOX 64 64 0 -6

STARTPROPERTIES 23
FONTNAME_REGISTRY ""
FOUNDRY "HP"
FAMILY_NAME "Sammul"
WEIGHT_NAME "Bold"
SLANT "R"
SETWIDTH_NAME "Normal"
ADD_STYLE_NAME ""
PIXEL_SIZE 64
POINT_SIZE 640
RESOLUTION_X 75
RESOLUTION_Y 75
SPACING "C"
AVERAGE_WIDTH 640
CHARSET_REGISTRY "KSC5601.1987"
CHARSET_ENCODING "1"
COPYRIGHT "Copyright (c) 1994 Samsung Hewlett-Packard Company."
WEIGHT 19463
X_HEIGHT 58
QUAD_WIDTH 64
_HP_ASXVERSION "@(#) ASX 3.00 $Revision: 13.9 $ samB64h"
DEFAULT_CHAR 41702
FONT_DESCENT 6
FONT_ASCENT 58
ENDPROPERTIES

CHARS 3337

STARTCHAR kor_A1A1
ENCODING 41377
SWIDTH 1024 0
DWIDTH 64 0
BBX 64 64 0 -6
BITMAP
0000000000000000
0000000000000000
0000000000000000
0000000000000000
0000000000000000
0000000000000000
0000000000000000
0000000000000000
0000000000000000
0000000000000000
0000000000000000
0000000000000000
0000000000000000
0000000000000000
0000000000000000
0000000000000000
0000000000000000
0000000000000000
0000000000000000
0000000000000000
0000000000000000
0000000000000000
0000000000000000
0000000000000000
0000000000000000
0000000000000000
0000000000000000
0000000000000000
0000000000000000
0000000000000000
0000000000000000
0000000000000000
0000000000000000
0000000000000000
0000000000000000
0000000000000000
0000000000000000
0000000000000000
0000000000000000
0000000000000000
0000000000000000
0000000000000000
0000000000000000
0000000000000000
0000000000000000
0000000000000000
0000000000000000
0000000000000000
0000000000000000
0000000000000000
0000000000000000
0000000000000000
0000000000000000
0000000000000000
0000000000000000
0000000000000000
0000000000000000
0000000000000000
0000000000000000
0000000000000000
0000000000000000
0000000000000000
0000000000000000
0000000000000000
ENDCHAR

STARTCHAR kor_A1A2
ENCODING 41378
SWIDTH 1024 0
DWIDTH 64 0
BBX 64 64 0 -6
BITMAP
0000000000000000
0000000000000000
0000000000000000
0000000000000000
00000000000F8000
00000000000FF000
000000000007FC00
000000000001FF00
000000000000FFC0
0000000000007FE0
0000000000003FE0
0000000000001FE0
0000000000000FF0
0000000000000FF0
00000000000007F0
00000000000007E0
00000000000003E0
0000000000000180
0000000000000000
0000000000000000
0000000000000000
0000000000000000
0000000000000000
0000000000000000
0000000000000000
0000000000000000
0000000000000000
0000000000000000
0000000000000000
0000000000000000
0000000000000000
0000000000000000
0000000000000000
0000000000000000
0000000000000000
0000000000000000
0000000000000000
0000000000000000
0000000000000000
0000000000000000
0000000000000000
0000000000000000
0000000000000000
0000000000000000
0000000000000000
0000000000000000
0000000000000000
0000000000000000
0000000000000000
0000000000000000
0000000000000000
0000000000000000
0000000000000000
0000000000000000
0000000000000000
0000000000000000
0000000000000000
0000000000000000
0000000000000000
0000000000000000
0000000000000000
0000000000000000
0000000000000000
0000000000000000
ENDCHAR

STARTCHAR kor_A1A3
ENCODING 41379
SWIDTH 1024 0
DWIDTH 64 0
BBX 64 64 0 -6
BITMAP
0000000000000000
0000000000000000
0000000000003F80
000000000000FFC0
000000000001FFE0
000000000001FFF0
000000000003E1F8
000000000007C0F8
0000000000078078
0000000000078038
0000000000078038
0000000000078038
0000000000078078
0000000000038078
000000000003C0F8
000000000001FFF8
000000000001FFF0
000000000000FFC0
0000000000007F80
0000000000000000
0000000000000000
0000000000000000
0000000000000000
0000000000000000
0000000000000000
0000000000000000
0000000000000000
0000000000000000
0000000000000000
0000000000000000
0000000000000000
0000000000000000
0000000000000000
0000000000000000
0000000000000000
0000000000000000
0000000000000000
0000000000000000
0000000000000000
0000000000000000
0000000000000000
0000000000000000
0000000000000000
0000000000000000
0000000000000000
0000000000000000
0000000000000000
0000000000000000
0000000000000000
0000000000000000
0000000000000000
0000000000000000
0000000000000000
0000000000000000
0000000000000000
0000000000000000
0000000000000000
0000000000000000
0000000000000000
0000000000000000
0000000000000000
0000000000000000
0000000000000000
0000000000000000
ENDCHAR

STARTCHAR kor_A1A4
ENCODING 41380
SWIDTH 1024 0
DWIDTH 64 0
BBX 64 64 0 -6
BITMAP
0000000000000000
0000000000000000
0000000000000000
0000000000000000
0000000000000000
0000000000000000
0000000000000000
0000000000000000
0000000000000000
0000000000000000
0000000000000000
0000000000000000
0000000000000000
0000000000000000
0000000000000000
0000000000000000
0000000000000000
0000000000000000
0000000000000000
0000000000000000
0000000000000000
0000000000000000
0000000000000000
0000000000000000
0000000000000000
0000000000000000
0000000FF0000000
0000001FF8000000
0000001FF8000000
0000003FFC000000
0000003FFC000000
0000003FFC000000
0000003FFC000000
0000001FF8000000
0000001FF8000000
0000000FF0000000
00000007E0000000
0000000000000000
0000000000000000
0000000000000000
0000000000000000
0000000000000000
0000000000000000
0000000000000000
0000000000000000
0000000000000000
0000000000000000
0000000000000000
0000000000000000
0000000000000000
0000000000000000
0000000000000000
0000000000000000
0000000000000000
0000000000000000
0000000000000000
0000000000000000
0000000000000000
0000000000000000
0000000000000000
0000000000000000
0000000000000000
0000000000000000
0000000000000000
ENDCHAR

STARTCHAR kor_A1A5
ENCODING 41381
SWIDTH 1024 0
DWIDTH 64 0
BBX 64 64 0 -6
BITMAP
0000000000000000
0000000000000000
0000000000000000
0000000000000000
0000000000000000
0000000000000000
0000000000000000
0000000000000000
0000000000000000
0000000000000000
0000000000000000
0000000000000000
0000000000000000
0000000000000000
0000000000000000
0000000000000000
0000000000000000
0000000000000000
0000000000000000
0000000000000000
0000000000000000
0000000000000000
0000000000000000
0000000000000000
0000000000000000
0000000000000000
0001E00000078000
0007F800001FE000
000FF800003FE000
000FFC00003FF000
000FFC00003FF000
000FFC00003FF000
000FFC00003FF000
000FF800003FE000
0007F800001FE000
0001E00000078000
0000000000000000
0000000000000000
0000000000000000
0000000000000000
0000000000000000
0000000000000000
0000000000000000
0000000000000000
0000000000000000
0000000000000000
0000000000000000
0000000000000000
0000000000000000
0000000000000000
0000000000000000
0000000000000000
0000000000000000
0000000000000000
0000000000000000
0000000000000000
0000000000000000
0000000000000000
0000000000000000
0000000000000000
0000000000000000
0000000000000000
0000000000000000
0000000000000000
ENDCHAR

STARTCHAR kor_A1A6
ENCODING 41382
SWIDTH 1024 0
DWIDTH 64 0
BBX 64 64 0 -6
BITMAP
0000000000000000
0000000000000000
0000000000000000
0000000000000000
0000000000000000
0000000000000000
0000000000000000
0000000000000000
0000000000000000
0000000000000000
0000000000000000
0000000000000000
0000000000000000
0000000000000000
0000000000000000
0000000000000000
0000000000000000
0000000000000000
0000000000000000
0000000000000000
0000000000000000
0000000000000000
0000000000000000
0000000000000000
0000000000000000
0000000000000000
007C0007C0003C00
00FF000FE000FF00
01FF001FF001FF00
01FF001FF001FF80
01FF001FF001FF80
01FF001FF001FF80
01FF001FF001FF80
01FF001FF001FF00
00FF000FE000FF00
007C0007C0003C00
0000000000000000
0000000000000000
0000000000000000
0000000000000000
0000000000000000
0000000000000000
0000000000000000
0000000000000000
0000000000000000
0000000000000000
0000000000000000
0000000000000000
0000000000000000
0000000000000000
0000000000000000
0000000000000000
0000000000000000
0000000000000000
0000000000000000
0000000000000000
0000000000000000
0000000000000000
0000000000000000
0000000000000000
0000000000000000
0000000000000000
0000000000000000
0000000000000000
ENDCHAR

STARTCHAR kor_A1A7
ENCODING 41383
SWIDTH 1024 0
DWIDTH 64 0
BBX 64 64 0 -6
BITMAP
0000000000000000
0000000000000000
0000000000000000
0000000000000000
0000000000000000
0000000000000000
0000000000000000
0001E00000078000
0003F000000FC000
000FF800003FE000
000FFC00003FF000
000FFC00003FF000
000FFC00003FF000
000FFC00003FF000
000FF800003FE000
0007F800001FE000
0001E00000078000
0000000000000000
0000000000000000
0000000000000000
0000000000000000
0000000000000000
0000000000000000
0000000000000000
0000000000000000
0000000000000000
0000000000000000
0000000000000000
0000000000000000
0000000000000000
0000000000000000
0000000000000000
0000000000000000
0000000000000000
0000000000000000
0000000000000000
0000000000000000
0000000000000000
0000000000000000
0000000000000000
0000000000000000
0000000000000000
0000000000000000
0000000000000000
0000000000000000
0000000000000000
0000000000000000
0000000000000000
0000000000000000
0000000000000000
0000000000000000
0000000000000000
0000000000000000
0000000000000000
0000000000000000
0000000000000000
0000000000000000
0000000000000000
0000000000000000
0000000000000000
0000000000000000
0000000000000000
0000000000000000
0000000000000000
ENDCHAR

STARTCHAR kor_A1A8
ENCODING 41384
SWIDTH 1024 0
DWIDTH 64 0
BBX 64 64 0 -6
BITMAP
0000000000000000
0000000000000000
0000000000000000
0000000000000000
0000000000000000
0000000000000000
0000000000000000
0000000000000000
0000000000000000
0000000000000000
0000000000000000
0000000000000000
0000000000000000
0000000000000000
0000000000000000
0000000000000000
0000000000000000
0000000000000000
0000000000000000
0000000000000000
0000001FCFE00000
0000001FCFE00000
0000001F8FC00000
0000001F8FC00000
0000003F1F800000
0000003F1F800000
0000003F1F800000
0000003E1F000000
0000007E3F000000
0000007C3F000000
0000007C3E000000
0000007C3E000000
000000F87C000000
000000F87C000000
000000F87C000000
000000F078000000
000001F0F8000000
000001E0F0000000
000001E0F0000000
000001E0F0000000
000003C1E0000000
000003C1E0000000
00000381C0000000
00000381C0000000
0000000000000000
0000000000000000
0000000000000000
0000000000000000
0000000000000000
0000000000000000
0000000000000000
0000000000000000
0000000000000000
0000000000000000
0000000000000000
0000000000000000
0000000000000000
0000000000000000
0000000000000000
0000000000000000
0000000000000000
0000000000000000
0000000000000000
0000000000000000
ENDCHAR

STARTCHAR kor_A1A9
ENCODING 41385
SWIDTH 1024 0
DWIDTH 64 0
BBX 64 64 0 -6
BITMAP
0000000000000000
0000000000000000
0000000000000000
0000000000000000
0000000000000000
0000000000000000
0000000000000000
0000000000000000
0000000000000000
0000000000000000
0000000000000000
0000000000000000
0000000000000000
0000000000000000
0000000000000000
0000000000000000
0000000000000000
0000000000000000
0000000000000000
0000000000000000
0000000000000000
0000000000000000
0000000000000000
0000000000000000
0000000000000000
0000000000000000
0000000000000000
0000000000000000
0000000000000000
000007FFFFF00000
000007FFFFF00000
000007FFFFF00000
000007FFFFF00000
0000000000000000
0000000000000000
0000000000000000
0000000000000000
0000000000000000
0000000000000000
0000000000000000
0000000000000000
0000000000000000
0000000000000000
0000000000000000
0000000000000000
0000000000000000
0000000000000000
0000000000000000
0000000000000000
0000000000000000
0000000000000000
0000000000000000
0000000000000000
0000000000000000
0000000000000000
0000000000000000
0000000000000000
0000000000000000
0000000000000000
0000000000000000
0000000000000000
0000000000000000
0000000000000000
0000000000000000
ENDCHAR

STARTCHAR kor_A1AA
ENCODING 41386
SWIDTH 1024 0
DWIDTH 64 0
BBX 64 64 0 -6
BITMAP
0000000000000000
0000000000000000
0000000000000000
0000000000000000
0000000000000000
0000000000000000
0000000000000000
0000000000000000
0000000000000000
0000000000000000
0000000000000000
0000000000000000
0000000000000000
0000000000000000
0000000000000000
0000000000000000
0000000000000000
0000000000000000
0000000000000000
0000000000000000
0000000000000000
0000000000000000
0000000000000000
0000000000000000
0000000000000000
0000000000000000
0000000000000000
0000000000000000
0000000000000000
7FFFFFFFFFFFFFFE
7FFFFFFFFFFFFFFE
7FFFFFFFFFFFFFFE
7FFFFFFFFFFFFFFE
0000000000000000
0000000000000000
0000000000000000
0000000000000000
0000000000000000
0000000000000000
0000000000000000
0000000000000000
0000000000000000
0000000000000000
0000000000000000
0000000000000000
0000000000000000
0000000000000000
0000000000000000
0000000000000000
0000000000000000
0000000000000000
0000000000000000
0000000000000000
0000000000000000
0000000000000000
0000000000000000
0000000000000000
0000000000000000
0000000000000000
0000000000000000
0000000000000000
0000000000000000
0000000000000000
0000000000000000
ENDCHAR

STARTCHAR kor_A1AB
ENCODING 41387
SWIDTH 1024 0
DWIDTH 64 0
BBX 64 64 0 -6
BITMAP
0000000000000000
0000000000000000
0000000000000000
0000000000000000
0000000000000000
0000000000000000
0000000000000000
0000000000000000
0000000000000000
0000000000000000
000000F00F000000
000000F00F000000
000000F00F000000
000000F00F000000
000000F00F000000
000000F00F000000
000000F00F000000
000000F00F000000
000000F00F000000
000000F00F000000
000000F00F000000
000000F00F000000
000000F00F000000
000000F00F000000
000000F00F000000
000000F00F000000
000000F00F000000
000000F00F000000
000000F00F000000
000000F00F000000
000000F00F000000
000000F00F000000
000000F00F000000
000000F00F000000
000000F00F000000
000000F00F000000
000000F00F000000
000000F00F000000
000000F00F000000
000000F00F000000
000000F00F000000
000000F00F000000
000000F00F000000
000000F00F000000
000000F00F000000
000000F00F000000
000000F00F000000
000000F00F000000
000000F00F000000
000000F00F000000
000000F00F000000
000000F00F000000
0000000000000000
0000000000000000
0000000000000000
0000000000000000
0000000000000000
0000000000000000
0000000000000000
0000000000000000
0000000000000000
0000000000000000
0000000000000000
0000000000000000
ENDCHAR

STARTCHAR kor_A1AC
ENCODING 41388
SWIDTH 1024 0
DWIDTH 64 0
BBX 64 64 0 -6
BITMAP
0000000000000000
0003800000000000
0007C00000000000
0007C00000000000
0003E00000000000
0003E00000000000
0001F00000000000
0001F80000000000
0000F80000000000
00007C0000000000
00007C0000000000
00003E0000000000
00003E0000000000
00001F0000000000
00001F8000000000
00000F8000000000
000007C000000000
000007C000000000
000003E000000000
000003F000000000
000001F000000000
000000F800000000
000000F800000000
0000007C00000000
0000007C00000000
0000003E00000000
0000003F00000000
0000001F00000000
0000000F80000000
0000000F80000000
00000007C0000000
00000007E0000000
00000003E0000000
00000001F0000000
00000001F0000000
00000000F8000000
00000000FC000000
000000007C000000
000000003E000000
000000003E000000
000000001F000000
000000001F000000
000000000F800000
000000000FC00000
0000000007C00000
0000000003E00000
0000000003E00000
0000000001F00000
0000000001F80000
0000000000F80000
00000000007C0000
00000000007C0000
00000000003E0000
00000000003E0000
00000000001F0000
00000000001F8000
00000000000F8000
000000000007C000
000000000007C000
000000000003E000
000000000003E000
000000000001C000
0000000000000000
0000000000000000
ENDCHAR

STARTCHAR kor_A1AD
ENCODING 41389
SWIDTH 1024 0
DWIDTH 64 0
BBX 64 64 0 -6
BITMAP
0000000000000000
0000000000000000
0000000000000000
0000000000000000
0000000000000000
0000000000000000
0000000000000000
0000000000000000
0000000000000000
0000000000000000
0000000000000000
0000000000000000
0000000000000000
0000000000000000
0000000000000000
0000000000000000
0000000000000000
0000000000000000
0000000000000000
0000000000000000
0000000000000000
0000000000000000
0000000000000000
0000000000000000
0000000000000000
00007FC000000000
0001FFF000000000
0007FFFE00000C00
000FFFFFC0001E00
001FFFFFF8007E00
003FF07FFF07FC00
003F000FFFFFF800
001C0003FFFFF000
000000007FFFE000
000000000FFF0000
00000000003C0000
0000000000000000
0000000000000000
0000000000000000
0000000000000000
0000000000000000
0000000000000000
0000000000000000
0000000000000000
0000000000000000
0000000000000000
0000000000000000
0000000000000000
0000000000000000
0000000000000000
0000000000000000
0000000000000000
0000000000000000
0000000000000000
0000000000000000
0000000000000000
0000000000000000
0000000000000000
0000000000000000
0000000000000000
0000000000000000
0000000000000000
0000000000000000
0000000000000000
ENDCHAR

STARTCHAR kor_A1AE
ENCODING 41390
SWIDTH 1024 0
DWIDTH 64 0
BBX 64 64 0 -6
BITMAP
0000000000000060
00000000000000F0
00000000000001F8
00000000000003F8
00000000000007F0
00000000000007E0
0000000000000FC0
0000000000000FC0
0000000000000F80
0000000000001FF8
0000000000001FF8
0000000000001FF8
0000000000001FF8
0000000000001FF8
0000000000001FF8
0000000000001FF8
0000000000001FF8
0000000000001FF8
0000000000000000
0000000000000000
0000000000000000
0000000000000000
0000000000000000
0000000000000000
0000000000000000
0000000000000000
0000000000000000
0000000000000000
0000000000000000
0000000000000000
0000000000000000
0000000000000000
0000000000000000
0000000000000000
0000000000000000
0000000000000000
0000000000000000
0000000000000000
0000000000000000
0000000000000000
0000000000000000
0000000000000000
0000000000000000
0000000000000000
0000000000000000
0000000000000000
0000000000000000
0000000000000000
0000000000000000
0000000000000000
0000000000000000
0000000000000000
0000000000000000
0000000000000000
0000000000000000
0000000000000000
0000000000000000
0000000000000000
0000000000000000
0000000000000000
0000000000000000
0000000000000000
0000000000000000
0000000000000000
ENDCHAR

STARTCHAR kor_A1AF
ENCODING 41391
SWIDTH 1024 0
DWIDTH 64 0
BBX 64 64 0 -6
BITMAP
0FFC000000000000
0FFC000000000000
0FFC000000000000
0FFC000000000000
0FFC000000000000
0FFC000000000000
0FFC000000000000
0FFC000000000000
0FFC000000000000
00F8000000000000
01F8000000000000
01F8000000000000
03F0000000000000
07F0000000000000
0FE0000000000000
0FC0000000000000
0780000000000000
0300000000000000
0000000000000000
0000000000000000
0000000000000000
0000000000000000
0000000000000000
0000000000000000
0000000000000000
0000000000000000
0000000000000000
0000000000000000
0000000000000000
0000000000000000
0000000000000000
0000000000000000
0000000000000000
0000000000000000
0000000000000000
0000000000000000
0000000000000000
0000000000000000
0000000000000000
0000000000000000
0000000000000000
0000000000000000
0000000000000000
0000000000000000
0000000000000000
0000000000000000
0000000000000000
0000000000000000
0000000000000000
0000000000000000
0000000000000000
0000000000000000
0000000000000000
0000000000000000
0000000000000000
0000000000000000
0000000000000000
0000000000000000
0000000000000000
0000000000000000
0000000000000000
0000000000000000
0000000000000000
0000000000000000
ENDCHAR

STARTCHAR kor_A1B0
ENCODING 41392
SWIDTH 1024 0
DWIDTH 64 0
BBX 64 64 0 -6
BITMAP
00000000000C0060
00000000001E00F0
00000000003F01F8
00000000007F03F8
0000000000FE07F0
0000000000FC07E0
0000000001F80FC0
0000000001F80FC0
0000000001F00F80
0000000003FF1FF8
0000000003FF1FF8
0000000003FF1FF8
0000000003FF1FF8
0000000003FF1FF8
0000000003FF1FF8
0000000003FF1FF8
0000000003FF1FF8
0000000003FF1FF8
0000000000000000
0000000000000000
0000000000000000
0000000000000000
0000000000000000
0000000000000000
0000000000000000
0000000000000000
0000000000000000
0000000000000000
0000000000000000
0000000000000000
0000000000000000
0000000000000000
0000000000000000
0000000000000000
0000000000000000
0000000000000000
0000000000000000
0000000000000000
0000000000000000
0000000000000000
0000000000000000
0000000000000000
0000000000000000
0000000000000000
0000000000000000
0000000000000000
0000000000000000
0000000000000000
0000000000000000
0000000000000000
0000000000000000
0000000000000000
0000000000000000
0000000000000000
0000000000000000
0000000000000000
0000000000000000
0000000000000000
0000000000000000
0000000000000000
0000000000000000
0000000000000000
0000000000000000
0000000000000000
ENDCHAR

STARTCHAR kor_A1B1
ENCODING 41393
SWIDTH 1024 0
DWIDTH 64 0
BBX 64 64 0 -6
BITMAP
1FF87FE000000000
1FF87FE000000000
1FF87FE000000000
1FF87FE000000000
1FF87FE000000000
1FF87FE000000000
1FF87FE000000000
1FF87FE000000000
1FF87FE000000000
01F007C000000000
03F00FC000000000
03F00FC000000000
07E01F8000000000
0FE03F8000000000
1FC07F0000000000
1F807E0000000000
0F003C0000000000
0600180000000000
0000000000000000
0000000000000000
0000000000000000
0000000000000000
0000000000000000
0000000000000000
0000000000000000
0000000000000000
0000000000000000
0000000000000000
0000000000000000
0000000000000000
0000000000000000
0000000000000000
0000000000000000
0000000000000000
0000000000000000
0000000000000000
0000000000000000
0000000000000000
0000000000000000
0000000000000000
0000000000000000
0000000000000000
0000000000000000
0000000000000000
0000000000000000
0000000000000000
0000000000000000
0000000000000000
0000000000000000
0000000000000000
0000000000000000
0000000000000000
0000000000000000
0000000000000000
0000000000000000
0000000000000000
0000000000000000
0000000000000000
0000000000000000
0000000000000000
0000000000000000
0000000000000000
0000000000000000
0000000000000000
ENDCHAR

STARTCHAR kor_A1B2
ENCODING 41394
SWIDTH 1024 0
DWIDTH 64 0
BBX 64 64 0 -6
BITMAP
0000000000000070
00000000000007F8
0000000000003FF8
000000000003FFF8
00000000000FFFC0
00000000000FFC00
00000000000FC000
00000000000F0000
00000000000F0000
00000000000F0000
00000000000F0000
00000000000F0000
00000000000F0000
00000000000F0000
00000000000F0000
00000000000F0000
00000000000F0000
00000000000F0000
00000000000F0000
00000000000F0000
00000000000F0000
00000000000F0000
00000000000F0000
00000000000F0000
00000000000F0000
00000000000F0000
00000000000F0000
00000000000F0000
00000000000F0000
00000000000F0000
00000000000F0000
00000000000F0000
00000000000F0000
00000000000F0000
00000000000F0000
00000000000F0000
00000000000F0000
00000000000F0000
00000000000F0000
00000000000F0000
00000000000F0000
00000000000F0000
00000000000F0000
00000000000F0000
00000000000F0000
00000000000F0000
00000000000F0000
00000000000F0000
00000000000F0000
00000000000F0000
00000000000F0000
00000000000F0000
00000000000F0000
00000000000F0000
00000000000F0000
00000000000FC000
00000000000FFC00
00000000000FFFC0
000000000003FFF8
0000000000003FF8
00000000000007F0
0000000000000070
0000000000000000
0000000000000000
ENDCHAR

STARTCHAR kor_A1B3
ENCODING 41395
SWIDTH 1024 0
DWIDTH 64 0
BBX 64 64 0 -6
BITMAP
0E00000000000000
0FE0000000000000
1FFE000000000000
1FFFE00000000000
03FFF80000000000
001FF80000000000
0001F80000000000
0000780000000000
0000780000000000
0000780000000000
0000780000000000
0000780000000000
0000780000000000
0000780000000000
0000780000000000
0000780000000000
0000780000000000
0000780000000000
0000780000000000
0000780000000000
0000780000000000
0000780000000000
0000780000000000
0000780000000000
0000780000000000
0000780000000000
0000780000000000
0000780000000000
0000780000000000
0000780000000000
0000780000000000
0000780000000000
0000780000000000
0000780000000000
0000780000000000
0000780000000000
0000780000000000
0000780000000000
0000780000000000
0000780000000000
0000780000000000
0000780000000000
0000780000000000
0000780000000000
0000780000000000
0000780000000000
0000780000000000
0000780000000000
0000780000000000
0000780000000000
0000780000000000
0000780000000000
0000780000000000
0000780000000000
0000780000000000
0001F80000000000
003FF80000000000
03FFF80000000000
1FFFE00000000000
1FFE000000000000
1FE0000000000000
0E00000000000000
0000000000000000
0000000000000000
ENDCHAR

STARTCHAR kor_A1B4
ENCODING 41396
SWIDTH 1024 0
DWIDTH 64 0
BBX 64 64 0 -6
BITMAP
0000000000000000
0000000000000000
0000000000000000
0000000000000000
0000000000000060
00000000000000F8
00000000000001F8
00000000000003F0
00000000000003E0
00000000000007C0
0000000000000FC0
0000000000001F80
0000000000003F00
0000000000007E00
0000000000007C00
000000000000F800
000000000001F800
000000000003F000
000000000007E000
00000000000FC000
00000000001F8000
00000000001F0000
00000000003F0000
00000000007E0000
0000000000FC0000
0000000001F80000
0000000003F00000
0000000003E00000
0000000007E00000
000000000FC00000
000000001F800000
000000001F800000
000000000FC00000
0000000007C00000
0000000007E00000
0000000003F00000
0000000001F80000
0000000000F80000
0000000000FC0000
00000000007E0000
00000000003F0000
00000000001F8000
00000000000F8000
00000000000FC000
000000000007E000
000000000003F000
000000000001F000
000000000000F800
000000000000FC00
0000000000007E00
0000000000003F00
0000000000001F00
0000000000001F80
0000000000000FC0
00000000000007E0
00000000000003E0
00000000000001F0
00000000000001F8
00000000000000F8
0000000000000070
0000000000000000
0000000000000000
0000000000000000
0000000000000000
ENDCHAR

STARTCHAR kor_A1B5
ENCODING 41397
SWIDTH 1024 0
DWIDTH 64 0
BBX 64 64 0 -6
BITMAP
0000000000000000
0000000000000000
0000000000000000
0000000000000000
0E00000000000000
1F00000000000000
1F80000000000000
0FC0000000000000
07C0000000000000
03E0000000000000
03F0000000000000
01F8000000000000
00FC000000000000
007E000000000000
003E000000000000
001F000000000000
001F800000000000
000FC00000000000
0007E00000000000
0003F00000000000
0001F80000000000
0000F80000000000
0000FC0000000000
00007E0000000000
00003F0000000000
00001F8000000000
00000FC000000000
000007C000000000
000007E000000000
000003F000000000
000001F800000000
000001F800000000
000003F000000000
000003E000000000
000007E000000000
00000FC000000000
00001F8000000000
00001F0000000000
00003E0000000000
00007E0000000000
0000FC0000000000
0001F80000000000
0001F00000000000
0003F00000000000
0007E00000000000
000FC00000000000
000F800000000000
001F000000000000
003F000000000000
007E000000000000
00FC000000000000
00F8000000000000
01F0000000000000
03F0000000000000
07E0000000000000
07C0000000000000
0F80000000000000
1F80000000000000
1F00000000000000
0600000000000000
0000000000000000
0000000000000000
0000000000000000
0000000000000000
ENDCHAR

STARTCHAR kor_A1B6
ENCODING 41398
SWIDTH 1024 0
DWIDTH 64 0
BBX 64 64 0 -6
BITMAP
0000000000000000
0000000000000000
0000000000000000
0000000000000000
0000000000003060
0000000000007CF8
0000000000007CF8
000000000000F9F0
000000000000FBF0
000000000001F3E0
000000000003E7C0
000000000003EFC0
000000000007CF80
00000000000FDF80
00000000000FBF00
00000000001F3E00
00000000001F7E00
00000000003E7C00
00000000007CF800
00000000007DF800
0000000000F9F000
0000000000F3E000
0000000001F7E000
0000000003E7C000
0000000003CF8000
0000000007DF8000
000000000F9F0000
000000000FBF0000
000000001F7E0000
000000001E7C0000
000000003EFC0000
000000003EFC0000
000000001E7C0000
000000001F7E0000
000000000F3E0000
000000000FBF0000
0000000007DF8000
0000000003CF8000
0000000003EFC000
0000000001E7C000
0000000001F7E000
0000000000FBF000
000000000079F000
00000000007DF800
00000000003CF800
00000000003EFC00
00000000001E7C00
00000000000F3E00
00000000000FBF00
0000000000079F00
000000000003CF80
000000000003CF80
000000000001E7C0
000000000001F7E0
000000000000F3E0
00000000000079F0
00000000000079F0
0000000000003CF8
0000000000003CF8
0000000000001870
0000000000000000
0000000000000000
0000000000000000
0000000000000000
ENDCHAR

STARTCHAR kor_A1B7
ENCODING 41399
SWIDTH 1024 0
DWIDTH 64 0
BBX 64 64 0 -6
BITMAP
0000000000000000
0000000000000000
0000000000000000
0000000000000000
0E1C000000000000
1F3E000000000000
1F3E000000000000
0F9F000000000000
0FDF000000000000
07CF800000000000
03E7C00000000000
03F7C00000000000
01F3E00000000000
01FBF00000000000
00FDF00000000000
007CF80000000000
007EF80000000000
003F7C0000000000
001F3E0000000000
001FBE0000000000
000F9F0000000000
0007CF0000000000
0007EF8000000000
0003E7C000000000
0001F3C000000000
0001FBE000000000
0000F9F000000000
0000FDF000000000
00007EF800000000
00003E7800000000
00003F7C00000000
00003F7C00000000
00003E7800000000
00007EF800000000
00007CF000000000
0000FDF000000000
0001FBE000000000
0001F3E000000000
0003F7C000000000
0003E78000000000
0007EF8000000000
000FDF0000000000
000F9F0000000000
001FBE0000000000
001F3E0000000000
003E7C0000000000
003E780000000000
007CF80000000000
00FDF00000000000
00F9F00000000000
01F3E00000000000
01F3E00000000000
03E7C00000000000
07EF800000000000
07CF800000000000
0F9F000000000000
0F9F000000000000
1F3E000000000000
1F3E000000000000
060C000000000000
0000000000000000
0000000000000000
0000000000000000
0000000000000000
ENDCHAR

STARTCHAR kor_A1B8
ENCODING 41400
SWIDTH 1024 0
DWIDTH 64 0
BBX 64 64 0 -6
BITMAP
0000000001FFFFF8
0000000001FFFFF8
0000000001FFFFF8
0000000001FFFFF8
0000000001E00000
0000000001E00000
0000000001E00000
0000000001E00000
0000000001E00000
0000000001E00000
0000000001E00000
0000000001E00000
0000000001E00000
0000000001E00000
0000000001E00000
0000000001E00000
0000000001E00000
0000000001E00000
0000000001E00000
0000000001E00000
0000000001E00000
0000000001E00000
0000000001E00000
0000000001E00000
0000000001E00000
0000000001E00000
0000000001E00000
0000000001E00000
0000000001E00000
0000000001E00000
0000000001E00000
0000000001E00000
0000000000000000
0000000000000000
0000000000000000
0000000000000000
0000000000000000
0000000000000000
0000000000000000
0000000000000000
0000000000000000
0000000000000000
0000000000000000
0000000000000000
0000000000000000
0000000000000000
0000000000000000
0000000000000000
0000000000000000
0000000000000000
0000000000000000
0000000000000000
0000000000000000
0000000000000000
0000000000000000
0000000000000000
0000000000000000
0000000000000000
0000000000000000
0000000000000000
0000000000000000
0000000000000000
0000000000000000
0000000000000000
ENDCHAR

STARTCHAR kor_A1B9
ENCODING 41401
SWIDTH 1024 0
DWIDTH 64 0
BBX 64 64 0 -6
BITMAP
0000000000000000
0000000000000000
0000000000000000
0000000000000000
0000000000000000
0000000000000000
0000000000000000
0000000000000000
0000000000000000
0000000000000000
0000000000000000
0000000000000000
0000000000000000
0000000000000000
0000000000000000
0000000000000000
0000000000000000
0000000000000000
0000000000000000
0000000000000000
0000000000000000
0000000000000000
0000000000000000
0000000000000000
0000000000000000
0000000000000000
0000000000000000
0000000000000000
0000000000000000
0000000000000000
0000078000000000
0000078000000000
0000078000000000
0000078000000000
0000078000000000
0000078000000000
0000078000000000
0000078000000000
0000078000000000
0000078000000000
0000078000000000
0000078000000000
0000078000000000
0000078000000000
0000078000000000
0000078000000000
0000078000000000
0000078000000000
0000078000000000
0000078000000000
0000078000000000
0000078000000000
0000078000000000
0000078000000000
0000078000000000
0000078000000000
0000078000000000
0000078000000000
0000078000000000
1FFFFF8000000000
1FFFFF8000000000
1FFFFF8000000000
0000000000000000
0000000000000000
ENDCHAR

STARTCHAR kor_A1BA
ENCODING 41402
SWIDTH 1024 0
DWIDTH 64 0
BBX 64 64 0 -6
BITMAP
0000000001FFFFF8
0000000001FFFFF8
0000000001FFFFF8
0000000001E00078
0000000001EFFFF8
0000000001EFFFF8
0000000001EFFFF8
0000000001EFFFF8
0000000001EF0000
0000000001EF0000
0000000001EF0000
0000000001EF0000
0000000001EF0000
0000000001EF0000
0000000001EF0000
0000000001EF0000
0000000001EF0000
0000000001EF0000
0000000001EF0000
0000000001EF0000
0000000001EF0000
0000000001EF0000
0000000001EF0000
0000000001EF0000
0000000001EF0000
0000000001EF0000
0000000001EF0000
0000000001EF0000
0000000001EF0000
0000000001FF0000
0000000001FF0000
0000000001FF0000
0000000000000000
0000000000000000
0000000000000000
0000000000000000
0000000000000000
0000000000000000
0000000000000000
0000000000000000
0000000000000000
0000000000000000
0000000000000000
0000000000000000
0000000000000000
0000000000000000
0000000000000000
0000000000000000
0000000000000000
0000000000000000
0000000000000000
0000000000000000
0000000000000000
0000000000000000
0000000000000000
0000000000000000
0000000000000000
0000000000000000
0000000000000000
0000000000000000
0000000000000000
0000000000000000
0000000000000000
0000000000000000
ENDCHAR

STARTCHAR kor_A1BB
ENCODING 41403
SWIDTH 1024 0
DWIDTH 64 0
BBX 64 64 0 -6
BITMAP
0000000000000000
0000000000000000
0000000000000000
0000000000000000
0000000000000000
0000000000000000
0000000000000000
0000000000000000
0000000000000000
0000000000000000
0000000000000000
0000000000000000
0000000000000000
0000000000000000
0000000000000000
0000000000000000
0000000000000000
0000000000000000
0000000000000000
0000000000000000
0000000000000000
0000000000000000
0000000000000000
0000000000000000
0000000000000000
0000000000000000
0000000000000000
0000000000000000
0000000000000000
0000000000000000
0000FF8000000000
0000FF8000000000
0000FF8000000000
0000FF8000000000
0000F78000000000
0000F78000000000
0000F78000000000
0000F78000000000
0000F78000000000
0000F78000000000
0000F78000000000
0000F78000000000
0000F78000000000
0000F78000000000
0000F78000000000
0000F78000000000
0000F78000000000
0000F78000000000
0000F78000000000
0000F78000000000
0000F78000000000
0000F78000000000
0000F78000000000
0000F78000000000
1FFFF78000000000
1FFFF78000000000
1FFFF78000000000
1FFFF78000000000
1E00078000000000
1FFFFF8000000000
1FFFFF8000000000
1FFFFF8000000000
0000000000000000
0000000000000000
ENDCHAR

STARTCHAR kor_A1BC
ENCODING 41404
SWIDTH 1024 0
DWIDTH 64 0
BBX 64 64 0 -6
BITMAP
0000000000000000
0000000000000000
0000000000000000
0000000000000000
00000000007FFFF8
00000000007FFFF8
00000000007FFFF0
00000000007FFFC0
00000000007FFF80
00000000007FFF80
00000000007FFF00
00000000007FFF00
00000000007FFE00
00000000007FFE00
00000000007FFC00
00000000007FFC00
00000000007FFC00
00000000007FFC00
00000000007FF800
00000000007FF800
00000000007FF800
00000000007FF800
00000000007FF800
00000000007FF000
00000000007FF000
00000000007FF000
00000000007FF000
00000000007FF000
00000000007FF000
00000000007FF000
00000000007FF000
00000000007FF000
00000000007FF000
00000000007FF000
00000000007FF000
00000000007FF000
00000000007FF000
00000000007FF000
00000000007FF000
00000000007FF000
00000000007FF800
00000000007FF800
00000000007FF800
00000000007FF800
00000000007FF800
00000000007FF800
00000000007FFC00
00000000007FFC00
00000000007FFC00
00000000007FFE00
00000000007FFE00
00000000007FFF00
00000000007FFF00
00000000007FFF80
00000000007FFF80
00000000007FFFC0
00000000007FFFC0
00000000007FFFE0
00000000007FFFF8
00000000007FFFF8
0000000000000000
0000000000000000
0000000000000000
0000000000000000
ENDCHAR

STARTCHAR kor_A1BD
ENCODING 41405
SWIDTH 1024 0
DWIDTH 64 0
BBX 64 64 0 -6
BITMAP
0000000000000000
0000000000000000
0000000000000000
0000000000000000
1FFFFF0000000000
1FFFFF0000000000
0FFFFF0000000000
03FFFF0000000000
01FFFF0000000000
00FFFF0000000000
007FFF0000000000
007FFF0000000000
003FFF0000000000
003FFF0000000000
001FFF0000000000
001FFF0000000000
001FFF0000000000
000FFF0000000000
000FFF0000000000
000FFF0000000000
000FFF0000000000
000FFF0000000000
0007FF0000000000
0007FF0000000000
0007FF0000000000
0007FF0000000000
0007FF0000000000
0007FF0000000000
0007FF0000000000
0007FF0000000000
0007FF0000000000
0007FF0000000000
0007FF0000000000
0007FF0000000000
0007FF0000000000
0007FF0000000000
0007FF0000000000
0007FF0000000000
0007FF0000000000
0007FF0000000000
000FFF0000000000
000FFF0000000000
000FFF0000000000
000FFF0000000000
000FFF0000000000
000FFF0000000000
001FFF0000000000
001FFF0000000000
001FFF0000000000
003FFF0000000000
003FFF0000000000
007FFF0000000000
007FFF0000000000
00FFFF0000000000
01FFFF0000000000
03FFFF0000000000
03FFFF0000000000
07FFFF0000000000
1FFFFF0000000000
1FFFFF0000000000
0000000000000000
0000000000000000
0000000000000000
0000000000000000
ENDCHAR

STARTCHAR kor_A1BE
ENCODING 41406
SWIDTH 1024 0
DWIDTH 64 0
BBX 64 64 0 -6
BITMAP
0000000000000000
0000000000000000
0000000000000000
0000000000000000
0000000000000000
00000003C0000000
00000003C0000000
00000003C0000000
00000003C0000000
00000003C0000000
00000003C0000000
00000003C0000000
00000003C0000000
00000003C0000000
00000003C0000000
00000003C0000000
00000003C0000000
00000003C0000000
00000003C0000000
00000003C0000000
001FFFFFFFFFFC00
001FFFFFFFFFFC00
001FFFFFFFFFFC00
001FFFFFFFFFFC00
00000003C0000000
00000003C0000000
00000003C0000000
00000003C0000000
00000003C0000000
00000003C0000000
00000003C0000000
00000003C0000000
00000003C0000000
00000003C0000000
00000003C0000000
00000003C0000000
00000003C0000000
00000003C0000000
00000003C0000000
00000003C0000000
00000003C0000000
0000000000000000
0000000000000000
0000000000000000
001FFFFFFFFFFC00
001FFFFFFFFFFC00
001FFFFFFFFFFC00
0000000000000000
0000000000000000
0000000000000000
0000000000000000
0000000000000000
0000000000000000
0000000000000000
0000000000000000
0000000000000000
0000000000000000
0000000000000000
0000000000000000
0000000000000000
0000000000000000
0000000000000000
0000000000000000
0000000000000000
ENDCHAR

STARTCHAR kor_A1BF
ENCODING 41407
SWIDTH 1024 0
DWIDTH 64 0
BBX 64 64 0 -6
BITMAP
0000000000000000
0000000000000000
0000000000000000
0000000000000000
0000000000000000
0000000000000000
0000000000000000
0000000000000000
0000000000000000
0000000000000000
0000000000000000
0001800000018000
0001C0000003C000
0003E0000007E000
0003F000000FE000
0001F800001FC000
0000FC00003F8000
00007E00007F0000
00003F0000FE0000
00001F8001FC0000
00000FC003F80000
000007E007F00000
000003F00FE00000
000001F81FC00000
000000FC3F800000
0000007E7F000000
0000003FFE000000
0000001FFC000000
0000000FF8000000
00000007F0000000
00000007F0000000
0000000FF8000000
0000001FFC000000
0000003E7E000000
0000007C3F000000
000000F81F800000
000001F00FC00000
000003E007E00000
000007C003F00000
00000F8001F80000
00001F0000FC0000
00003E00007E0000
00007C00003F0000
0000F800001F8000
0001F000000FC000
0003E0000007E000
0003C0000003E000
000180000001C000
0000000000000000
0000000000000000
0000000000000000
0000000000000000
0000000000000000
0000000000000000
0000000000000000
0000000000000000
0000000000000000
0000000000000000
0000000000000000
0000000000000000
0000000000000000
0000000000000000
0000000000000000
0000000000000000
ENDCHAR

STARTCHAR kor_A1C0
ENCODING 41408
SWIDTH 1024 0
DWIDTH 64 0
BBX 64 64 0 -6
BITMAP
0000000000000000
0000000000000000
0000000000000000
0000000000000000
0000000000000000
0000000000000000
0000000000000000
0000000000000000
0000000000000000
0000000000000000
0000000000000000
0000000000000000
00000003E0000000
00000007F0000000
0000000FF8000000
0000000FF8000000
0000000FF8000000
0000000FF8000000
0000000FF8000000
00000007F0000000
00000007F0000000
0000000000000000
0000000000000000
0000000000000000
0000000000000000
0000000000000000
0000000000000000
0000000000000000
0000000000000000
001FFFFFFFFFFC00
001FFFFFFFFFFC00
001FFFFFFFFFFC00
001FFFFFFFFFFC00
0000000000000000
0000000000000000
0000000000000000
0000000000000000
0000000000000000
0000000000000000
0000000000000000
0000000000000000
00000003E0000000
00000007F0000000
0000000FF8000000
0000000FF8000000
0000000FF8000000
0000000FF8000000
0000000FF8000000
0000000FF8000000
00000007F0000000
0000000000000000
0000000000000000
0000000000000000
0000000000000000
0000000000000000
0000000000000000
0000000000000000
0000000000000000
0000000000000000
0000000000000000
0000000000000000
0000000000000000
0000000000000000
0000000000000000
ENDCHAR

STARTCHAR kor_A1C1
ENCODING 41409
SWIDTH 1024 0
DWIDTH 64 0
BBX 64 64 0 -6
BITMAP
0000000000000000
0000000000000000
0000000000000000
0000000000000000
0000000000000000
0000000000000000
0000000000000000
0000000000000000
0000000000000000
0000000000000000
000000F000000000
000000F000000000
000000F800000000
000000F800000000
0000007800000000
0000007800000000
0000007C00000000
0000007C00000000
0000003C00000000
0000003C00000000
0000003E00000000
0000003E00000000
00FFFFFFFFFFFC00
00FFFFFFFFFFFC00
00FFFFFFFFFFFC00
00FFFFFFFFFFFC00
0000000F00000000
0000000F80000000
0000000780000000
0000000780000000
0000000780000000
00000007C0000000
00000003C0000000
00FFFFFFFFFFFC00
00FFFFFFFFFFFC00
00FFFFFFFFFFFC00
00FFFFFFFFFFFC00
00000001E0000000
00000000F0000000
00000000F0000000
00000000F0000000
0000000070000000
0000000078000000
0000000078000000
0000000078000000
0000000038000000
000000003C000000
000000003C000000
000000001C000000
000000001C000000
0000000000000000
0000000000000000
0000000000000000
0000000000000000
0000000000000000
0000000000000000
0000000000000000
0000000000000000
0000000000000000
0000000000000000
0000000000000000
0000000000000000
0000000000000000
0000000000000000
ENDCHAR

STARTCHAR kor_A1C2
ENCODING 41410
SWIDTH 1024 0
DWIDTH 64 0
BBX 64 64 0 -6
BITMAP
0000000000000000
0000000000000000
0000000000000000
0000000000000000
0000000000000000
0000000000000000
0000000000000000
0000000000000000
0000000000000000
0000000000003800
000000000000FC00
000000000007FC00
00000000001FF000
00000000007FC000
0000000003FF0000
000000000FFC0000
000000007FE00000
00000001FF800000
00000007FE000000
0000003FF8000000
000000FFC0000000
000007FF00000000
00001FFC00000000
00007FF000000000
0003FF8000000000
000FFE0000000000
003FF80000000000
003FFC0000000000
000FFF0000000000
0001FFE000000000
00007FFC00000000
00000FFF80000000
000001FFE0000000
0000003FFC000000
0000000FFF800000
00000001FFF00000
000000003FFE0000
000000000FFF8000
0000000001FFF000
00000000003FFC00
000000000007FC00
000000000001F800
0000000000003800
0000000000000000
001FFFFFFFFFFC00
001FFFFFFFFFFC00
001FFFFFFFFFFC00
0000000000000000
0000000000000000
0000000000000000
0000000000000000
0000000000000000
0000000000000000
0000000000000000
0000000000000000
0000000000000000
0000000000000000
0000000000000000
0000000000000000
0000000000000000
0000000000000000
0000000000000000
0000000000000000
0000000000000000
ENDCHAR

STARTCHAR kor_A1C3
ENCODING 41411
SWIDTH 1024 0
DWIDTH 64 0
BBX 64 64 0 -6
BITMAP
0000000000000000
0000000000000000
0000000000000000
0000000000000000
0000000000000000
0000000000000000
0000000000000000
0000000000000000
0000000000000000
000E000000000000
000F800000000000
001FE00000000000
001FFC0000000000
0007FF0000000000
0001FFC000000000
00007FF800000000
00000FFE00000000
000003FF80000000
000000FFF0000000
0000001FFC000000
00000007FF800000
00000001FFE00000
000000003FF80000
000000000FFF0000
0000000003FFC000
00000000007FF000
00000000001FFC00
00000000001FFC00
0000000000FFF000
0000000003FFC000
000000001FFE0000
000000007FF00000
00000003FFC00000
0000000FFE000000
0000007FF0000000
000001FFC0000000
00000FFE00000000
00003FF000000000
0001FFC000000000
0007FE0000000000
001FF00000000000
001FC00000000000
000E000000000000
0000000000000000
001FFFFFFFFFF800
001FFFFFFFFFF800
001FFFFFFFFFF800
0000000000000000
0000000000000000
0000000000000000
0000000000000000
0000000000000000
0000000000000000
0000000000000000
0000000000000000
0000000000000000
0000000000000000
0000000000000000
0000000000000000
0000000000000000
0000000000000000
0000000000000000
0000000000000000
0000000000000000
ENDCHAR

STARTCHAR kor_A1C4
ENCODING 41412
SWIDTH 1024 0
DWIDTH 64 0
BBX 64 64 0 -6
BITMAP
0000000000000000
0000000000000000
0000000000000000
0000000000000000
0000000000000000
0000000000000000
0000000000000000
0000000000000000
0000000000000000
0000000000000000
0000000000000000
0000000000000000
0000000000000000
0000000000000000
0000000000000000
0000000000000000
0000000000000000
0007FF0001FFC000
001FFFC007FFF000
003FFFF00FFFF800
007FCFF81FFFFC00
00FF01FC3F807E00
01FC00FE7E003F00
01F0003EFE001F80
03F0003FFC000F80
03F0001FF8000780
03E0000FF00007C0
03E00007F00007C0
03E00007E00007C0
03E00007E00007C0
03E00007E00007C0
03C0000FF00007C0
03E0000FF00007C0
03E0001FF80007C0
01F0001FFC000FC0
01F8003EFC000F80
00FC00FE7F001F80
007E03FC3F803F00
003FFFF81FF0FE00
003FFFF00FFFFC00
001FFFC007FFF800
0007FF8003FFE000
0000000000FF0000
0000000000000000
0000000000000000
0000000000000000
0000000000000000
0000000000000000
0000000000000000
0000000000000000
0000000000000000
0000000000000000
0000000000000000
0000000000000000
0000000000000000
0000000000000000
0000000000000000
0000000000000000
0000000000000000
0000000000000000
0000000000000000
0000000000000000
0000000000000000
0000000000000000
ENDCHAR

STARTCHAR kor_A1C5
ENCODING 41413
SWIDTH 1024 0
DWIDTH 64 0
BBX 64 64 0 -6
BITMAP
0000000000000000
0000000000000000
0000000000000000
0000000000000000
0000000000000000
0000000000000000
0000000000000000
0000000000000000
0000000000000000
0000000000000000
0000000000000000
0000000000000000
00000003E0000000
00000007F0000000
0000000FF8000000
0000000FF8000000
0000000FF8000000
0000000FF8000000
0000000FF8000000
0000000FF8000000
00000007F0000000
0000000000000000
0000000000000000
0000000000000000
0000000000000000
0000000000000000
0000000000000000
0000000000000000
0000000000000000
0000000000000000
0000000000000000
0000000000000000
0000000000000000
0000000000000000
0000000000000000
0000000000000000
0000000000000000
0001F800000FC000
0003FE00003FE000
0003FE00003FE000
0003FE00003FE000
0003FE00003FE000
0003FE00003FE000
0003FE00003FE000
0003FC00001FE000
0001F800000FC000
0000000000000000
0000000000000000
0000000000000000
0000000000000000
0000000000000000
0000000000000000
0000000000000000
0000000000000000
0000000000000000
0000000000000000
0000000000000000
0000000000000000
0000000000000000
0000000000000000
0000000000000000
0000000000000000
0000000000000000
0000000000000000
ENDCHAR

STARTCHAR kor_A1C6
ENCODING 41414
SWIDTH 1024 0
DWIDTH 64 0
BBX 64 64 0 -6
BITMAP
0000000000000000
0000000000000000
0000000000000000
0000000000000000
00FE000000000000
01FF000000000000
03FFC00000000000
07FFE00000000000
07C3E00000000000
0781E00000000000
0781E00000000000
0781E00000000000
0781E00000000000
07C7E00000000000
07FFE00000000000
03FFC00000000000
01FF800000000000
007E000000000000
0000000000000000
0000000000000000
0000000000000000
0000000000000000
0000000000000000
0000000000000000
0000000000000000
0000000000000000
0000000000000000
0000000000000000
0000000000000000
0000000000000000
0000000000000000
0000000000000000
0000000000000000
0000000000000000
0000000000000000
0000000000000000
0000000000000000
0000000000000000
0000000000000000
0000000000000000
0000000000000000
0000000000000000
0000000000000000
0000000000000000
0000000000000000
0000000000000000
0000000000000000
0000000000000000
0000000000000000
0000000000000000
0000000000000000
0000000000000000
0000000000000000
0000000000000000
0000000000000000
0000000000000000
0000000000000000
0000000000000000
0000000000000000
0000000000000000
0000000000000000
0000000000000000
0000000000000000
0000000000000000
ENDCHAR

STARTCHAR kor_A1C7
ENCODING 41415
SWIDTH 1024 0
DWIDTH 64 0
BBX 64 64 0 -6
BITMAP
0000000000000000
0000000000000000
003FC00000000000
007FC00000000000
007F800000000000
00FF000000000000
00FE000000000000
01FE000000000000
01FC000000000000
03F8000000000000
03F0000000000000
07E0000000000000
07E0000000000000
0FC0000000000000
0F80000000000000
1F00000000000000
1E00000000000000
3E00000000000000
3C00000000000000
3800000000000000
0000000000000000
0000000000000000
0000000000000000
0000000000000000
0000000000000000
0000000000000000
0000000000000000
0000000000000000
0000000000000000
0000000000000000
0000000000000000
0000000000000000
0000000000000000
0000000000000000
0000000000000000
0000000000000000
0000000000000000
0000000000000000
0000000000000000
0000000000000000
0000000000000000
0000000000000000
0000000000000000
0000000000000000
0000000000000000
0000000000000000
0000000000000000
0000000000000000
0000000000000000
0000000000000000
0000000000000000
0000000000000000
0000000000000000
0000000000000000
0000000000000000
0000000000000000
0000000000000000
0000000000000000
0000000000000000
0000000000000000
0000000000000000
0000000000000000
0000000000000000
0000000000000000
ENDCHAR

STARTCHAR kor_A1C8
ENCODING 41416
SWIDTH 1024 0
DWIDTH 64 0
BBX 64 64 0 -6
BITMAP
0000000000000000
0000000000000000
003FC7F800000000
007FCFF800000000
007F8FF000000000
00FF1FE000000000
00FE1FC000000000
01FE3FC000000000
01FC3F8000000000
03F87F0000000000
03F07E0000000000
07E0FC0000000000
07E0FC0000000000
0FC1F80000000000
0F81F00000000000
1F03E00000000000
1E03C00000000000
3E07C00000000000
3C07800000000000
3807000000000000
0000000000000000
0000000000000000
0000000000000000
0000000000000000
0000000000000000
0000000000000000
0000000000000000
0000000000000000
0000000000000000
0000000000000000
0000000000000000
0000000000000000
0000000000000000
0000000000000000
0000000000000000
0000000000000000
0000000000000000
0000000000000000
0000000000000000
0000000000000000
0000000000000000
0000000000000000
0000000000000000
0000000000000000
0000000000000000
0000000000000000
0000000000000000
0000000000000000
0000000000000000
0000000000000000
0000000000000000
0000000000000000
0000000000000000
0000000000000000
0000000000000000
0000000000000000
0000000000000000
0000000000000000
0000000000000000
0000000000000000
0000000000000000
0000000000000000
0000000000000000
0000000000000000
ENDCHAR

STARTCHAR kor_A1C9
ENCODING 41417
SWIDTH 1024 0
DWIDTH 64 0
BBX 64 64 0 -6
BITMAP
0000000000000000
0000000000000000
0000000000000000
0000000000000000
0007C00000000000
001FF00000000000
003FF80000000000
007FFC0000000000
007C7C0000000000
00F83E007FE00000
00F01E03FFFC0000
00F01E07FFFF0000
00F01E1FFFFF8000
00F83E3FFFFFC000
007C7C7FE03FE000
007FFCFF800FF000
003FF8FF0007F800
001FF1FE0003F800
0007C3FC0001FC00
000003F80001FC00
000007F00000FC00
000007F00000FE00
000007E000007E00
00000FE000007E00
00000FC000007E00
00000FC000000000
00000FC000000000
00001FC000000000
00001F8000000000
00001F8000000000
00001F8000000000
00001F8000000000
00001F8000000000
00001F8000000000
00001F8000000000
00001FC000000000
00000FC000000000
00000FC000007E00
00000FC000007E00
00000FE00000FE00
000007E00000FE00
000007F00000FC00
000007F00001FC00
000003F80001FC00
000003FC0003F800
000001FE0007F800
000000FF000FF000
000000FF801FF000
0000007FE07FE000
0000003FFFFFC000
0000001FFFFF8000
00000007FFFF0000
00000003FFFC0000
000000007FE00000
0000000000000000
0000000000000000
0000000000000000
0000000000000000
0000000000000000
0000000000000000
0000000000000000
0000000000000000
0000000000000000
0000000000000000
ENDCHAR

STARTCHAR kor_A1CA
ENCODING 41418
SWIDTH 1024 0
DWIDTH 64 0
BBX 64 64 0 -6
BITMAP
00000007E0000000
0000001FF8000000
0000001FF8000000
0000003FFC000000
0000003E7C000000
0000003C3C000000
0000003C3C000000
0000003C3C000000
0000003E7C000000
0000003FFC000000
0000001FF8000000
0000001FF8000000
00000007E0000000
0000000000000000
00000007E0000000
00000007E0000000
0000000FF0000000
0000000FF0000000
0000001FF8000000
0000001FF8000000
0000003FFC000000
0000003FFC000000
0000007FFE000000
0000007FFE000000
000000FE7F000000
000000FE7F000000
000001FC3F800000
000001FC3F800000
000003F81FC00000
000003F81FC00000
000007F00FE00000
000007F00FE00000
00000FE007F00000
00000FE007F00000
00001FC003F80000
00001FFFFFF80000
00003FFFFFFC0000
00003FFFFFFC0000
00007FFFFFFE0000
00007FFFFFFE0000
0000FE00007F0000
0000FE00007F0000
0001FC00003F8000
0001FC00003F8000
0003F800001FC000
0003F800001FC000
0007F000000FE000
0007F000000FE000
000FE0000007F000
000FE0000007F000
000FC0000003F000
0000000000000000
0000000000000000
0000000000000000
0000000000000000
0000000000000000
0000000000000000
0000000000000000
0000000000000000
0000000000000000
0000000000000000
0000000000000000
0000000000000000
0000000000000000
ENDCHAR

STARTCHAR kor_A1CB
ENCODING 41419
SWIDTH 1024 0
DWIDTH 64 0
BBX 64 64 0 -6
BITMAP
0000000000000000
0000000000000000
0000000000000000
0000000000000000
0000000000000000
0000000007800000
0000000007800000
000000000F800000
000000000F000000
0000000FFF000000
0000007FFF800000
000000FFFFE00000
000003FFFFF00000
000007FFFFF80000
00000FFC3FFC0000
00001FF03DFE0000
00001FE03CFF0000
00003FC03C7F0000
00007F807C3F8000
00007F00783F8000
0000FE00781F8000
0000FE00F81FC000
0000FC00F00FC000
0001FC00F00FC000
0001F800F00FC000
0001F801F0000000
0001F801E0000000
0003F801E0000000
0003F003E0000000
0003F003C0000000
0003F003C0000000
0003F007C0000000
0003F00780000000
0003F00780000000
0003F00780000000
0003F80F80000000
0001F80F00000000
0001F80F000FC000
0001F81F000FC000
0001FC1E001FC000
0000FC1E001FC000
0000FE1E001F8000
0000FE3E003F8000
00007F3C003F8000
00007FBC007F0000
00003FFC00FF0000
00001FF801FE0000
00001FF803FE0000
00000FFC0FFC0000
000007FFFFF80000
000003FFFFF00000
000000FFFFE00000
000001FFFF800000
000001EFFC000000
000001E000000000
000001E000000000
000003E000000000
000003C000000000
000003C000000000
0000000000000000
0000000000000000
0000000000000000
0000000000000000
0000000000000000
ENDCHAR

STARTCHAR kor_A1CC
ENCODING 41420
SWIDTH 1024 0
DWIDTH 64 0
BBX 64 64 0 -6
BITMAP
0000000000000000
0000000000000000
0000000000000000
0000000000000000
0000000000000000
0000000000000000
0000000000000000
0000000000000000
0000000000000000
0000000000000000
00000001FF800000
0000000FFFF00000
0000001FFFF80000
0000003FFFFC0000
0000007FFFFE0000
0000007FC1FE0000
000000FF007F0000
000000FE007F0000
000000FC003F0000
000001FC003F0000
000001F8003F0000
000001F8003F0000
000001F8003F0000
000001F800000000
000001F800000000
000001FC00000000
000001FC00000000
000000FC00000000
000000FC00000000
000000FE00000000
000000FE00000000
0000007E00000000
0000FFFFFFFF0000
0000FFFFFFFF0000
0000FFFFFFFF0000
0000FFFFFFFF0000
0000003F00000000
0000003F00000000
0000003F00000000
00001FFF00000000
00007FFF00000000
0000FFFF001F8000
0000FFFF801F8000
0001FFFFC01F8000
0001FC3FE01F8000
0001F83FF01F8000
0001F83FFC3F8000
0001FC7FFFFF8000
0001FFFFFFFF0000
0000FFFEFFFF0000
0000FFFC7FFE0000
00007FF81FFC0000
00001FE007F00000
0000000000000000
0000000000000000
0000000000000000
0000000000000000
0000000000000000
0000000000000000
0000000000000000
0000000000000000
0000000000000000
0000000000000000
0000000000000000
ENDCHAR

STARTCHAR kor_A1CD
ENCODING 41421
SWIDTH 1024 0
DWIDTH 64 0
BBX 64 64 0 -6
BITMAP
0000000000000000
0000000000000000
0000000000000000
0000000000000000
0001FC00003F8000
0001FE00007F8000
0000FE00007F0000
0000FF0000FF0000
00007F0000FE0000
00007F8001FE0000
00003F8001FC0000
00003FC003FC0000
00001FC003F80000
00001FE007F80000
00000FE007F00000
00000FF00FF00000
000007F00FE00000
000007F81FE00000
000003F81FC00000
000003FC3FC00000
000001FC3F800000
000FFFFFFFFFFC00
000FFFFFFFFFFC00
000FFFFFFFFFFC00
000FFFFFFFFFFC00
000FFFFFFFFFFC00
0000003FFC000000
0000003FFC000000
0000001FF8000000
000FFFFFFFFFF800
000FFFFFFFFFF800
000FFFFFFFFFF800
000FFFFFFFFFF800
000FFFFFFFFFF800
00000007E0000000
00000007E0000000
00000007E0000000
00000007E0000000
00000007E0000000
00000007E0000000
00000007E0000000
00000007E0000000
00000007E0000000
00000007E0000000
00000007E0000000
00000007E0000000
00000007E0000000
00000007E0000000
00000007E0000000
00000007E0000000
00000007E0000000
0000000000000000
0000000000000000
0000000000000000
0000000000000000
0000000000000000
0000000000000000
0000000000000000
0000000000000000
0000000000000000
0000000000000000
0000000000000000
0000000000000000
0000000000000000
ENDCHAR

STARTCHAR kor_A1CE
ENCODING 41422
SWIDTH 1024 0
DWIDTH 64 0
BBX 64 64 0 -6
BITMAP
0000000000000000
0000000000000000
0000000180000000
00000003C0000000
00000007E0000000
00000007E0000000
0000000FF0000000
0000001FF8000000
0000003FFC000000
0000007FFE000000
0000007FFE000000
000000FFFF000000
000001FBDF800000
000003F3CFC00000
000007E3C7E00000
000007C3C3E00000
00000FC3C1F00000
00001F83C1F80000
00003F03C0FC0000
00007E03C07E0000
00007C03C03E0000
0000F803C01F0000
0001F803C01F8000
0001F003C00F8000
0000E003C0060000
00000003C0000000
00000003C0000000
00000003C0000000
00000003C0000000
00000003C0000000
00000003C0000000
00000003C0000000
00000003C0000000
00000003C0000000
0000003FE0000000
0000007FFC000000
000000FFFF000000
000001FFFF800000
000003F01FC00000
000007E007C00000
00000FC007E00000
00000FC003E00000
00000F8001F00000
00000F8000F00000
00000F0000F00000
00000F0000F00000
00000F0000F00000
00000F0000F00000
00000F0000F00000
00000F8001F00000
00000F8001F00000
000007C007E00000
000007E00FE00000
000003F80FC00000
000003FFFF800000
000001FFFF000000
000000FFFE000000
0000003FF8000000
0000000000000000
0000000000000000
0000000000000000
0000000000000000
0000000000000000
0000000000000000
ENDCHAR

STARTCHAR kor_A1CF
ENCODING 41423
SWIDTH 1024 0
DWIDTH 64 0
BBX 64 64 0 -6
BITMAP
0000000000000000
0000000000000000
0000001FFC000000
0000007FFF000000
000000FFFF800000
000001FFFFC00000
000003F00FC00000
000007F003E00000
000007E003E00000
00000FC001F00000
00000F8001F00000
00000F8000F00000
00000F8000F80000
00000F8000F80000
00000F8000F80000
00000F8000F80000
00000F8000F80000
00000F8001F80000
000007C001F00000
000007E003F00000
000003E007E00000
000003F80FC00000
000001FFFF800000
000000FFFF000000
0000007FFE000000
0000001FFC000000
00000003C0000000
00000003C0000000
00000003C0000000
00000003C0000000
00000003C0000000
00000003C0000000
00000003C0000000
000FFFFFFFFFF800
000FFFFFFFFFF800
000FFFFFFFFFF800
000FFFFFFFFFF800
00000003C0000000
00000003C0000000
00000003C0000000
00000003C0000000
00000003C0000000
00000003C0000000
00000003C0000000
00000003C0000000
00000003C0000000
00000003C0000000
00000003C0000000
00000003C0000000
00000003C0000000
00000003C0000000
00000003C0000000
00000003C0000000
00000003C0000000
00000003C0000000
00000003C0000000
00000003C0000000
00000003C0000000
00000003C0000000
0000000000000000
0000000000000000
0000000000000000
0000000000000000
0000000000000000
ENDCHAR

STARTCHAR kor_A1D0
ENCODING 41424
SWIDTH 1024 0
DWIDTH 64 0
BBX 64 64 0 -6
BITMAP
0000000000000000
0000000000000000
0000000000000000
0000000000000000
0000000000000000
0000000000000000
0000000000000000
0000000000000000
0000000000000000
0000000000000000
0000000000000000
0000000000000000
0000000000000000
0000000000000000
0000000000000000
0000000000000000
0000000000300000
0000000000780000
0000000000F80000
0000000000F00000
0000000001E00000
0000000003E00000
0000000007C00000
000000000F800000
000000001F000000
000000001E000000
000000003C000000
000000007C000000
00000000F8000000
00000001F0000000
00000003E0000000
00000003C0000000
0000000780000000
0000000F80000000
0000001F00000000
0000003E00000000
0000007C00000000
0000007800000000
000000F800000000
000001F000000000
000003E000000000
000007C000000000
00000F8000000000
00000F0000000000
00001F0000000000
00003E0000000000
00007C0000000000
0000F80000000000
0001F00000000000
0001E00000000000
0003E00000000000
0007FFFFFFFFF000
000FFFFFFFFFF000
000FFFFFFFFFF000
000FFFFFFFFFF000
0000000000000000
0000000000000000
0000000000000000
0000000000000000
0000000000000000
0000000000000000
0000000000000000
0000000000000000
0000000000000000
ENDCHAR

STARTCHAR kor_A1D1
ENCODING 41425
SWIDTH 1024 0
DWIDTH 64 0
BBX 64 64 0 -6
BITMAP
0000000000000000
0000000000000000
0000000000000000
0000000000000000
0000000000000000
0000000000000000
0000000000000000
0000000000000000
0000000000000000
0000000000000000
0000000000000000
0000000000000000
0000000000000000
0000000000000000
0000000000000000
0000000000000000
0000000000000000
00000003C0000000
00000003C0000000
00000003C0000000
00000003C0000000
00000003C0000000
00000003C0000000
00000003C0000000
00000003C0000000
00000003C0000000
00000003C0000000
00000003C0000000
00000003C0000000
00000003C0000000
00000003C0000000
00000003C0000000
00000003C0000000
00000003C0000000
00000003C0000000
00000003C0000000
00000003C0000000
00000003C0000000
00000003C0000000
00000003C0000000
00000003C0000000
00000003C0000000
00000003C0000000
00000003C0000000
00000003C0000000
00000003C0000000
00000003C0000000
00000003C0000000
00000003C0000000
00000003C0000000
00000003C0000000
001FFFFFFFFFF800
001FFFFFFFFFF800
001FFFFFFFFFF800
001FFFFFFFFFF800
0000000000000000
0000000000000000
0000000000000000
0000000000000000
0000000000000000
0000000000000000
0000000000000000
0000000000000000
0000000000000000
ENDCHAR

STARTCHAR kor_A1D2
ENCODING 41426
SWIDTH 1024 0
DWIDTH 64 0
BBX 64 64 0 -6
BITMAP
0000000000000000
0000000000000000
0000000000000000
0000000000000000
0000001FF8000000
0000007FFE000000
000000FFFF000000
000001FFFF800000
000003F81FC00000
000007E007E00000
000007C003E00000
00000FC003F00000
00000F8001F00000
00000F8001F00000
0000000000000000
0000000000000000
0000000000000000
0000000000000000
0000000000000000
0000000000000000
0000000000000000
0000000000000000
0000000000000000
0000000000000000
0000000000000000
0000000000000000
0000000000000000
0000000000000000
0000000000000000
0000000000000000
0000000000000000
0000000000000000
0000000000000000
0000000000000000
0000000000000000
0000000000000000
0000000000000000
0000000000000000
0000000000000000
0000000000000000
0000000000000000
0000000000000000
0000000000000000
0000000000000000
0000000000000000
0000000000000000
0000000000000000
0000000000000000
0000000000000000
0000000000000000
0000000000000000
0000000000000000
0000000000000000
0000000000000000
0000000000000000
0000000000000000
0000000000000000
0000000000000000
0000000000000000
0000000000000000
0000000000000000
0000000000000000
0000000000000000
0000000000000000
ENDCHAR

STARTCHAR kor_A1D3
ENCODING 41427
SWIDTH 1024 0
DWIDTH 64 0
BBX 64 64 0 -6
BITMAP
0000000000000000
0000000000000000
0000000000000000
0000000000000000
0000000000000000
00000007FE000000
0000001FFF800000
0000003FFFC00000
0000007FFFE00000
000000FFFFF00000
000001FF0FF80000
000001FC03F80000
000003F801FC0000
000003F001FC0000
000003F000FC0000
000003E000FC0000
000003E000FC0000
0000000000FC0000
0000000000FC0000
0000000000FC0000
0000000000FC0000
0000000000FC0000
0000000000FC0000
0000000000FC0000
0000001FF8FC0000
0000007FFEFC0000
000000FFFFFC0000
000001FFFFFC0000
000003FFFFFC0000
000007FC3FF80000
00000FF00FF80000
00000FE007F80000
00001FC007F80000
00001FC003F00000
00003F8003F00000
00003F8003F00000
00003F0007F00000
00007F0007E00000
00007F0007E00000
00007E000FE00000
00007E000FC00000
00007E001FC00000
00007E003F800000
00007E003F800000
00007F007F000000
00007F00FE000000
00007F81FE000000
00003FE7FC000000
00003FFFF8000000
00001FFFF0000000
00000FFFE0000000
000007FFC0000000
000001FF00000000
0000000000000000
0000000000000000
0000000000000000
0000000000000000
0000000000000000
0000000000000000
0000000000000000
0000000000000000
0000000000000000
0000000000000000
0000000000000000
ENDCHAR

STARTCHAR kor_A1D4
ENCODING 41428
SWIDTH 1024 0
DWIDTH 64 0
BBX 64 64 0 -6
BITMAP
0000000000000000
0000000000000000
0000000000000000
0000000000000000
0000000000000000
0000000000000000
0000000000000000
0000000000000000
0000000000000000
0000000000000000
0000000000000000
01FFFFFFFFFFFFC0
01FFFFFFFFFFFFC0
00FFFFFFFFFFFF80
00FFFFFFFFFFFF80
0078000000000F00
003C000000001E00
003E000000003E00
001E000000003C00
000F000000007C00
000F800000007800
000780000000F000
0003C0000001F000
0003E0000001E000
0001E0000003C000
0000F0000007C000
0000F80000078000
00007800000F8000
00003C00001F0000
00003E00001E0000
00001E00003E0000
00001F00003C0000
00000F8000780000
0000078000F80000
000007C000F00000
000003E001E00000
000001E003E00000
000001F003C00000
000000F807C00000
000000780F800000
0000007C0F000000
0000003E1F000000
0000001E1E000000
0000001F3C000000
0000000FFC000000
00000007F8000000
00000007F8000000
00000003F0000000
00000001E0000000
00000001E0000000
00000000C0000000
0000000000000000
0000000000000000
0000000000000000
0000000000000000
0000000000000000
0000000000000000
0000000000000000
0000000000000000
0000000000000000
0000000000000000
0000000000000000
0000000000000000
0000000000000000
ENDCHAR

STARTCHAR kor_A1D5
ENCODING 41429
SWIDTH 1024 0
DWIDTH 64 0
BBX 64 64 0 -6
BITMAP
0000000000000000
0000000000000000
0000000000000000
0000000000000000
0000000000000000
0000000000000000
0000000000000000
0000000000000000
0000000000000000
0000000000000000
0000000000000000
0000000000000000
0000000000000000
0000000000000000
0000000000000000
0000000000000000
0000000000000000
0000000000000000
0000000000000000
003FFFFFFFFFFE00
003FFFFFFFFFFE00
003FFFFFFFFFFE00
003FFFFFFFFFFE00
0000000000000000
0000000000000000
0000000000000000
0000000000000000
0000000000000000
0000000000000000
003FFFFFFFFFFE00
003FFFFFFFFFFE00
003FFFFFFFFFFE00
003FFFFFFFFFFE00
0000000000000000
0000000000000000
0000000000000000
0000000000000000
0000000000000000
0000000000000000
003FFFFFFFFFFE00
003FFFFFFFFFFE00
003FFFFFFFFFFE00
003FFFFFFFFFFE00
0000000000000000
0000000000000000
0000000000000000
0000000000000000
0000000000000000
0000000000000000
0000000000000000
0000000000000000
0000000000000000
0000000000000000
0000000000000000
0000000000000000
0000000000000000
0000000000000000
0000000000000000
0000000000000000
0000000000000000
0000000000000000
0000000000000000
0000000000000000
0000000000000000
ENDCHAR

STARTCHAR kor_A1D6
ENCODING 41430
SWIDTH 1024 0
DWIDTH 64 0
BBX 64 64 0 -6
BITMAP
0000000000000000
0000000000000000
0000000000000000
0000000000000000
0000000000000000
0000000000000000
0000000000000000
0000000000000000
0000000000000000
0000000000000000
0000000000000000
0000000000000000
00003C0000000000
0000FF0000000000
0001FF8000000000
0001FF8000000000
0001FF8000000000
0001FF8000000000
0001FF8000000000
0001FF8000000000
00007E0000000000
0000000000000000
0000000000000000
0000000000000000
003FFFFFFFFFFE00
003FFFFFFFFFFE00
003FFFFFFFFFFE00
003FFFFFFFFFFE00
0000000000000000
0000000000000000
0000000000000000
0000000000000000
0000000000000000
0000000000000000
0000000000000000
003FFFFFFFFFFE00
003FFFFFFFFFFE00
003FFFFFFFFFFE00
003FFFFFFFFFFE00
0000000000000000
0000000000000000
0000000000000000
00000000003E0000
00000000007F8000
0000000000FF8000
0000000000FFC000
0000000000FFC000
0000000000FFC000
0000000000FFC000
0000000000FF8000
00000000003F0000
0000000000000000
0000000000000000
0000000000000000
0000000000000000
0000000000000000
0000000000000000
0000000000000000
0000000000000000
0000000000000000
0000000000000000
0000000000000000
0000000000000000
0000000000000000
ENDCHAR

STARTCHAR kor_A1D7
ENCODING 41431
SWIDTH 1024 0
DWIDTH 64 0
BBX 64 64 0 -6
BITMAP
0000001FFE000000
0000007FFF800000
000000FFFFC00000
000001FFFFE00000
000003FFFFF00000
000003FE3FF00000
000007F80FF80000
000007F007F80000
000007F007F80000
000007F803F80000
000007F803F80000
000007FC03F80000
000007FE03F80000
000003FF00000000
000003FF80000000
000001FFC0000000
000001FFE0000000
000000FFF0000000
0000007FF8000000
0000003FFC000000
0000001FFE000000
000000FFFF000000
000003FFFF800000
000007FFFFC00000
00000FFFFFE00000
00001FFFFFF00000
00001FF07FF80000
00003FC03FF80000
00003F801FFC0000
00003FC00FFC0000
00003FC007FE0000
00003FE003FE0000
00001FF001FE0000
00001FF801FE0000
00000FFC00FE0000
00000FFE01FE0000
000007FF07FE0000
000003FFFFFC0000
000001FFFFFC0000
000000FFFFF80000
0000007FFFF00000
0000003FFFC00000
0000001FFC000000
0000000FFE000000
00000007FF000000
00000003FF800000
00000001FFC00000
00000000FFE00000
000000007FE00000
000000003FF00000
00001FC01FF00000
00001FC00FF80000
00001FC007F80000
00001FE007F80000
00001FE003F80000
00001FF007F80000
00000FFC1FF80000
00000FFFFFF00000
000007FFFFF00000
000003FFFFE00000
000001FFFFC00000
000000FFFF800000
0000003FFE000000
0000000000000000
ENDCHAR

STARTCHAR kor_A1D8
ENCODING 41432
SWIDTH 1024 0
DWIDTH 64 0
BBX 64 64 0 -6
BITMAP
0000000000000000
0000000000000000
0000000000000000
0000000000000000
0000000000000000
0000000000000000
0000000000000000
0000000000000000
0000000000000000
0000000000006000
001C00000000F000
003E0007E001F800
003F000FF003F800
001F803FF807F000
000FC03FF80FE000
0007E03FFC1FC000
0003F03FFC3F8000
0001F83FFC7F0000
0000FC3FFCFE0000
00007F3FF8FC0000
00003F9FF1F80000
00001FCFF3F00000
00000FE7C7E00000
000007F00FC00000
000003F81F800000
0001F9FC3F1F8000
0007FEFE7E7FC000
0007FF7FFCFFE000
000FFF3FF8FFE000
000FFF1FF0FFF000
000FFF0FE0FFF000
000FFF0FE0FFF000
000FFF1FF0FFF000
0007FF3FF8FFE000
0007FE7E7C7FC000
0003FCFC3F3FC000
0001F9F81F9F0000
000003F00FC00000
000007E007E00000
00000FCFF3F00000
00000F9FF1F80000
00001F3FF8FC0000
00003E3FF87E0000
00007C3FFC3F0000
0000F83FFC1FC000
0001F03FFC0FE000
0003E03FFC07F000
0007C03FF803F800
000F801FF001FC00
001F000FF000FC00
001E0007C0007800
000C000000003000
0000000000000000
0000000000000000
0000000000000000
0000000000000000
0000000000000000
0000000000000000
0000000000000000
0000000000000000
0000000000000000
0000000000000000
0000000000000000
0000000000000000
ENDCHAR

STARTCHAR kor_A1D9
ENCODING 41433
SWIDTH 1024 0
DWIDTH 64 0
BBX 64 64 0 -6
BITMAP
0000000000000000
0000000000000000
0000000000000000
0000000000000000
0000000000000000
0000000000000000
0000000000000000
00000001C0000000
00000001C0000000
00000003E0000000
00000003E0000000
00000003E0000000
00000007F0000000
00000007F0000000
00000007F0000000
0000000F78000000
0000000F78000000
0000000F78000000
0000001E3C000000
0000001E3C000000
0000001E3C000000
0000003C1E000000
0000003C1E000000
0000003C1E000000
01FFFFF80FFFFFC0
01FFFFF80FFFFFC0
00FFFFF80FFFFF80
003E000000003E00
001F000000007C00
000FC0000001F800
0007E0000003F000
0001F0000007C000
0000F800000F8000
00007E00003F0000
00003F00007E0000
00000F8000F80000
000007C001F00000
000003C001E00000
000007C001F00000
0000078000F00000
0000078000F00000
00000F01C0780000
00000F03E0780000
00000F0FF8780000
00001E1FFC3C0000
00001E3F7E3C0000
00001C7C1F1C0000
00003DF80FDE0000
00003FF007FE0000
00003FC001FE0000
00007F8000FF0000
00007F00007F0000
00007E00003F0000
0000F800000F8000
0000F00000078000
0000E00000038000
0000000000000000
0000000000000000
0000000000000000
0000000000000000
0000000000000000
0000000000000000
0000000000000000
0000000000000000
ENDCHAR

STARTCHAR kor_A1DA
ENCODING 41434
SWIDTH 1024 0
DWIDTH 64 0
BBX 64 64 0 -6
BITMAP
0000000000000000
0000000000000000
0000000000000000
0000000000000000
0000000000000000
0000000000000000
0000000000000000
00000001C0000000
00000001C0000000
00000003E0000000
00000003E0000000
00000003E0000000
00000007F0000000
00000007F0000000
00000007F0000000
0000000FF8000000
0000000FF8000000
0000000FF8000000
0000001FFC000000
0000001FFC000000
0000001FFC000000
0000003FFE000000
0000003FFE000000
0000003FFE000000
01FFFFFFFFFFFFC0
01FFFFFFFFFFFFC0
00FFFFFFFFFFFF80
003FFFFFFFFFFE00
001FFFFFFFFFFC00
000FFFFFFFFFF800
0007FFFFFFFFF000
0001FFFFFFFFC000
0000FFFFFFFF8000
00007FFFFFFF0000
00003FFFFFFE0000
00000FFFFFF80000
000007FFFFF00000
000003FFFFE00000
000007FFFFF00000
000007FFFFF00000
000007FFFFF00000
00000FFFFFF80000
00000FFFFFF80000
00000FFFFFF80000
00001FFFFFFC0000
00001FFF7FFC0000
00001FFC1FFC0000
00003FF80FFE0000
00003FF007FE0000
00003FC001FE0000
00007F8000FF0000
00007F00007F0000
00007E00003F0000
0000F800000F8000
0000F00000078000
0000E00000038000
0000000000000000
0000000000000000
0000000000000000
0000000000000000
0000000000000000
0000000000000000
0000000000000000
0000000000000000
ENDCHAR

STARTCHAR kor_A1DB
ENCODING 41435
SWIDTH 1024 0
DWIDTH 64 0
BBX 64 64 0 -6
BITMAP
0000000000000000
0000000000000000
000000FFFE000000
000007FFFFE00000
00003FFFFFFC0000
0000FFE001FF0000
0001FF00007F8000
0007FC00001FE000
000FE0000007F000
001F80000001F800
001E000000007C00
003C000000003E00
00FC000000001F00
01F8000000000F80
01F00000000007C0
03E00000000003C0
03C00000000003E0
03C00000000001E0
07800000000001F0
07800000000000F0
0F000000000000F0
0F00000000000070
1F00000000000078
1E00000000000038
1E00000000000038
1E0000000000003C
1C0000000000003C
1C0000000000003C
1C0000000000003C
1C0000000000003C
1C0000000000003C
1C0000000000003C
1C0000000000003C
1C0000000000003C
1C0000000000003C
1C0000000000003C
1E0000000000003C
1E00000000000038
1E00000000000038
1F00000000000078
1F00000000000070
0F000000000000F0
0F800000000000F0
07800000000001F0
07C00000000001E0
03C00000000003E0
03E00000000003C0
01F00000000007C0
01F0000000000780
00F8000000000F00
007C000000003F00
003E000000007E00
001F80000001FC00
000FC0000003F000
0007F000000FE000
0001FC00003FC000
00007FC003FF8000
00001FFFFFFE0000
00000FFFFFF80000
000003FFFFE00000
0000000000000000
0000000000000000
0000000000000000
0000000000000000
ENDCHAR

STARTCHAR kor_A1DC
ENCODING 41436
SWIDTH 1024 0
DWIDTH 64 0
BBX 64 64 0 -6
BITMAP
0000000000000000
0000000000000000
000000FFFE000000
000007FFFFE00000
00003FFFFFFC0000
0000FFFFFFFF0000
0001FFFFFFFF8000
0007FFFFFFFFE000
000FFFFFFFFFF000
001FFFFFFFFFF800
001FFFFFFFFFFC00
003FFFFFFFFFFE00
00FFFFFFFFFFFF00
01FFFFFFFFFFFF80
01FFFFFFFFFFFFC0
03FFFFFFFFFFFFC0
03FFFFFFFFFFFFE0
03FFFFFFFFFFFFE0
07FFFFFFFFFFFFF0
07FFFFFFFFFFFFF0
0FFFFFFFFFFFFFF0
0FFFFFFFFFFFFFF0
1FFFFFFFFFFFFFF8
1FFFFFFFFFFFFFF8
1FFFFFFFFFFFFFF8
1FFFFFFFFFFFFFFC
1FFFFFFFFFFFFFFC
1FFFFFFFFFFFFFFC
1FFFFFFFFFFFFFFC
1FFFFFFFFFFFFFFC
1FFFFFFFFFFFFFFC
1FFFFFFFFFFFFFFC
1FFFFFFFFFFFFFFC
1FFFFFFFFFFFFFFC
1FFFFFFFFFFFFFFC
1FFFFFFFFFFFFFFC
1FFFFFFFFFFFFFFC
1FFFFFFFFFFFFFF8
1FFFFFFFFFFFFFF8
1FFFFFFFFFFFFFF8
1FFFFFFFFFFFFFF0
0FFFFFFFFFFFFFF0
0FFFFFFFFFFFFFF0
07FFFFFFFFFFFFF0
07FFFFFFFFFFFFE0
03FFFFFFFFFFFFE0
03FFFFFFFFFFFFC0
01FFFFFFFFFFFFC0
01FFFFFFFFFFFF80
00FFFFFFFFFFFF00
007FFFFFFFFFFF00
003FFFFFFFFFFE00
001FFFFFFFFFFC00
000FFFFFFFFFF000
0007FFFFFFFFE000
0001FFFFFFFF8000
00007FFFFFFF0000
00001FFFFFFC0000
00000FFFFFF80000
000003FFFFE00000
0000000000000000
0000000000000000
0000000000000000
0000000000000000
ENDCHAR

STARTCHAR kor_A1DD
ENCODING 41437
SWIDTH 1024 0
DWIDTH 64 0
BBX 64 64 0 -6
BITMAP
0000000000000000
0000000000000000
000000FFFE000000
000007FFFFE00000
00003FFFFFFC0000
0000FFE001FF0000
0001FF00007F8000
0007FC00001FE000
000FE0000007F000
001F80000001F800
001E000000007C00
003C000000003E00
00FC007FFE001F00
01F803FFFFC00F80
01F007FFFFF007C0
03E00FF80FF803C0
03C01FE001FC03E0
03C03F80007E01E0
07807E00001F01F0
0780F800001F80F0
0F00F800000FC0F0
0F01F0000007C070
1F01E0000007E078
1E03E0000003E038
1E03C0000003E038
1E03C0000001E03C
1C0380000001E03C
1C0780000000F03C
1C0780000000F03C
1C0780000000F03C
1C0780000000F03C
1C0780000000F03C
1C0780000000F03C
1C0780000000F03C
1C0780000000E03C
1C03C0000000E03C
1E03C0000001E03C
1E03E0000001E038
1E03E0000003E038
1F03F0000003C078
1F01F0000007C070
0F01F800000F80F0
0F80FC00000F80F0
07803C00003F01F0
07C03F0000FC01E0
03C01FC003FC03E0
03E00FFFFFF803C0
01F007FFFFF007C0
01F001FFFFC00780
00F8007FFF000F00
007C000000003F00
003E000000007E00
001F80000001FC00
000FC0000003F000
0007F000000FE000
0001FC00003FC000
00007FC003FF8000
00001FFFFFFE0000
00000FFFFFF80000
000003FFFFE00000
0000000000000000
0000000000000000
0000000000000000
0000000000000000
ENDCHAR

STARTCHAR kor_A1DE
ENCODING 41438
SWIDTH 1024 0
DWIDTH 64 0
BBX 64 64 0 -6
BITMAP
0000000000000000
0000000180000000
00000003C0000000
00000007E0000000
0000000FF0000000
0000001FF8000000
0000003FFC000000
0000007E7E000000
000000FC3F000000
000001F81F800000
000003F00FC00000
000007E007E00000
00000FC003F00000
00001F8001F80000
00003F0000FC0000
00007E00007E0000
0000FC00003E0000
0001F800001F0000
0003F000000F8000
0007E0000007C000
000FC0000003E000
001F80000001F000
003F00000000F800
007E000000007C00
00FC000000003E00
01F8000000001F00
03F0000000000F80
07E00000000007C0
0FC00000000003E0
1F800000000001F0
3F000000000000F8
3F000000000000F8
1F800000000001F0
0FC00000000003E0
07E00000000007C0
03F0000000000F80
01F8000000001F00
00FC000000003E00
007E000000007C00
003F00000000F800
001F80000001F000
000FC0000003E000
0007E000000FC000
0003F800001F8000
0001FC00003F0000
0000FE00007E0000
00003F0000FC0000
00001F8001F80000
00000FC003F00000
000007E007E00000
000003F00FC00000
000001F81F800000
000000FC3F000000
0000007E7E000000
0000003FFC000000
0000001FF8000000
0000000FF0000000
00000007E0000000
00000003C0000000
0000000180000000
0000000000000000
0000000000000000
0000000000000000
0000000000000000
ENDCHAR

STARTCHAR kor_A1DF
ENCODING 41439
SWIDTH 1024 0
DWIDTH 64 0
BBX 64 64 0 -6
BITMAP
0000000000000000
0000000180000000
00000003C0000000
00000007E0000000
0000000FF0000000
0000001FF8000000
0000003FFC000000
0000007FFE000000
000000FFFF000000
000001FFFF800000
000003FFFFC00000
000007FFFFE00000
00000FFFFFF00000
00001FFFFFF80000
00003FFFFFFC0000
00007FFFFFFE0000
0000FFFFFFFE0000
0001FFFFFFFF0000
0003FFFFFFFF8000
0007FFFFFFFFC000
000FFFFFFFFFE000
001FFFFFFFFFF000
003FFFFFFFFFF800
007FFFFFFFFFFC00
00FFFFFFFFFFFE00
01FFFFFFFFFFFF00
03FFFFFFFFFFFF80
07FFFFFFFFFFFFC0
0FFFFFFFFFFFFFE0
1FFFFFFFFFFFFFF0
3FFFFFFFFFFFFFF8
3FFFFFFFFFFFFFF8
1FFFFFFFFFFFFFF0
0FFFFFFFFFFFFFE0
07FFFFFFFFFFFFC0
03FFFFFFFFFFFF80
01FFFFFFFFFFFF00
00FFFFFFFFFFFE00
007FFFFFFFFFFC00
003FFFFFFFFFF800
001FFFFFFFFFF000
000FFFFFFFFFE000
0007FFFFFFFFC000
0003FFFFFFFF8000
0001FFFFFFFF0000
0000FFFFFFFE0000
00003FFFFFFC0000
00001FFFFFF80000
00000FFFFFF00000
000007FFFFE00000
000003FFFFC00000
000001FFFF800000
000000FFFF000000
0000007FFE000000
0000003FFC000000
0000001FF8000000
0000000FF0000000
00000007E0000000
00000003C0000000
0000000180000000
0000000000000000
0000000000000000
0000000000000000
0000000000000000
ENDCHAR

STARTCHAR kor_A1E0
ENCODING 41440
SWIDTH 1024 0
DWIDTH 64 0
BBX 64 64 0 -6
BITMAP
0000000000000000
0000000000000000
1FFFFFFFFFFFFFF8
1FFFFFFFFFFFFFF8
1FFFFFFFFFFFFFF8
1FFFFFFFFFFFFFF8
1E00000000000078
1E00000000000078
1E00000000000078
1E00000000000078
1E00000000000078
1E00000000000078
1E00000000000078
1E00000000000078
1E00000000000078
1E00000000000078
1E00000000000078
1E00000000000078
1E00000000000078
1E00000000000078
1E00000000000078
1E00000000000078
1E00000000000078
1E00000000000078
1E00000000000078
1E00000000000078
1E00000000000078
1E00000000000078
1E00000000000078
1E00000000000078
1E00000000000078
1E00000000000078
1E00000000000078
1E00000000000078
1E00000000000078
1E00000000000078
1E00000000000078
1E00000000000078
1E00000000000078
1E00000000000078
1E00000000000078
1E00000000000078
1E00000000000078
1E00000000000078
1E00000000000078
1E00000000000078
1E00000000000078
1E00000000000078
1E00000000000078
1E00000000000078
1E00000000000078
1E00000000000078
1E00000000000078
1E00000000000078
1E00000000000078
1E00000000000078
1FFFFFFFFFFFFFF8
1FFFFFFFFFFFFFF8
1FFFFFFFFFFFFFF8
1FFFFFFFFFFFFFF8
0000000000000000
0000000000000000
0000000000000000
0000000000000000
ENDCHAR

STARTCHAR kor_A1E1
ENCODING 41441
SWIDTH 1024 0
DWIDTH 64 0
BBX 64 64 0 -6
BITMAP
0000000000000000
0000000000000000
1FFFFFFFFFFFFFF8
1FFFFFFFFFFFFFF8
1FFFFFFFFFFFFFF8
1FFFFFFFFFFFFFF8
1FFFFFFFFFFFFFF8
1FFFFFFFFFFFFFF8
1FFFFFFFFFFFFFF8
1FFFFFFFFFFFFFF8
1FFFFFFFFFFFFFF8
1FFFFFFFFFFFFFF8
1FFFFFFFFFFFFFF8
1FFFFFFFFFFFFFF8
1FFFFFFFFFFFFFF8
1FFFFFFFFFFFFFF8
1FFFFFFFFFFFFFF8
1FFFFFFFFFFFFFF8
1FFFFFFFFFFFFFF8
1FFFFFFFFFFFFFF8
1FFFFFFFFFFFFFF8
1FFFFFFFFFFFFFF8
1FFFFFFFFFFFFFF8
1FFFFFFFFFFFFFF8
1FFFFFFFFFFFFFF8
1FFFFFFFFFFFFFF8
1FFFFFFFFFFFFFF8
1FFFFFFFFFFFFFF8
1FFFFFFFFFFFFFF8
1FFFFFFFFFFFFFF8
1FFFFFFFFFFFFFF8
1FFFFFFFFFFFFFF8
1FFFFFFFFFFFFFF8
1FFFFFFFFFFFFFF8
1FFFFFFFFFFFFFF8
1FFFFFFFFFFFFFF8
1FFFFFFFFFFFFFF8
1FFFFFFFFFFFFFF8
1FFFFFFFFFFFFFF8
1FFFFFFFFFFFFFF8
1FFFFFFFFFFFFFF8
1FFFFFFFFFFFFFF8
1FFFFFFFFFFFFFF8
1FFFFFFFFFFFFFF8
1FFFFFFFFFFFFFF8
1FFFFFFFFFFFFFF8
1FFFFFFFFFFFFFF8
1FFFFFFFFFFFFFF8
1FFFFFFFFFFFFFF8
1FFFFFFFFFFFFFF8
1FFFFFFFFFFFFFF8
1FFFFFFFFFFFFFF8
1FFFFFFFFFFFFFF8
1FFFFFFFFFFFFFF8
1FFFFFFFFFFFFFF8
1FFFFFFFFFFFFFF8
1FFFFFFFFFFFFFF8
1FFFFFFFFFFFFFF8
1FFFFFFFFFFFFFF8
1FFFFFFFFFFFFFF8
0000000000000000
0000000000000000
0000000000000000
0000000000000000
ENDCHAR

STARTCHAR kor_A1E2
ENCODING 41442
SWIDTH 1024 0
DWIDTH 64 0
BBX 64 64 0 -6
BITMAP
0000000000000000
0000000000000000
0000000000000000
0000000000000000
0000000000000000
0000000000000000
0000000000000000
0000000000000000
0000000000000000
0000000000000000
0000000000000000
0000000180000000
00000003C0000000
00000003C0000000
00000007E0000000
0000000FF0000000
0000000FF0000000
0000001FF8000000
0000003E7C000000
0000003C7C000000
0000007C3E000000
000000F81F000000
000000F01F000000
000001F00F800000
000003E007C00000
000003E007C00000
000007C003E00000
00000F8003F00000
00000F8001F00000
00001F0000F80000
00001E0000FC0000
00003E00007C0000
00007C00007E0000
00007800003E0000
0000F800001F0000
0001F000001F8000
0001E000000F8000
0003E0000007C000
0007C0000007E000
000780000003E000
000F80000003F000
001F00000001F800
001F00000000F800
003E00000000FC00
007C000000007E00
007C000000003E00
00F8000000003F00
01F0000000001F80
01FFFFFFFFFFFF80
03FFFFFFFFFFFFC0
03FFFFFFFFFFFFC0
0000000000000000
0000000000000000
0000000000000000
0000000000000000
0000000000000000
0000000000000000
0000000000000000
0000000000000000
0000000000000000
0000000000000000
0000000000000000
0000000000000000
0000000000000000
ENDCHAR

STARTCHAR kor_A1E3
ENCODING 41443
SWIDTH 1024 0
DWIDTH 64 0
BBX 64 64 0 -6
BITMAP
0000000000000000
0000000000000000
0000000000000000
0000000000000000
0000000000000000
0000000000000000
0000000000000000
0000000000000000
0000000000000000
0000000000000000
0000000000000000
0000000180000000
00000003C0000000
00000003C0000000
00000007E0000000
0000000FF0000000
0000000FF0000000
0000001FF8000000
0000003FFC000000
0000003FFC000000
0000007FFE000000
000000FFFF000000
000000FFFF000000
000001FFFF800000
000003FFFFC00000
000003FFFFC00000
000007FFFFE00000
00000FFFFFF00000
00000FFFFFF00000
00001FFFFFF80000
00001FFFFFFC0000
00003FFFFFFC0000
00007FFFFFFE0000
00007FFFFFFE0000
0000FFFFFFFF0000
0001FFFFFFFF8000
0001FFFFFFFF8000
0003FFFFFFFFC000
0007FFFFFFFFE000
0007FFFFFFFFE000
000FFFFFFFFFF000
001FFFFFFFFFF800
001FFFFFFFFFF800
003FFFFFFFFFFC00
007FFFFFFFFFFE00
007FFFFFFFFFFE00
00FFFFFFFFFFFF00
01FFFFFFFFFFFF80
01FFFFFFFFFFFF80
03FFFFFFFFFFFFC0
03FFFFFFFFFFFFC0
0000000000000000
0000000000000000
0000000000000000
0000000000000000
0000000000000000
0000000000000000
0000000000000000
0000000000000000
0000000000000000
0000000000000000
0000000000000000
0000000000000000
0000000000000000
ENDCHAR

STARTCHAR kor_A1E4
ENCODING 41444
SWIDTH 1024 0
DWIDTH 64 0
BBX 64 64 0 -6
BITMAP
0000000000000000
0000000000000000
0000000000000000
0000000000000000
0000000000000000
0000000000000000
0000000000000000
0000000000000000
0000000000000000
0000000000000000
0000000000000000
01FFFFFFFFFFFFC0
01FFFFFFFFFFFFC0
00FFFFFFFFFFFF80
00FFFFFFFFFFFF80
007C000000000F00
003E000000001F00
003F000000003E00
001F000000003C00
001F800000007C00
000F800000007800
0007C0000000F000
0007E0000001F000
0003E0000001E000
0001F0000003E000
0001F8000007C000
0000F80000078000
00007C00000F8000
00007E00001F0000
00003E00001F0000
00001F00003E0000
00001F00003C0000
00000F80007C0000
00000FC000F80000
000007C000F00000
000003E001F00000
000003F003E00000
000001F003E00000
000000F807C00000
000000FC0F800000
0000007C0F800000
0000003E1F000000
0000003E1F000000
0000001F3E000000
0000000FFC000000
0000000FFC000000
00000007F8000000
00000007F0000000
00000003F0000000
00000001E0000000
00000001E0000000
00000000C0000000
0000000000000000
0000000000000000
0000000000000000
0000000000000000
0000000000000000
0000000000000000
0000000000000000
0000000000000000
0000000000000000
0000000000000000
0000000000000000
0000000000000000
ENDCHAR

STARTCHAR kor_A1E5
ENCODING 41445
SWIDTH 1024 0
DWIDTH 64 0
BBX 64 64 0 -6
BITMAP
0000000000000000
0000000000000000
0000000000000000
0000000000000000
0000000000000000
0000000000000000
0000000000000000
0000000000000000
0000000000000000
0000000000000000
0000000000000000
01FFFFFFFFFFFFC0
01FFFFFFFFFFFFC0
00FFFFFFFFFFFF80
00FFFFFFFFFFFF80
007FFFFFFFFFFF00
003FFFFFFFFFFF00
003FFFFFFFFFFE00
001FFFFFFFFFFC00
001FFFFFFFFFFC00
000FFFFFFFFFF800
0007FFFFFFFFF000
0007FFFFFFFFF000
0003FFFFFFFFE000
0001FFFFFFFFE000
0001FFFFFFFFC000
0000FFFFFFFF8000
00007FFFFFFF8000
00007FFFFFFF0000
00003FFFFFFF0000
00001FFFFFFE0000
00001FFFFFFC0000
00000FFFFFFC0000
00000FFFFFF80000
000007FFFFF00000
000003FFFFF00000
000003FFFFE00000
000001FFFFE00000
000000FFFFC00000
000000FFFF800000
0000007FFF800000
0000003FFF000000
0000003FFF000000
0000001FFE000000
0000000FFC000000
0000000FFC000000
00000007F8000000
00000007F0000000
00000003F0000000
00000001E0000000
00000001E0000000
00000000C0000000
0000000000000000
0000000000000000
0000000000000000
0000000000000000
0000000000000000
0000000000000000
0000000000000000
0000000000000000
0000000000000000
0000000000000000
0000000000000000
0000000000000000
ENDCHAR

STARTCHAR kor_A1E6
ENCODING 41446
SWIDTH 1024 0
DWIDTH 64 0
BBX 64 64 0 -6
BITMAP
0000000000000000
0000000000000000
0000000000000000
0000000000000000
0000000000000000
0000000000000000
0000000000000000
0000000000000000
0000000000000000
0000000000000000
0000000000000000
0000000000000000
0000000000000000
0000000000000000
0000000000000000
0000000000000000
0000000000000000
0000000000000000
0000000000300000
00000000003C0000
00000000003E0000
00000000001F0000
00000000000FC000
00000000000FE000
000000000007F800
000000000003FC00
000000000001FF00
000000000000FF80
000000000000FFC0
1FFFFFFFFFFFFFF0
1FFFFFFFFFFFFFF8
1FFFFFFFFFFFFFF8
1FFFFFFFFFFFFFF0
000000000000FFC0
000000000001FF80
000000000003FE00
000000000003FC00
000000000007F800
00000000000FE000
00000000001FC000
00000000003F0000
00000000003E0000
0000000000180000
0000000000000000
0000000000000000
0000000000000000
0000000000000000
0000000000000000
0000000000000000
0000000000000000
0000000000000000
0000000000000000
0000000000000000
0000000000000000
0000000000000000
0000000000000000
0000000000000000
0000000000000000
0000000000000000
0000000000000000
0000000000000000
0000000000000000
0000000000000000
0000000000000000
ENDCHAR

STARTCHAR kor_A1E7
ENCODING 41447
SWIDTH 1024 0
DWIDTH 64 0
BBX 64 64 0 -6
BITMAP
0000000000000000
0000000000000000
0000000000000000
0000000000000000
0000000000000000
0000000000000000
0000000000000000
0000000000000000
0000000000000000
0000000000000000
0000000000000000
0000000000000000
0000000000000000
0000000000000000
0000000000000000
0000000000000000
0000000000000000
0000000000000000
00000C0000000000
00003C0000000000
00007C0000000000
0000F80000000000
0003F00000000000
0007F00000000000
001FE00000000000
003FC00000000000
00FF800000000000
01FF000000000000
03FF000000000000
0FFFFFFFFFFFFFF8
1FFFFFFFFFFFFFF8
1FFFFFFFFFFFFFF8
0FFFFFFFFFFFFFF8
03FF000000000000
01FF000000000000
007F800000000000
003FC00000000000
000FE00000000000
0007F00000000000
0003F00000000000
0000F80000000000
00007C0000000000
00001C0000000000
0000000000000000
0000000000000000
0000000000000000
0000000000000000
0000000000000000
0000000000000000
0000000000000000
0000000000000000
0000000000000000
0000000000000000
0000000000000000
0000000000000000
0000000000000000
0000000000000000
0000000000000000
0000000000000000
0000000000000000
0000000000000000
0000000000000000
0000000000000000
0000000000000000
ENDCHAR

STARTCHAR kor_A1E8
ENCODING 41448
SWIDTH 1024 0
DWIDTH 64 0
BBX 64 64 0 -6
BITMAP
0000000000000000
0000000000000000
0000000180000000
00000003C0000000
00000003C0000000
00000007E0000000
0000000FF0000000
0000000FF0000000
0000001FF8000000
0000003FFC000000
0000003FFE000000
0000007FFE000000
000000FFFF000000
000001FFFF800000
000001FBCF800000
000003F3C7C00000
000007C3C3E00000
00000783C1E00000
00000F03C0700000
00000E03C0300000
00000003C0000000
00000003C0000000
00000003C0000000
00000003C0000000
00000003C0000000
00000003C0000000
00000003C0000000
00000003C0000000
00000003C0000000
00000003C0000000
00000003C0000000
00000003C0000000
00000003C0000000
00000003C0000000
00000003C0000000
00000003C0000000
00000003C0000000
00000003C0000000
00000003C0000000
00000003C0000000
00000003C0000000
00000003C0000000
00000003C0000000
00000003C0000000
00000003C0000000
00000003C0000000
00000003C0000000
00000003C0000000
00000003C0000000
00000003C0000000
00000003C0000000
00000003C0000000
00000003C0000000
00000003C0000000
00000003C0000000
00000003C0000000
00000003C0000000
00000003C0000000
00000003C0000000
00000003C0000000
0000000000000000
0000000000000000
0000000000000000
0000000000000000
ENDCHAR

STARTCHAR kor_A1E9
ENCODING 41449
SWIDTH 1024 0
DWIDTH 64 0
BBX 64 64 0 -6
BITMAP
0000000000000000
0000000000000000
00000003C0000000
00000003C0000000
00000003C0000000
00000003C0000000
00000003C0000000
00000003C0000000
00000003C0000000
00000003C0000000
00000003C0000000
00000003C0000000
00000003C0000000
00000003C0000000
00000003C0000000
00000003C0000000
00000003C0000000
00000003C0000000
00000003C0000000
00000003C0000000
00000003C0000000
00000003C0000000
00000003C0000000
00000003C0000000
00000003C0000000
00000003C0000000
00000003C0000000
00000003C0000000
00000003C0000000
00000003C0000000
00000003C0000000
00000003C0000000
00000003C0000000
00000003C0000000
00000003C0000000
00000003C0000000
00000003C0000000
00000003C0000000
00000003C0000000
00000003C0000000
00000003C0000000
00000C03C0180000
00000E03C0380000
00000F03C0F80000
00000783C1F00000
000007C3C3F00000
000003F3C7E00000
000001FBCFC00000
000001FFFF800000
000000FFFF800000
0000007FFF000000
0000007FFE000000
0000003FFE000000
0000003FFC000000
0000001FF8000000
0000000FF8000000
0000000FF0000000
00000007E0000000
00000003C0000000
00000003C0000000
0000000180000000
0000000000000000
0000000000000000
0000000000000000
ENDCHAR

STARTCHAR kor_A1EA
ENCODING 41450
SWIDTH 1024 0
DWIDTH 64 0
BBX 64 64 0 -6
BITMAP
0000000000000000
0000000000000000
0000000000000000
0000000000000000
0000000000000000
0000000000000000
0000000000000000
0000000000000000
0000000000000000
0000000000000000
0000000000000000
0000000000000000
0000000000000000
0000000000000000
0000000000000000
0000000000000000
0000000000000000
0000000000000000
0000000000000000
000380000001C000
000780000001F000
001F00000000F800
003F00000000FC00
007E000000007F00
01FC000000003F80
03F8000000003FC0
07F8000000001FF0
0FF0000000000FF8
3FE00000000007FC
7FFFFFFFFFFFFFFF
FFFFFFFFFFFFFFFF
FFFFFFFFFFFFFFFF
7FFFFFFFFFFFFFFF
3FE00000000007FC
0FF0000000000FF8
07F8000000000FF0
03FC000000001FC0
00FC000000003F80
007E000000003F00
003F000000007C00
001F000000007800
000780000000F000
000380000000C000
0000000000000000
0000000000000000
0000000000000000
0000000000000000
0000000000000000
0000000000000000
0000000000000000
0000000000000000
0000000000000000
0000000000000000
0000000000000000
0000000000000000
0000000000000000
0000000000000000
0000000000000000
0000000000000000
0000000000000000
0000000000000000
0000000000000000
0000000000000000
0000000000000000
ENDCHAR

STARTCHAR kor_A1EB
ENCODING 41451
SWIDTH 1024 0
DWIDTH 64 0
BBX 64 64 0 -6
BITMAP
0000000000000000
0000000000000000
0000000000000000
0000000000000000
0000000000000000
0000000000000000
0000000000000000
0000000000000000
0000000000000000
0000000000000000
0000000000000000
0000000000000000
0000000000000000
0000000000000000
0000000000000000
0000000000000000
0000000000000000
0000000000000000
0000000000000000
0000000000000000
0000000000000000
7FFFFFFFFFFFFFFE
7FFFFFFFFFFFFFFE
7FFFFFFFFFFFFFFE
0000000000000000
0000000000000000
0000000000000000
0000000000000000
0000000000000000
0000000000000000
0000000000000000
0000000000000000
0000000000000000
0000000000000000
0000000000000000
0000000000000000
0000000000000000
0000000000000000
7FFFFFFFFFFFFFFE
7FFFFFFFFFFFFFFE
7FFFFFFFFFFFFFFE
7FFFFFFFFFFFFFFE
0000000000000000
0000000000000000
0000000000000000
0000000000000000
0000000000000000
0000000000000000
0000000000000000
0000000000000000
0000000000000000
0000000000000000
0000000000000000
0000000000000000
0000000000000000
0000000000000000
0000000000000000
0000000000000000
0000000000000000
0000000000000000
0000000000000000
0000000000000000
0000000000000000
0000000000000000
ENDCHAR

STARTCHAR kor_A1EC
ENCODING 41452
SWIDTH 1024 0
DWIDTH 64 0
BBX 64 64 0 -6
BITMAP
0000000000000000
0000000000000000
0000000000000000
0000000000000000
0000000000000000
0000000000000000
0000000000000000
0000000000C00300
0000000003E00F80
0000000007E01F80
000000001FE07F80
000000003FC0FF00
00000000FF03FC00
00000003FE07F800
00000007F81FE000
0000001FF03FC000
0000003FC0FF0000
000000FF01FE0000
000001FE07F80000
000007F80FF00000
00000FF03FC00000
00003FC07F800000
00007F81FE000000
0001FE03FC000000
0007FC0FF0000000
000FF01FE0000000
003FC07F80000000
007F80FF00000000
01FE03FC00000000
03FC07F800000000
03FC07F800000000
01FE03FC00000000
007F80FE00000000
003FC07F80000000
000FF01FC0000000
0007F80FF0000000
0003FE07F8000000
0000FF01FE000000
00007FC0FF000000
00001FE03F800000
00000FF01FE00000
000003FC07F00000
000001FE03FC0000
000000FF81FE0000
0000003FC07F8000
0000001FF03FC000
00000007F80FE000
00000003FE07F800
00000000FF01FC00
000000007FC0FF00
000000003FE07F80
000000000FE01F80
0000000007C00F00
0000000001800300
0000000000000000
0000000000000000
0000000000000000
0000000000000000
0000000000000000
0000000000000000
0000000000000000
0000000000000000
0000000000000000
0000000000000000
ENDCHAR

STARTCHAR kor_A1ED
ENCODING 41453
SWIDTH 1024 0
DWIDTH 64 0
BBX 64 64 0 -6
BITMAP
0000000000000000
0000000000000000
0000000000000000
0000000000000000
0000000000000000
0000000000000000
0000000000000000
0180030000000000
03E007C000000000
03F007E000000000
01FC03F800000000
007E00FC00000000
003F807F00000000
000FC01F80000000
0007F00FE0000000
0003F807F0000000
0000FE01FC000000
00007F00FE000000
00001FC03F800000
00000FE01FC00000
000003F807F00000
000001FC03F80000
000000FF01FE0000
0000003F807F0000
0000001FE03FC000
00000007F00FE000
00000003FC07F800
00000000FE01FC00
000000007F80FF00
000000003FC07F80
000000003FC07F80
000000007F80FF00
00000001FE03FC00
00000003FC07F800
0000000FF01FE000
0000001FE03FC000
0000007FC0FF8000
000000FF01FE0000
000003FE07FC0000
000007F80FF00000
00000FF01FE00000
00003FC07F800000
00007F80FF000000
0001FF03FE000000
0003FC07F8000000
000FF81FF0000000
001FE03FC0000000
007FC0FF80000000
00FF01FE00000000
03FE07FC00000000
07FC0FF800000000
07F00FE000000000
03E007C000000000
0180030000000000
0000000000000000
0000000000000000
0000000000000000
0000000000000000
0000000000000000
0000000000000000
0000000000000000
0000000000000000
0000000000000000
0000000000000000
ENDCHAR

STARTCHAR kor_A1EE
ENCODING 41454
SWIDTH 1024 0
DWIDTH 64 0
BBX 64 64 0 -6
BITMAP
000000000FFFFFFF
000000000FFFFFFF
000000001FFFFFFF
000000001E000000
000000001C000000
000000003C000000
000000003C000000
0000000078000000
0000000078000000
0000000070000000
00000000F0000000
00000000F0000000
00000000E0000000
00000001E0000000
00000001E0000000
00000003C0000000
00000003C0000000
00000003C0000000
0000000780000000
0000000780000000
0000000780000000
0000000F00000000
0000000F00000000
0000001E00000000
0000001E00000000
0000001E00000000
0000003C00000000
0000003C00000000
0000003C00000000
0000007800000000
0000007800000000
000000F800000000
000000F000000000
000C00F000000000
001C01F000000000
003E01E000000000
007E01E000000000
00FF03C000000000
01FF03C000000000
03FF07C000000000
07FF878000000000
07BF878000000000
033FCF8000000000
001FCF0000000000
001FCF0000000000
000FFF0000000000
000FFE0000000000
000FFE0000000000
0007FE0000000000
0007FC0000000000
0003FC0000000000
0003F80000000000
0003F80000000000
0001F80000000000
0001F00000000000
0000F00000000000
0000F00000000000
0000600000000000
0000600000000000
0000000000000000
0000000000000000
0000000000000000
0000000000000000
0000000000000000
ENDCHAR

STARTCHAR kor_A1EF
ENCODING 41455
SWIDTH 1024 0
DWIDTH 64 0
BBX 64 64 0 -6
BITMAP
0000000000000000
0000000000000000
0000000000000000
0000000000000000
0000000000000000
0000000000000000
0000000000000000
0000000000000000
0000000000000000
0000000000000000
0000000000000000
0000000000000000
0000000000000000
0000000000000000
0000000000000000
0000000000000000
0000000000000000
0000000000000000
0003FE00003F8000
000FFFC001FFE000
001FFFE007FFF000
003FFFE00FFFF800
007F87C01FC0FC00
00FE00C03F003F00
00FC00007E001F80
01F800007E000F80
01F00000FC0007C0
01E00000F80007C0
01E00000F00003C0
01E00001F00003C0
01E00003E00003C0
01E00003C00003C0
01E00007C00003C0
01E00007C00003C0
01F0000F800003C0
01F0000F800007C0
01F8001F00000F80
00F8003F00001F80
00FC007E01803F00
007E01FC03E0FE00
001FFFF807FFFC00
000FFFF007FFF800
0007FFE001FFF000
0001FFC0003FC000
0000000000000000
0000000000000000
0000000000000000
0000000000000000
0000000000000000
0000000000000000
0000000000000000
0000000000000000
0000000000000000
0000000000000000
0000000000000000
0000000000000000
0000000000000000
0000000000000000
0000000000000000
0000000000000000
0000000000000000
0000000000000000
0000000000000000
0000000000000000
ENDCHAR

STARTCHAR kor_A1F0
ENCODING 41456
SWIDTH 1024 0
DWIDTH 64 0
BBX 64 64 0 -6
BITMAP
0000000000000000
0000000000000000
0000000000000000
0000000000000000
0000000000000000
0000000000000000
0000000000000000
0000000000000000
0000000000000000
0000000000000000
0000000000000000
0000000000000000
0000000000000000
0000000000000000
0000000000000000
0000000000000000
0000000000000000
0003FF00003C0000
000FFF8001FFE000
001FFFC007FFF000
003FFFF00FFFF000
007FC3F81FFBE000
00FF01FC3F80E000
00FC007E7E000000
01F0003FFC000000
01F0001FF8000000
01E0001FF8000000
03E0000FF0000000
03E0000FF0000000
03E00007E0000000
03E00007E0000000
03C00007E0000000
03C0000FF0000000
03E0000FF8000000
03E0001FF8000000
01F0003FFC000000
00F8007E7E000000
00FC00FE7F000000
007E01FC3F006000
003FF3F81FFFF000
001FFFF00FFFF000
000FFFE007FFF000
0007FF8001FFC000
0001FE00003E0000
0000000000000000
0000000000000000
0000000000000000
0000000000000000
0000000000000000
0000000000000000
0000000000000000
0000000000000000
0000000000000000
0000000000000000
0000000000000000
0000000000000000
0000000000000000
0000000000000000
0000000000000000
0000000000000000
0000000000000000
0000000000000000
0000000000000000
0000000000000000
ENDCHAR

STARTCHAR kor_A1F1
ENCODING 41457
SWIDTH 1024 0
DWIDTH 64 0
BBX 64 64 0 -6
BITMAP
0000000000000000
0000000000000000
0000000000000000
0000000000000000
0000000000000000
0000000000000000
0000000000000000
0001E00000078000
0003F000000FC000
000FF800003FE000
000FFC00003FF000
000FFC00003FF000
000FFC00003FF000
000FFC00003FF000
000FF800003FE000
0007F800001FE000
0001E00000078000
0000000000000000
0000000000000000
0000000000000000
0000000000000000
0000000000000000
0000000000000000
0000000000000000
0000000000000000
0000000000000000
0000000000000000
0000000000000000
0000000000000000
0000000000000000
0000000000000000
0000000000000000
0000000000000000
0000000000000000
0000000000000000
0000000000000000
0000000000000000
0000000000000000
00000007C0000000
0000000FF0000000
0000001FF0000000
0000001FF8000000
0000001FF8000000
0000001FF8000000
0000001FF8000000
0000001FF0000000
0000000FE0000000
0000000000000000
0000000000000000
0000000000000000
0000000000000000
0000000000000000
0000000000000000
0000000000000000
0000000000000000
0000000000000000
0000000000000000
0000000000000000
0000000000000000
0000000000000000
0000000000000000
0000000000000000
0000000000000000
0000000000000000
ENDCHAR

STARTCHAR kor_A1F2
ENCODING 41458
SWIDTH 1024 0
DWIDTH 64 0
BBX 64 64 0 -6
BITMAP
0000000000000000
0000000000000000
0000000000000000
000000003F800000
00000000FFE00000
00000001FFF00000
00000003FFF80000
00000003FFF80000
00000007F1FC0000
00000007E0FC0000
00000007E0FC0000
00000007E0FC0000
00000007E0000000
00000007E0000000
00000007E0000000
00000007E0000000
00000007E0000000
0000000FE0000000
0000000FC0000000
0000000FC0000000
0000000FC0000000
0000000FC0000000
0000000FC0000000
0000000FC0000000
0000000FC0000000
0000000FC0000000
0000000FC0000000
0000000FC0000000
0000000FC0000000
0000000FC0000000
0000001FC0000000
0000001F80000000
0000001F80000000
0000001F80000000
0000001F80000000
0000001F80000000
0000001F80000000
0000001F80000000
0000001F80000000
0000001F80000000
0000001F80000000
0000001F80000000
0000001F80000000
0000001F80000000
0000003F80000000
0000003F00000000
0000003F00000000
0000003F00000000
0000003F00000000
0000003F00000000
0001F83F00000000
0001F83F00000000
0001F83F00000000
0001FC7F00000000
0001FFFF00000000
0000FFFE00000000
0000FFFE00000000
00007FFC00000000
00003FF800000000
00000FE000000000
0000000000000000
0000000000000000
0000000000000000
0000000000000000
ENDCHAR

STARTCHAR kor_A1F3
ENCODING 41459
SWIDTH 1024 0
DWIDTH 64 0
BBX 64 64 0 -6
BITMAP
0000000000000000
0000000000000000
0000000000000000
0000001FC007F000
0000007FF01FFC00
000000FFF83FFE00
000001FFFC7FFF00
000001FFFC7FFF00
000003F8FCFE3F80
000003F07CFC1F80
000003F07CFC1F80
000003F07CFC1F80
000003F000FC0000
000003F000FC0000
000003F000FC0000
000003F000FC0000
000003F000FC0000
000007F001FC0000
000007E001F80000
000007E001F80000
000007E001F80000
000007E001F80000
000007E001F80000
000007E001F80000
000007E001F80000
000007E001F80000
000007E001F80000
000007E001F80000
000007E001F80000
000007E001F80000
00000FE003F80000
00000FC003F00000
00000FC003F00000
00000FC003F00000
00000FC003F00000
00000FC003F00000
00000FC003F00000
00000FC003F00000
00000FC003F00000
00000FC003F00000
00000FC003F00000
00000FC003F00000
00000FC003F00000
00000FC003F00000
00001FC007F00000
00001F8007E00000
00001F8007E00000
00001F8007E00000
00001F8007E00000
00001F8007E00000
00FC1FBF07E00000
00FC1FBF07E00000
00FC1FBF07E00000
00FE3FBF8FE00000
00FFFFBFFFE00000
007FFF1FFFC00000
007FFF1FFFC00000
003FFE0FFF800000
001FFC07FF000000
0007F001FC000000
0000000000000000
0000000000000000
0000000000000000
0000000000000000
ENDCHAR

STARTCHAR kor_A1F4
ENCODING 41460
SWIDTH 1024 0
DWIDTH 64 0
BBX 64 64 0 -6
BITMAP
0000000000000000
0000000000000000
0000000000000000
0000000000000000
0000000000000000
0000000000000000
0000000000000000
0000000000000000
0000000000000000
0000000000000000
0000000000000000
0000000000000000
000007FFFFFFFE00
00003FFFFFFFFE00
0000FFFFFFFFFE00
0001FFFFFFFFFE00
0003FC0000000000
0007F00000000000
000FE00000000000
001F800000000000
001F000000000000
003E000000000000
003E000000000000
007C000000000000
0078000000000000
0078000000000000
0078000000000000
00F8000000000000
00FFFFFFFFFFFE00
00FFFFFFFFFFFE00
00FFFFFFFFFFFE00
00FFFFFFFFFFFE00
00F8000000000000
00F8000000000000
0078000000000000
007C000000000000
007C000000000000
007E000000000000
003E000000000000
003F000000000000
001F800000000000
001FC00000000000
000FC00000000000
0003F80000000000
0003FFFFFFFFFE00
0001FFFFFFFFFE00
00007FFFFFFFFE00
00001FFFFFFFFE00
0000000000000000
0000000000000000
0000000000000000
0000000000000000
0000000000000000
0000000000000000
0000000000000000
0000000000000000
0000000000000000
0000000000000000
0000000000000000
0000000000000000
0000000000000000
0000000000000000
0000000000000000
0000000000000000
ENDCHAR

STARTCHAR kor_A1F5
ENCODING 41461
SWIDTH 1024 0
DWIDTH 64 0
BBX 64 64 0 -6
BITMAP
0000000000000000
0000000000000000
0000000000000000
0000000000000000
0000000000000000
0000000000000000
0000000000000000
0000000000000000
0000000000000000
0000000000000000
0000000000000000
0000000000000000
007FFFFFFFE00000
007FFFFFFFF80000
007FFFFFFFFE0000
007FFFFFFFFF8000
00000000007FE000
000000000007F000
000000000003F000
000000000001F800
000000000000FC00
000000000000FC00
0000000000007E00
0000000000003E00
0000000000003E00
0000000000001E00
0000000000001F00
0000000000001F00
007FFFFFFFFFFF00
007FFFFFFFFFFF00
007FFFFFFFFFFF00
007FFFFFFFFFFF00
0000000000001F00
0000000000001E00
0000000000001E00
0000000000001E00
0000000000003E00
0000000000003C00
0000000000007C00
000000000000F800
000000000001F800
000000000001F000
000000000003F000
00000000003FE000
007FFFFFFFFFC000
007FFFFFFFFF8000
007FFFFFFFFF0000
007FFFFFFFFC0000
0000000000000000
0000000000000000
0000000000000000
0000000000000000
0000000000000000
0000000000000000
0000000000000000
0000000000000000
0000000000000000
0000000000000000
0000000000000000
0000000000000000
0000000000000000
0000000000000000
0000000000000000
0000000000000000
ENDCHAR

STARTCHAR kor_A1F6
ENCODING 41462
SWIDTH 1024 0
DWIDTH 64 0
BBX 64 64 0 -6
BITMAP
0000000000000000
0000000000000000
0000000000000000
0000000000000000
0000000000000000
0000000000000000
0000000000000000
0000000000000000
0000000000000000
0000000000000000
0000000000000000
00001FFFFFFFF000
0000FFFFFFFFF000
0001FFFFFFFFF000
0003FFFFFFFFF000
0007FC0000000000
0007F00000000000
000FC00000000000
000F800000000000
001F000000000000
001F000000000000
001F000000000000
001E000000000000
001E000000000000
001E000000000000
001E000000000000
001E000000000000
001E000000000000
001F000000000000
001F000000000000
000F800000000000
000FE00000000000
000FF00000000000
0007F80000000000
0003FFFFFFFFF000
0001FFFFFFFFF000
00007FFFFFFFF000
00000FFFFFFFF000
0000000000000000
0000000000000000
0000000000000000
0000000000000000
0000000000000000
0000000000000000
0000000000000000
001FFFFFFFFFF000
001FFFFFFFFFF000
001FFFFFFFFFF000
001FFFFFFFFFF000
0000000000000000
0000000000000000
0000000000000000
0000000000000000
0000000000000000
0000000000000000
0000000000000000
0000000000000000
0000000000000000
0000000000000000
0000000000000000
0000000000000000
0000000000000000
0000000000000000
0000000000000000
ENDCHAR

STARTCHAR kor_A1F7
ENCODING 41463
SWIDTH 1024 0
DWIDTH 64 0
BBX 64 64 0 -6
BITMAP
0000000000000000
0000000000000000
0000000000000000
0000000000000000
0000000000000000
0000000000000000
0000000000000000
0000000000000000
0000000000000000
0000000000000000
0000000000000000
000FFFFFFFF80000
000FFFFFFFFC0000
000FFFFFFFFF0000
000FFFFFFFFF8000
00000000001FC000
000000000007E000
000000000003F000
000000000001F000
000000000000F000
000000000000F800
0000000000007800
0000000000007800
0000000000007800
0000000000007800
0000000000007800
0000000000007800
0000000000007800
0000000000007800
000000000000F800
000000000000F000
000000000001F000
000000000003E000
000000000007E000
00000000001FC000
000FFFFFFFFF8000
000FFFFFFFFF0000
000FFFFFFFFE0000
000FFFFFFFF00000
0000000000000000
0000000000000000
0000000000000000
0000000000000000
0000000000000000
0000000000000000
000FFFFFFFFFF000
000FFFFFFFFFF000
000FFFFFFFFFF000
000FFFFFFFFFF000
0000000000000000
0000000000000000
0000000000000000
0000000000000000
0000000000000000
0000000000000000
0000000000000000
0000000000000000
0000000000000000
0000000000000000
0000000000000000
0000000000000000
0000000000000000
0000000000000000
0000000000000000
ENDCHAR

STARTCHAR kor_A1F8
ENCODING 41464
SWIDTH 1024 0
DWIDTH 64 0
BBX 64 64 0 -6
BITMAP
0000000000000000
0000000000000000
0000000000000000
0000000000000000
0000000000000000
0000000000000000
0000000000000000
0000000000000000
0000000000000000
0000000000000000
0000000000000000
0000000000000000
000007FFFFFFFE00
00003FFFFFFFFE00
0000FFFFFFFFFE00
0001FFFFFFFFFE00
0003FF0000000000
0007F00000000000
000FE00000000000
001F800000000000
001F000000000000
003F000000000000
003E000000000000
007C000000000000
007C000000000000
0078000000000000
0078000000000000
00F8000000000000
00F8000000000000
00F8000000000000
00F8000000000000
00F8000000000000
00F8000000000000
00F8000000000000
007C000000000000
007C000000000000
007C000000000000
007C000000000000
003E000000000000
003F000000000000
001F800000000000
001FC00000000000
000FF00000000000
0003F80000000000
0003FFFFFFFFFE00
0001FFFFFFFFFE00
00007FFFFFFFFE00
00001FFFFFFFFE00
0000000000000000
0000000000000000
0000000000000000
0000000000000000
0000000000000000
0000000000000000
0000000000000000
0000000000000000
0000000000000000
0000000000000000
0000000000000000
0000000000000000
0000000000000000
0000000000000000
0000000000000000
0000000000000000
ENDCHAR

STARTCHAR kor_A1F9
ENCODING 41465
SWIDTH 1024 0
DWIDTH 64 0
BBX 64 64 0 -6
BITMAP
0000000000000000
0000000000000000
0000000000000000
0000000000000000
0000000000000000
0000000000000000
0000000000000000
0000000000000000
0000000000000000
0000000000000000
0000000000000000
0000000000000000
007FFFFFFFE00000
007FFFFFFFF80000
007FFFFFFFFE0000
007FFFFFFFFF8000
00000000003FE000
000000000007F000
000000000003F000
000000000001F800
000000000000FC00
0000000000007C00
0000000000003E00
0000000000003E00
0000000000003E00
0000000000003E00
0000000000001F00
0000000000001F00
0000000000001F00
0000000000001F00
0000000000001F00
0000000000001F00
0000000000001F00
0000000000001E00
0000000000001E00
0000000000003E00
0000000000003E00
0000000000003C00
0000000000003C00
000000000000F800
000000000001F800
000000000003F000
00000000000FF000
00000000001FE000
007FFFFFFFFFC000
007FFFFFFFFF8000
007FFFFFFFFF0000
007FFFFFFFFC0000
0000000000000000
0000000000000000
0000000000000000
0000000000000000
0000000000000000
0000000000000000
0000000000000000
0000000000000000
0000000000000000
0000000000000000
0000000000000000
0000000000000000
0000000000000000
0000000000000000
0000000000000000
0000000000000000
ENDCHAR

STARTCHAR kor_A1FA
ENCODING 41466
SWIDTH 1024 0
DWIDTH 64 0
BBX 64 64 0 -6
BITMAP
0000000000000000
0000000000000000
0000000000000000
0000000000000000
0000000000000000
0000000000000000
0000000000000000
0000000000000000
0003C0000003C000
0003C0000003C000
0003C0000003C000
0003C0000003C000
0003C0000003C000
0003C0000003C000
0003C0000003C000
0003C0000003C000
0003C0000003C000
0003C0000003C000
0003C0000003C000
0003C0000003C000
0003C0000003C000
0003C0000003C000
0003C0000003C000
0003C0000003C000
0003C0000003C000
0003C0000003C000
0003C0000003C000
0003C0000003C000
0003C0000003C000
0003C0000003C000
0003C0000003C000
0003C0000003C000
0003C0000003C000
0003C0000003C000
0003C0000003C000
0003C0000003C000
0003C0000003C000
0003C0000003C000
0003C0000003C000
0003E0000003C000
0003E0000007C000
0003E0000007C000
0003E000000FC000
0003F000000F8000
0001F000001F8000
0001F800003F0000
0000FE00007F0000
00007F0000FE0000
00003FC001FC0000
00001FF00FF80000
000007FFFFE00000
000003FFFFC00000
000000FFFF000000
0000000FF0000000
0000000000000000
0000000000000000
0000000000000000
0000000000000000
0000000000000000
0000000000000000
0000000000000000
0000000000000000
0000000000000000
0000000000000000
ENDCHAR

STARTCHAR kor_A1FB
ENCODING 41467
SWIDTH 1024 0
DWIDTH 64 0
BBX 64 64 0 -6
BITMAP
0000000000000000
0000000000000000
0000000000000000
0000000000000000
0000000000000000
0000000000000000
0000000000000000
0000000000000000
0000003FF8000000
000003FFFF800000
000007FFFFC00000
00000FFFFFE00000
00003FF007F80000
00007F8000FE0000
00007E00007F0000
0000FC00003F0000
0000F800001F8000
0001F000000F8000
0003E000000FC000
0003E0000007C000
0003E0000007C000
0003C0000007C000
0003C0000003C000
0003C0000003C000
0003C0000003C000
0003C0000003C000
0003C0000003C000
0003C0000003C000
0003C0000003C000
0003C0000003C000
0003C0000003C000
0003C0000003C000
0003C0000003C000
0003C0000003C000
0003C0000003C000
0003C0000003C000
0003C0000003C000
0003C0000003C000
0003C0000003C000
0003C0000003C000
0003C0000003C000
0003C0000003C000
0003C0000003C000
0003C0000003C000
0003C0000003C000
0003C0000003C000
0003C0000003C000
0003C0000003C000
0003C0000003C000
0003C0000003C000
0003C0000003C000
0003C0000003C000
0003C0000003C000
0003C0000003C000
0003C0000003C000
0000000000000000
0000000000000000
0000000000000000
0000000000000000
0000000000000000
0000000000000000
0000000000000000
0000000000000000
0000000000000000
ENDCHAR

STARTCHAR kor_A1FC
ENCODING 41468
SWIDTH 1024 0
DWIDTH 64 0
BBX 64 64 0 -6
BITMAP
0000000000000000
0000000000000000
0000000000000000
0000000000000000
0000000000000000
0000000000000000
0000000000000000
0000000000000000
0000000000000000
0000000180000000
00000003C0000000
00000003C0000000
00000007E0000000
00000007E0000000
0000000FF0000000
0000000FF0000000
0000001FF8000000
0000001FF8000000
0000003E7C000000
0000003E7C000000
0000007C3E000000
0000007C3E000000
000000F81F000000
000000F81F000000
000001F00F800000
000001F00F800000
000003E007C00000
000003E007C00000
000007C003E00000
000007C003E00000
00000F8001F00000
00000F8001F00000
00001F0000F80000
00001F0000F80000
00003E00007C0000
00003E00007C0000
00007C00003E0000
00007C00003E0000
0000F800001F0000
0000F800001F0000
0001F000000F8000
0001F000000F8000
0003E0000007C000
0003E0000007C000
0007C0000003E000
0007C0000003E000
000F80000001F000
000F80000001F000
001F00000000F800
001F00000000F800
000E000000006000
0000000000000000
0000000000000000
0000000000000000
0000000000000000
0000000000000000
0000000000000000
0000000000000000
0000000000000000
0000000000000000
0000000000000000
0000000000000000
0000000000000000
0000000000000000
ENDCHAR

STARTCHAR kor_A1FD
ENCODING 41469
SWIDTH 1024 0
DWIDTH 64 0
BBX 64 64 0 -6
BITMAP
0000000000000000
0000000000000000
0000000000000000
0000000000000000
0000000000000000
0000000000000000
0000000000000000
0000000000000000
0000000000000000
0000000000000000
000E000000006000
001F00000000F800
001F00000000F800
000F80000001F000
000F80000001F000
0007C0000003E000
0007C0000003E000
0003E0000007C000
0003E0000007C000
0001F000000F8000
0001F000000F8000
0000F800001F0000
0000F800001F0000
00007C00003E0000
00007C00003E0000
00003E00007C0000
00003E00007C0000
00001F0000F80000
00001F0000F80000
00000F8001F00000
00000F8001F00000
000007C003E00000
000003C003C00000
000003E007C00000
000001E007800000
000001F00F800000
000000F00F000000
000000F81F000000
000000781E000000
0000007C3E000000
0000003C3C000000
0000003E7C000000
0000001E78000000
0000001FF8000000
0000000FF0000000
0000000FF0000000
00000007E0000000
00000007E0000000
00000003C0000000
00000003C0000000
0000000180000000
0000000000000000
0000000000000000
0000000000000000
0000000000000000
0000000000000000
0000000000000000
0000000000000000
0000000000000000
0000000000000000
0000000000000000
0000000000000000
0000000000000000
0000000000000000
ENDCHAR

STARTCHAR kor_A1FE
ENCODING 41470
SWIDTH 1024 0
DWIDTH 64 0
BBX 64 64 0 -6
BITMAP
0000000000000000
0000000000000000
0000000000000000
0000000000000000
0000000000000000
0000000000000000
0000000000000000
01FFFFFFFFFFFFC0
01FFFFFFFFFFFFC0
01FFFFFFFFFFFFC0
01FFFFFFFFFFFFC0
00000000000003C0
00000000000003C0
00000000000003C0
00000000000003C0
00000000000003C0
00000000000003C0
00000000000003C0
00000000000003C0
00000000000003C0
00000000000003C0
00000000000003C0
00000000000003C0
00000000000003C0
00000000000003C0
00000000000003C0
00000000000003C0
00000000000003C0
00000000000003C0
0000000000000000
0000000000000000
0000000000000000
0000000000000000
0000000000000000
0000000000000000
0000000000000000
0000000000000000
0000000000000000
0000000000000000
0000000000000000
0000000000000000
0000000000000000
0000000000000000
0000000000000000
0000000000000000
0000000000000000
0000000000000000
0000000000000000
0000000000000000
0000000000000000
0000000000000000
0000000000000000
0000000000000000
0000000000000000
0000000000000000
0000000000000000
0000000000000000
0000000000000000
0000000000000000
0000000000000000
0000000000000000
0000000000000000
0000000000000000
0000000000000000
ENDCHAR

STARTCHAR kor_A2A1
ENCODING 41633
SWIDTH 1024 0
DWIDTH 64 0
BBX 64 64 0 -6
BITMAP
0000000000000000
0000000000000000
0000000000000000
0000000000000000
0000000000000000
0000000000000000
0000000000000000
0000000000000000
0000000000000000
0000000000000000
0000000000000000
0000000000000000
0000000000000000
0000000000000000
0000000000E00000
0000000001F00000
0000000001F80000
0000000000FC0000
00000000007E0000
00000000003F0000
00000000001F8000
00000000000FC000
000000000007E000
001FFFFFFFFFF000
001FFFFFFFFFF800
001FFFFFFFFFFC00
001FFFFFFFFFFE00
0000000000003F00
0000000000001F80
0000000000000FC0
00000000000007E0
00000000000007E0
0000000000000FC0
0000000000001F80
0000000000003F00
001FFFFFFFFFFE00
001FFFFFFFFFFC00
001FFFFFFFFFF800
001FFFFFFFFFF000
000000000007E000
00000000000FC000
00000000001F8000
00000000003F0000
00000000007E0000
0000000000FC0000
0000000001F80000
0000000001F00000
0000000000E00000
0000000000000000
0000000000000000
0000000000000000
0000000000000000
0000000000000000
0000000000000000
0000000000000000
0000000000000000
0000000000000000
0000000000000000
0000000000000000
0000000000000000
0000000000000000
0000000000000000
0000000000000000
0000000000000000
ENDCHAR

STARTCHAR kor_A2A2
ENCODING 41634
SWIDTH 1024 0
DWIDTH 64 0
BBX 64 64 0 -6
BITMAP
0000000000000000
0000000000000000
0000000000000000
0000000000000000
0000000000000000
0000000000000000
0000000000000000
0000000000000000
0000000000000000
0000000000000000
0000000000000000
0000000000000000
0000000000000000
0000000000000000
0000070000E00000
00000F8001F00000
00001F8001F80000
00003F0000FC0000
00007E00007E0000
0000FC00003F0000
0001F800001F8000
0003F000000FC000
0007E0000007E000
000FFFFFFFFFF000
001FFFFFFFFFF800
003FFFFFFFFFFC00
007FFFFFFFFFFE00
00FC000000003F00
01F8000000001F80
03F0000000000FC0
07E00000000007E0
07E00000000007E0
03F0000000000FC0
01F8000000001F80
00FC000000003F00
007FFFFFFFFFFE00
003FFFFFFFFFFC00
001FFFFFFFFFF800
000FFFFFFFFFF000
0007E0000007E000
0003F000000FC000
0001F800001F8000
0000FC00003F0000
00007E00007E0000
00003F0000FC0000
00001F8001F80000
00000F8001F00000
0000070000E00000
0000000000000000
0000000000000000
0000000000000000
0000000000000000
0000000000000000
0000000000000000
0000000000000000
0000000000000000
0000000000000000
0000000000000000
0000000000000000
0000000000000000
0000000000000000
0000000000000000
0000000000000000
0000000000000000
ENDCHAR

STARTCHAR kor_A2A3
ENCODING 41635
SWIDTH 1024 0
DWIDTH 64 0
BBX 64 64 0 -6
BITMAP
0000000000000000
0000000000000000
0000000000000000
0000000000000000
007E000000007E00
007E000000007E00
007E000000007E00
003F00000000FC00
003F00000000FC00
001F80000001F800
001F80000001F800
000FC0000003F000
000FC0000003F000
0007C0000003E000
0007E0000007E000
0007E0000007E000
0003F000000FC000
0003F000000FC000
0001F800001F8000
0001FFFFFFFF8000
0000FFFFFFFF0000
0000FFFFFFFF0000
0000FFFFFFFF0000
00007E00007E0000
00007E00007E0000
00003F0000FC0000
00003F0000FC0000
00001F8001F80000
00001F8001F80000
00000F8001F00000
00000FC003F00000
00000FC003F00000
000007E007E00000
000007E007E00000
000003F00FC00000
000003F00FC00000
000001F81F800000
000001F81F800000
000000F81F000000
000000FC3F000000
000000FC3F000000
0000007E7E000000
0000007E7E000000
0000003FFC000000
0000003FFC000000
0000001FF8000000
0000001FF8000000
0000001FF8000000
0000000FF0000000
0000000FF0000000
00000007E0000000
00000007E0000000
00000003C0000000
00000003C0000000
0000000180000000
0000000180000000
0000000000000000
0000000000000000
0000000000000000
0000000000000000
0000000000000000
0000000000000000
0000000000000000
0000000000000000
ENDCHAR

STARTCHAR kor_A2A4
ENCODING 41636
SWIDTH 1024 0
DWIDTH 64 0
BBX 64 64 0 -6
BITMAP
0000000000000000
0000000000000000
0000000000000000
0000000000000000
0000000000000000
0000000000000000
0001FFFFFFFF0000
0001FFFFFFFF0000
0001FFFFFFFF0000
0001FFFFFFFF0000
00000000001F0000
00000000001F0000
00000000001F0000
00000000001F0000
00000000001F0000
00000000001F0000
00000000001F0000
00000000001F0000
00000000001F0000
00000000001F0000
00000000001F0000
00000000001F0000
00000000001F0000
00000000001F0000
00000000001F0000
00000000001F0000
00000000001F0000
0001FFFFFFFF0000
0001FFFFFFFF0000
0001FFFFFFFF0000
0001FFFFFFFF0000
00000000001F0000
00000000001F0000
00000000001F0000
00000000001F0000
00000000001F0000
00000000001F0000
00000000001F0000
00000000001F0000
00000000001F0000
00000000001F0000
00000000001F0000
00000000001F0000
00000000001F0000
00000000001F0000
00000000001F0000
00000000001F0000
00000000001F0000
0001FFFFFFFF0000
0001FFFFFFFF0000
0001FFFFFFFF0000
0001FFFFFFFF0000
0000000000000000
0000000000000000
0000000000000000
0000000000000000
0000000000000000
0000000000000000
0000000000000000
0000000000000000
0000000000000000
0000000000000000
0000000000000000
0000000000000000
ENDCHAR

STARTCHAR kor_A2A5
ENCODING 41637
SWIDTH 1024 0
DWIDTH 64 0
BBX 64 64 0 -6
BITMAP
0000000000000000
0000000000000000
00000001FF000000
00000003FF000000
00000003FE000000
00000007FC000000
0000000FF8000000
0000000FF0000000
0000001FE0000000
0000003FC0000000
0000003F80000000
0000007F00000000
0000007E00000000
0000000000000000
0000000000000000
0000000000000000
0000000000000000
0000000000000000
0000000000000000
0000000000000000
0000000000000000
0000000000000000
0000000000000000
0000000000000000
0000000000000000
0000000000000000
0000000000000000
0000000000000000
0000000000000000
0000000000000000
0000000000000000
0000000000000000
0000000000000000
0000000000000000
0000000000000000
0000000000000000
0000000000000000
0000000000000000
0000000000000000
0000000000000000
0000000000000000
0000000000000000
0000000000000000
0000000000000000
0000000000000000
0000000000000000
0000000000000000
0000000000000000
0000000000000000
0000000000000000
0000000000000000
0000000000000000
0000000000000000
0000000000000000
0000000000000000
0000000000000000
0000000000000000
0000000000000000
0000000000000000
0000000000000000
0000000000000000
0000000000000000
0000000000000000
0000000000000000
ENDCHAR

STARTCHAR kor_A2A6
ENCODING 41638
SWIDTH 1024 0
DWIDTH 64 0
BBX 64 64 0 -6
BITMAP
0000000000000000
0000000000000000
0000000000000000
000001FC007E0000
000007FF007E0000
00000FFFC07E0000
00001FFFF0FE0000
00001FFFFFFC0000
00003F87FFFC0000
00003F01FFF80000
00003F007FF00000
00003F001FC00000
0000000000000000
0000000000000000
0000000000000000
0000000000000000
0000000000000000
0000000000000000
0000000000000000
0000000000000000
0000000000000000
0000000000000000
0000000000000000
0000000000000000
0000000000000000
0000000000000000
0000000000000000
0000000000000000
0000000000000000
0000000000000000
0000000000000000
0000000000000000
0000000000000000
0000000000000000
0000000000000000
0000000000000000
0000000000000000
0000000000000000
0000000000000000
0000000000000000
0000000000000000
0000000000000000
0000000000000000
0000000000000000
0000000000000000
0000000000000000
0000000000000000
0000000000000000
0000000000000000
0000000000000000
0000000000000000
0000000000000000
0000000000000000
0000000000000000
0000000000000000
0000000000000000
0000000000000000
0000000000000000
0000000000000000
0000000000000000
0000000000000000
0000000000000000
0000000000000000
0000000000000000
ENDCHAR

STARTCHAR kor_A2A7
ENCODING 41639
SWIDTH 1024 0
DWIDTH 64 0
BBX 64 64 0 -6
BITMAP
0000000000000000
0000000000000000
000003F81FC00000
000003F81FC00000
000001FC3F800000
000001FE7F800000
000000FE7F000000
0000007FFE000000
0000007FFE000000
0000003FFC000000
0000001FF8000000
0000001FF8000000
0000000FF0000000
0000000000000000
0000000000000000
0000000000000000
0000000000000000
0000000000000000
0000000000000000
0000000000000000
0000000000000000
0000000000000000
0000000000000000
0000000000000000
0000000000000000
0000000000000000
0000000000000000
0000000000000000
0000000000000000
0000000000000000
0000000000000000
0000000000000000
0000000000000000
0000000000000000
0000000000000000
0000000000000000
0000000000000000
0000000000000000
0000000000000000
0000000000000000
0000000000000000
0000000000000000
0000000000000000
0000000000000000
0000000000000000
0000000000000000
0000000000000000
0000000000000000
0000000000000000
0000000000000000
0000000000000000
0000000000000000
0000000000000000
0000000000000000
0000000000000000
0000000000000000
0000000000000000
0000000000000000
0000000000000000
0000000000000000
0000000000000000
0000000000000000
0000000000000000
0000000000000000
ENDCHAR

STARTCHAR kor_A2A8
ENCODING 41640
SWIDTH 1024 0
DWIDTH 64 0
BBX 64 64 0 -6
BITMAP
0000000000000000
0000000000000000
000007E007E00000
000007E007E00000
000007E007E00000
000007F00FE00000
000007F00FE00000
000003FC3FC00000
000003FFFFC00000
000001FFFF800000
000000FFFF000000
0000003FFC000000
00000007E0000000
0000000000000000
0000000000000000
0000000000000000
0000000000000000
0000000000000000
0000000000000000
0000000000000000
0000000000000000
0000000000000000
0000000000000000
0000000000000000
0000000000000000
0000000000000000
0000000000000000
0000000000000000
0000000000000000
0000000000000000
0000000000000000
0000000000000000
0000000000000000
0000000000000000
0000000000000000
0000000000000000
0000000000000000
0000000000000000
0000000000000000
0000000000000000
0000000000000000
0000000000000000
0000000000000000
0000000000000000
0000000000000000
0000000000000000
0000000000000000
0000000000000000
0000000000000000
0000000000000000
0000000000000000
0000000000000000
0000000000000000
0000000000000000
0000000000000000
0000000000000000
0000000000000000
0000000000000000
0000000000000000
0000000000000000
0000000000000000
0000000000000000
0000000000000000
0000000000000000
ENDCHAR

STARTCHAR kor_A2A9
ENCODING 41641
SWIDTH 1024 0
DWIDTH 64 0
BBX 64 64 0 -6
BITMAP
0000000000000000
0000000000000000
000001FFBFF00000
000001FFBFF00000
000003FF7FE00000
000003FE7FC00000
000007FCFF800000
000007F8FF000000
00000FF1FE000000
00000FE1FC000000
00001FC3F8000000
00001F83F0000000
00001F03E0000000
0000000000000000
0000000000000000
0000000000000000
0000000000000000
0000000000000000
0000000000000000
0000000000000000
0000000000000000
0000000000000000
0000000000000000
0000000000000000
0000000000000000
0000000000000000
0000000000000000
0000000000000000
0000000000000000
0000000000000000
0000000000000000
0000000000000000
0000000000000000
0000000000000000
0000000000000000
0000000000000000
0000000000000000
0000000000000000
0000000000000000
0000000000000000
0000000000000000
0000000000000000
0000000000000000
0000000000000000
0000000000000000
0000000000000000
0000000000000000
0000000000000000
0000000000000000
0000000000000000
0000000000000000
0000000000000000
0000000000000000
0000000000000000
0000000000000000
0000000000000000
0000000000000000
0000000000000000
0000000000000000
0000000000000000
0000000000000000
0000000000000000
0000000000000000
0000000000000000
ENDCHAR

STARTCHAR kor_A2AA
ENCODING 41642
SWIDTH 1024 0
DWIDTH 64 0
BBX 64 64 0 -6
BITMAP
0000000000000000
0000000000000000
0000000000000000
00000003F0000000
0000000FFC000000
0000001FFE000000
0000001FFE000000
0000003E1F000000
0000003C0F000000
0000003C0F000000
0000003C0F000000
0000003E1F000000
0000001FFE000000
0000001FFE000000
0000000FFC000000
00000003F0000000
0000000000000000
0000000000000000
0000000000000000
0000000000000000
0000000000000000
0000000000000000
0000000000000000
0000000000000000
0000000000000000
0000000000000000
0000000000000000
0000000000000000
0000000000000000
0000000000000000
0000000000000000
0000000000000000
0000000000000000
0000000000000000
0000000000000000
0000000000000000
0000000000000000
0000000000000000
0000000000000000
0000000000000000
0000000000000000
0000000000000000
0000000000000000
0000000000000000
0000000000000000
0000000000000000
0000000000000000
0000000000000000
0000000000000000
0000000000000000
0000000000000000
0000000000000000
0000000000000000
0000000000000000
0000000000000000
0000000000000000
0000000000000000
0000000000000000
0000000000000000
0000000000000000
0000000000000000
0000000000000000
0000000000000000
0000000000000000
ENDCHAR

STARTCHAR kor_A2AB
ENCODING 41643
SWIDTH 1024 0
DWIDTH 64 0
BBX 64 64 0 -6
BITMAP
0000000000000000
0000000000000000
0000000000000000
00000003C0000000
0000000FF0000000
0000000FF0000000
0000001FF8000000
0000001FF8000000
0000001FF8000000
0000001FF8000000
0000000FF0000000
0000000FF0000000
00000003C0000000
0000000000000000
0000000000000000
0000000000000000
0000000000000000
0000000000000000
0000000000000000
0000000000000000
0000000000000000
0000000000000000
0000000000000000
0000000000000000
0000000000000000
0000000000000000
0000000000000000
0000000000000000
0000000000000000
0000000000000000
0000000000000000
0000000000000000
0000000000000000
0000000000000000
0000000000000000
0000000000000000
0000000000000000
0000000000000000
0000000000000000
0000000000000000
0000000000000000
0000000000000000
0000000000000000
0000000000000000
0000000000000000
0000000000000000
0000000000000000
0000000000000000
0000000000000000
0000000000000000
0000000000000000
0000000000000000
0000000000000000
0000000000000000
0000000000000000
0000000000000000
0000000000000000
0000000000000000
0000000000000000
0000000000000000
0000000000000000
0000000000000000
0000000000000000
0000000000000000
ENDCHAR

STARTCHAR kor_A2AC
ENCODING 41644
SWIDTH 1024 0
DWIDTH 64 0
BBX 64 64 0 -6
BITMAP
0000000000000000
0000000000000000
0000000000000000
0000000000000000
0000000000000000
0000000000000000
0000000000000000
0000000000000000
0000000000000000
0000000000000000
0000000000000000
0000000000000000
0000000000000000
0000000000000000
0000000000000000
0000000000000000
0000000000000000
0000000000000000
0000000000000000
0000000000000000
0000000000000000
0000000000000000
0000000000000000
0000000000000000
0000000000000000
0000000000000000
0000000000000000
0000000000000000
0000000000000000
0000000000000000
0000000000000000
0000000000000000
0000000000000000
0000000000000000
0000000000000000
0000000000000000
0000000000000000
0000000000000000
0000000000000000
0000000000000000
0000000000000000
00000003E0000000
00000007E0000000
00000007C0000000
0000000F80000000
0000001FF8000000
0000001FFC000000
0000003FFE000000
0000003FFF000000
0000001FFF800000
000000007F800000
000000003F800000
000000003F800000
000000007F800000
0000007FFF800000
0000007FFF000000
000000FFFE000000
000000FFFE000000
0000003FFC000000
0000000000000000
0000000000000000
0000000000000000
0000000000000000
0000000000000000
ENDCHAR

STARTCHAR kor_A2AD
ENCODING 41645
SWIDTH 1024 0
DWIDTH 64 0
BBX 64 64 0 -6
BITMAP
0000000000000000
0000000000000000
0000000000000000
0000000000000000
0000000000000000
0000000000000000
0000000000000000
0000000000000000
0000000000000000
0000000000000000
0000000000000000
0000000000000000
0000000000000000
0000000000000000
0000000000000000
0000000000000000
0000000000000000
0000000000000000
0000000000000000
0000000000000000
0000000000000000
0000000000000000
0000000000000000
0000000000000000
0000000000000000
0000000000000000
0000000000000000
0000000000000000
0000000000000000
0000000000000000
0000000000000000
0000000000000000
0000000000000000
0000000000000000
0000000000000000
0000000000000000
0000000000000000
0000000000000000
0000000000000000
0000000000000000
0000000000000000
0000000000000000
00000007F8000000
0000001FF8000000
0000003FF8000000
0000007FE0000000
0000007F80000000
000000FE00000000
000000FE00000000
000001FC00000000
000001FC00000000
000001FC00000000
000001FC00000000
000001FC00000000
000001FE00000000
000001FFFC000000
000000FFFE000000
000000FFFE000000
0000007FFE000000
0000003FFC000000
0000000000000000
0000000000000000
0000000000000000
0000000000000000
ENDCHAR

STARTCHAR kor_A2AE
ENCODING 41646
SWIDTH 1024 0
DWIDTH 64 0
BBX 64 64 0 -6
BITMAP
0000000000000000
0000000000000000
0000000000000000
0000000FFC000000
0000000FFC000000
0000000FFC000000
0000000FFC000000
0000000FFC000000
0000000FFC000000
0000000FFC000000
0000000FFC000000
0000000FFC000000
0000000000000000
0000000000000000
0000000000000000
0000000000000000
00000003F0000000
00000003F0000000
00000003F0000000
00000003F0000000
00000003F0000000
00000003F0000000
00000003F0000000
00000003F0000000
00000003F0000000
00000007F8000000
00000007F8000000
00000007F8000000
00000007F8000000
00000007F8000000
00000007F8000000
00000007F8000000
00000007F8000000
00000007F8000000
00000007F8000000
00000007F8000000
00000007F8000000
00000007F8000000
00000007F8000000
00000007F8000000
0000000FFC000000
0000000FFC000000
0000000FFC000000
0000000FFC000000
0000000FFC000000
0000000FFC000000
0000000FFC000000
0000000FFC000000
0000000FFC000000
0000000FFC000000
0000000FFC000000
0000000000000000
0000000000000000
0000000000000000
0000000000000000
0000000000000000
0000000000000000
0000000000000000
0000000000000000
0000000000000000
0000000000000000
0000000000000000
0000000000000000
0000000000000000
ENDCHAR

STARTCHAR kor_A2AF
ENCODING 41647
SWIDTH 1024 0
DWIDTH 64 0
BBX 64 64 0 -6
BITMAP
0000000000000000
0000000000000000
0000000000000000
00000003FE000000
00000003FE000000
00000003FE000000
00000003FE000000
00000003FE000000
00000003FE000000
00000003FE000000
00000003FE000000
0000000000000000
0000000000000000
0000000000000000
0000000000000000
0000000000000000
00000000F8000000
00000000F8000000
00000000F8000000
00000000F8000000
00000000F8000000
00000000F8000000
00000000F8000000
00000000F8000000
00000000F8000000
0000000FF8000000
0000003FF8000000
0000007FF8000000
000000FFF8000000
000001FFF8000000
000001FE00000000
000003F800000000
000003F000000000
000003F000000000
000007E000000000
000007E000000000
000007E000000000
000007E000000000
000007E000000000
000007E000000000
000003F003F00000
000003F003F00000
000003F803F00000
000001FE07F00000
000001FFFFE00000
000000FFFFE00000
0000007FFFC00000
0000003FFF800000
0000000FFE000000
0000000000000000
0000000000000000
0000000000000000
0000000000000000
0000000000000000
0000000000000000
0000000000000000
0000000000000000
0000000000000000
0000000000000000
0000000000000000
0000000000000000
0000000000000000
0000000000000000
0000000000000000
ENDCHAR

STARTCHAR kor_A2B0
ENCODING 41648
SWIDTH 1024 0
DWIDTH 64 0
BBX 64 64 0 -6
BITMAP
0000000000000000
0000000000000000
0000000000000000
0000000000000000
0000000000000000
0000000000000000
0000000000000000
0000000000000000
0000000000000000
0000000000000000
0000000000000000
0000000000000000
0000000000000000
0000000000000000
0000000000000000
0000000000000000
0000000000000000
0000000000000000
0000000000000000
0000003FFC000000
0000003FFC000000
0000003FFC000000
0000001FF8000000
0000001FF8000000
0000000FF0000000
0000000FF0000000
00000007E0000000
00000007E0000000
00000003C0000000
00000003C0000000
0000000180000000
0000000180000000
0000000000000000
0000000000000000
0000000000000000
0000000000000000
0000000180000000
0000000180000000
00000003C0000000
00000003C0000000
00000007E0000000
00000007E0000000
0000000FF0000000
0000000FF0000000
0000001FF8000000
0000001FF8000000
0000003FFC000000
0000003FFC000000
0000003FFC000000
0000000000000000
0000000000000000
0000000000000000
0000000000000000
0000000000000000
0000000000000000
0000000000000000
0000000000000000
0000000000000000
0000000000000000
0000000000000000
0000000000000000
0000000000000000
0000000000000000
0000000000000000
ENDCHAR

STARTCHAR kor_A2B1
ENCODING 41649
SWIDTH 1024 0
DWIDTH 64 0
BBX 64 64 0 -6
BITMAP
0000000000000000
0000000000000000
0000000000000000
0000000000FF0000
0000000003FFC000
0000000007FFE000
000000000FFFF000
000000001FFFF000
000000001FE3F800
000000003F81F800
000000003F01F800
000000003F01F800
000000007E01F800
000000007E000000
000000007E000000
000000007C000000
00000000FC000000
00000000FC000000
00000000FC000000
00000000F8000000
0000000FF8000000
0000003FFE000000
0000007FFF000000
000000FFFF800000
000001FFFFC00000
000003FFFFE00000
000003F3F7E00000
000007E3F3F00000
000007E3F3F00000
000007C3F1F00000
000007C3E1F00000
000007C7E1F00000
000007C7E1F00000
000007E7E3F00000
000007E7E3F00000
000003F7E7E00000
000003FFDFE00000
000001FFFFC00000
000000FFFF800000
0000007FFF000000
0000001FFC000000
0000000FC0000000
0000001F80000000
0000001F80000000
0000001F80000000
0000001F80000000
0000001F00000000
0000003F00000000
0000003F00000000
000FC03F00000000
000FC07E00000000
000FC07E00000000
000FC0FE00000000
000FE3FC00000000
0007FFFC00000000
0007FFF800000000
0003FFF000000000
0001FFE000000000
00007F8000000000
0000000000000000
0000000000000000
0000000000000000
0000000000000000
0000000000000000
ENDCHAR

STARTCHAR kor_A2B2
ENCODING 41650
SWIDTH 1024 0
DWIDTH 64 0
BBX 64 64 0 -6
BITMAP
0000000000000000
0000000000000000
0000000000000000
0000000000000000
03FFFFFFFFFFFF80
03FFFFFFFFFFFF80
03FFFFFFFFFFFF80
03FFFFFFFFFFFF80
03FFFFFFFFFFFF80
01FFC00000003F80
00FFE00000003F80
007FF00000001F80
003FF80000001F80
001FFC0000001F80
000FFE0000001F80
0007FF8000000F80
0001FFC000000F80
0000FFE000000F80
00007FF000000780
00003FF800000780
00001FFC00000780
00000FFE00000780
000007FF80000380
000001FFC0000380
000000FFE0000380
0000007FF0000380
0000003FF8000000
0000001FFC000000
0000000FFE000000
00000007FE000000
00000003FC000000
00000007F8000000
0000000FF0000000
0000001FE0000000
0000003FC0000000
0000007F80000000
000000FF00000000
000001FE00000000
000003FC00000000
000007F800000000
00000FF000000780
00001FE000000780
00003FC000000780
00007F8000000780
0000FF0000000780
0001FE0000000780
0003FC0000000780
0007F80000000780
000FF00000000780
001FE00000000780
003FC00000000780
007FFFFFFFFFFF80
00FFFFFFFFFFFF80
01FFFFFFFFFFFF80
03FFFFFFFFFFFF80
03FFFFFFFFFFFF80
03FFFFFFFFFFFF80
03FFFFFFFFFFFF80
0000000000000000
0000000000000000
0000000000000000
0000000000000000
0000000000000000
0000000000000000
ENDCHAR

STARTCHAR kor_A2B3
ENCODING 41651
SWIDTH 1024 0
DWIDTH 64 0
BBX 64 64 0 -6
BITMAP
0000000000000000
0000000000000000
0000000000000000
0000000000000000
0000000000000000
001FFFFFFFFFFC00
001FFFFFFFFFFC00
001FFFFFFFFFFC00
001FFFFFFFFFFC00
001FFFFFFFFFFC00
00003FC001FE0000
00003FC001FE0000
00003FC001FE0000
00003FC001FE0000
00003FC001FE0000
00003FC001FE0000
00003FC001FE0000
00003FC001FE0000
00003FC001FE0000
00003FC001FE0000
00003FC001FE0000
00003FC001FE0000
00003FC001FE0000
00003FC001FE0000
00003FC001FE0000
00003FC001FE0000
00003FC001FE0000
00003FC001FE0000
00003FC001FE0000
00003FC001FE0000
00003FC001FE0000
00003FC001FE0000
00003FC001FE0000
00003FC001FE0000
00003FC001FE0000
00003FC001FE0000
00003FC001FE0000
00003FC001FE0000
00003FC001FE0000
00003FC001FE0000
00003FC001FE0000
00003FC001FE0000
00003FC001FE0000
00003FC001FE0000
00003FC001FE0000
00003FC001FE0000
00003FC001FE0000
00003FC001FE0000
00003FC001FE0000
00003FC001FE0000
00003FC001FE0000
00003FC001FE0000
0000000000000000
0000000000000000
0000000000000000
0000000000000000
0000000000000000
0000000000000000
0000000000000000
0000000000000000
0000000000000000
0000000000000000
0000000000000000
0000000000000000
ENDCHAR

STARTCHAR kor_A2B4
ENCODING 41652
SWIDTH 1024 0
DWIDTH 64 0
BBX 64 64 0 -6
BITMAP
0000000000000000
0000000000000000
0000000000000000
0000000000000000
0000000000000000
0060000000000600
00F0000000000F00
01F8000000001F80
01FC000000003F80
00FE000000007F00
007F00000000FE00
003F801FF801FC00
001FC0FFFF03F800
000FE3FFFFC7F000
0007FFFFFFFFE000
0003FFFFFFFFC000
0001FFF00FFF8000
0000FF8001FF0000
0000FE00007F0000
0001FC00003F8000
0001F800001F8000
0003F000000FC000
0003E0000007C000
0007E0000007E000
0007C0000003E000
0007C0000003E000
000FC0000003F000
000F80000001F000
000F80000001F000
000F80000001F000
000F80000001F000
000F80000001F000
000F80000001F000
000F80000001F000
000F80000001F000
000FC0000003F000
0007C0000003E000
0007C0000003E000
0007E0000007E000
0003E0000007C000
0003F000000FC000
0001F800001F8000
0001FC00003F8000
0000FE00007F0000
0000FF8001FF0000
0001FFF00FFF8000
0003FFFFFFFFC000
0007FFFFFFFFE000
000FE3FFFFC7F000
001FC0FFFF03F800
003F801FF801FC00
007F00000000FE00
00FE000000007F00
01FC000000003F80
01F8000000001F80
00F0000000000F00
0060000000000600
0000000000000000
0000000000000000
0000000000000000
0000000000000000
0000000000000000
0000000000000000
0000000000000000
ENDCHAR

STARTCHAR kor_A2B5
ENCODING 41653
SWIDTH 1024 0
DWIDTH 64 0
BBX 64 64 0 -6
BITMAP
0000000000000000
0000000000000000
0000000000000000
0000000FFFFFFF80
0000000FFFFFFF80
007C000FFFFFFF80
01FF000FFFFFFF80
03FF800FFFFFFF80
07FFC00FFFFFFF80
07FFC00FE0000000
0FC7E00FE0000000
0F83E00FE0000000
0F83E00FE0000000
0FC7E00FE0000000
07FFC00FE0000000
07FFC00FE0000000
03FF800FE0000000
01FF000FE0000000
007C000FE0000000
0000000FE0000000
0000000FE0000000
0000000FE0000000
0000000FE0000000
0000000FFFFFE000
0000000FFFFFE000
0000000FFFFFE000
0000000FFFFFE000
0000000FFFFFE000
0000000FFFFFE000
0000000FE0000000
0000000FE0000000
0000000FE0000000
0000000FE0000000
0000000FE0000000
0000000FE0000000
0000000FE0000000
0000000FE0000000
0000000FE0000000
0000000FE0000000
0000000FE0000000
0000000FE0000000
0000000FE0000000
0000000FE0000000
0000000FE0000000
0000000FE0000000
0000000FE0000000
0000000FE0000000
0000000FE0000000
0000000FE0000000
0000000000000000
0000000000000000
0000000000000000
0000000000000000
0000000000000000
0000000000000000
0000000000000000
0000000000000000
0000000000000000
0000000000000000
0000000000000000
0000000000000000
0000000000000000
0000000000000000
0000000000000000
ENDCHAR

STARTCHAR kor_A2B6
ENCODING 41654
SWIDTH 1024 0
DWIDTH 64 0
BBX 64 64 0 -6
BITMAP
0000000000000000
0000000000000000
000FC00000300000
003FF00000780000
007FF80000FC0000
00FFFC0000FC0000
01FCFE0001F80000
01F03E0003F00000
03F03F0007E00000
03E01F0007E00000
03E01F000FC00000
07E01F801F800000
07C00F803F000000
07C00F807F000000
07C00F807E000000
07C00F80FC000000
07C00F81F8000000
07C00F83F8000000
07C00F83F0000000
07C00F87E0000000
07C00F8FC0000000
07C00F9F80000000
07E01F9F80000000
03E01F3F00000000
03E01F7E00000000
03F03FFC00000000
01F03FFC00000000
01FCFFF800000000
00FFFFF000000000
007FFFE000000000
003FFFEFC0007E00
000FCFFFF001FF80
00001FFFF803FFC0
00003FFFFC07FFE0
00007FFCFE0FE7F0
0000FFF03E0F81F0
0000FFF03F1F81F8
0001FBE01F1F00F8
0003F3E01F1F00F8
0007F7E01FBF00FC
0007E7C00FBE007C
000FC7C00FBE007C
001F87C00FBE007C
003F87C00FBE007C
003F07C00FBE007C
007E07C00FBE007C
00FC07C00FBE007C
01F807C00FBE007C
03F807C00FBE007C
03F007E01FBF00FC
07E003E01F1F00F8
0FC003E01F1F00F8
1FC003F03F1F81F8
1F8001F03E0F81F0
3F0001FCFE0FE7F0
7E0000FFFC07FFE0
7E00007FF803FFC0
3C00003FF001FF80
1800000FC0007E00
0000000000000000
0000000000000000
0000000000000000
0000000000000000
0000000000000000
ENDCHAR

STARTCHAR kor_A2B7
ENCODING 41655
SWIDTH 1024 0
DWIDTH 64 0
BBX 64 64 0 -6
BITMAP
0000000000000000
0000000000000000
0000000000000000
0000000000000000
0000000000000000
0000000000003000
000000000000F000
000000000001F000
000000000007F000
00000000001FF000
00000000003FF000
0000000000FFF000
0000000001FEF000
0000000007FCF000
000000000FF0F000
000000003FC0F000
000000007F80F000
00000001FE00F000
00000007FC00F000
0000000FF000F000
0000003FE000F000
0000007F8000F000
000001FE0000F000
000003FC0000F000
00000FF00000F000
00001FE00000F000
00007F800000F000
0001FF000000F000
0003FC000000F000
000FF0000000F000
001FE0000000F000
001FE0000000F000
000FF0000000F000
0003FC000000F000
0001FF000000F000
00007F800000F000
00001FE00000F000
00000FF00000F000
000003FC0000F000
000001FE0000F000
0000007F8000F000
0000003FE000F000
0000000FF000F000
00000007FC00F000
00000001FE00F000
000000007F80F000
000000003FC0F000
000000000FF0F000
0000000007FCF000
0000000001FEF000
0000000000FFF000
00000000003FF000
00000000001FF000
000000000007F000
000000000001F000
000000000000F000
0000000000003000
0000000000000000
0000000000000000
0000000000000000
0000000000000000
0000000000000000
0000000000000000
0000000000000000
ENDCHAR

STARTCHAR kor_A2B8
ENCODING 41656
SWIDTH 1024 0
DWIDTH 64 0
BBX 64 64 0 -6
BITMAP
0000000000000000
0000000000000000
0000000000000000
0000000000000000
0000000000000000
0000000000003000
000000000000F000
000000000001F000
000000000007F000
00000000001FF000
00000000003FF000
0000000000FFF000
0000000001FFF000
0000000007FFF000
000000000FFFF000
000000003FFFF000
000000007FFFF000
00000001FFFFF000
00000007FFFFF000
0000000FFFFFF000
0000003FFFFFF000
0000007FFFFFF000
000001FFFFFFF000
000003FFFFFFF000
00000FFFFFFFF000
00001FFFFFFFF000
00007FFFFFFFF000
0001FFFFFFFFF000
0003FFFFFFFFF000
000FFFFFFFFFF000
001FFFFFFFFFF000
001FFFFFFFFFF000
000FFFFFFFFFF000
0003FFFFFFFFF000
0001FFFFFFFFF000
00007FFFFFFFF000
00001FFFFFFFF000
00000FFFFFFFF000
000003FFFFFFF000
000001FFFFFFF000
0000007FFFFFF000
0000003FFFFFF000
0000000FFFFFF000
00000007FFFFF000
00000001FFFFF000
000000007FFFF000
000000003FFFF000
000000000FFFF000
0000000007FFF000
0000000001FFF000
0000000000FFF000
00000000003FF000
00000000001FF000
000000000007F000
000000000001F000
000000000000F000
0000000000003000
0000000000000000
0000000000000000
0000000000000000
0000000000000000
0000000000000000
0000000000000000
0000000000000000
ENDCHAR

STARTCHAR kor_A2B9
ENCODING 41657
SWIDTH 1024 0
DWIDTH 64 0
BBX 64 64 0 -6
BITMAP
0000000000000000
0000000000000000
0000000000000000
0000000000000000
0000000000000000
000C000000000000
000F000000000000
000F800000000000
000FE00000000000
000FF80000000000
000FFC0000000000
000FFF0000000000
000F7F8000000000
000F3FE000000000
000F0FF000000000
000F03FC00000000
000F01FE00000000
000F007F80000000
000F003FE0000000
000F000FF0000000
000F0007FC000000
000F0001FE000000
000F00007F800000
000F00003FC00000
000F00000FF00000
000F000007F80000
000F000001FE0000
000F000000FF8000
000F0000003FC000
000F0000000FF000
000F00000007F800
000F00000007F800
000F0000000FF000
000F0000003FC000
000F000000FF8000
000F000001FE0000
000F000007F80000
000F00000FF00000
000F00003FC00000
000F00007F800000
000F0001FE000000
000F0007FC000000
000F000FF0000000
000F003FE0000000
000F007F80000000
000F01FE00000000
000F03FC00000000
000F0FF000000000
000F3FE000000000
000F7F8000000000
000FFF0000000000
000FFC0000000000
000FF80000000000
000FE00000000000
000F800000000000
000F000000000000
000C000000000000
0000000000000000
0000000000000000
0000000000000000
0000000000000000
0000000000000000
0000000000000000
0000000000000000
ENDCHAR

STARTCHAR kor_A2BA
ENCODING 41658
SWIDTH 1024 0
DWIDTH 64 0
BBX 64 64 0 -6
BITMAP
0000000000000000
0000000000000000
0000000000000000
0000000000000000
0000000000000000
000C000000000000
000F000000000000
000F800000000000
000FE00000000000
000FF80000000000
000FFC0000000000
000FFF0000000000
000FFF8000000000
000FFFE000000000
000FFFF000000000
000FFFFC00000000
000FFFFE00000000
000FFFFF80000000
000FFFFFE0000000
000FFFFFF0000000
000FFFFFFC000000
000FFFFFFE000000
000FFFFFFF800000
000FFFFFFFC00000
000FFFFFFFF00000
000FFFFFFFF80000
000FFFFFFFFE0000
000FFFFFFFFF8000
000FFFFFFFFFC000
000FFFFFFFFFF000
000FFFFFFFFFF800
000FFFFFFFFFF800
000FFFFFFFFFF000
000FFFFFFFFFC000
000FFFFFFFFF8000
000FFFFFFFFE0000
000FFFFFFFF80000
000FFFFFFFF00000
000FFFFFFFC00000
000FFFFFFF800000
000FFFFFFE000000
000FFFFFFC000000
000FFFFFF0000000
000FFFFFE0000000
000FFFFF80000000
000FFFFE00000000
000FFFFC00000000
000FFFF000000000
000FFFE000000000
000FFF8000000000
000FFF0000000000
000FFC0000000000
000FF80000000000
000FE00000000000
000F800000000000
000F000000000000
000C000000000000
0000000000000000
0000000000000000
0000000000000000
0000000000000000
0000000000000000
0000000000000000
0000000000000000
ENDCHAR

STARTCHAR kor_A2BB
ENCODING 41659
SWIDTH 1024 0
DWIDTH 64 0
BBX 64 64 0 -6
BITMAP
0000000000000000
0000000000000000
0000000000000000
0000000180000000
00000003C0000000
00000007E0000000
00000007E0000000
0000000FF0000000
0000001FF8000000
0000003FFC000000
0000003FFC000000
0000007FFE000000
000000FE7F000000
000001FC3F800000
000003F81FC00000
000003F00FC00000
000007F00FE00000
00000FE007F00000
00001FC003F80000
00001F8001F80000
00003F8001FC0000
00007F0000FE0000
0000FE00007F0000
0000FC00003F0000
0001FC00003F8000
0003F800001FC000
0003F000000FC000
0007F000000FE000
000FE0000007F000
000FC0000003F000
001FC0000003F800
001F80000001F800
001F80000001F800
003F80000001FC00
003F00000000FC00
003F00000000FC00
003F00000000FC00
003F00000000FC00
003F00000000FC00
003F00000000FC00
001F800E7001F800
001F801FF801F800
001FC03FFC03F800
000FF0FFFF0FF000
000FFFFFFFFFF000
0007FFFFFFFFE000
0003FFFFFFFFC000
0001FFFFFFFF8000
00003FFFFFFC0000
0000003FFC000000
0000003E7C000000
0000007E7E000000
0000007E7E000000
000000FC3F000000
000000FFFF000000
000001FFFF800000
000003FFFFC00000
000003FFFFC00000
000003FFFFC00000
0000000000000000
0000000000000000
0000000000000000
0000000000000000
0000000000000000
ENDCHAR

STARTCHAR kor_A2BC
ENCODING 41660
SWIDTH 1024 0
DWIDTH 64 0
BBX 64 64 0 -6
BITMAP
0000000000000000
0000000000000000
0000000000000000
0000000180000000
00000003C0000000
00000007E0000000
00000007E0000000
0000000FF0000000
0000001FF8000000
0000003FFC000000
0000003FFC000000
0000007FFE000000
000000FFFF000000
000001FFFF800000
000003FFFFC00000
000003FFFFC00000
000007FFFFE00000
00000FFFFFF00000
00001FFFFFF80000
00001FFFFFF80000
00003FFFFFFC0000
00007FFFFFFE0000
0000FFFFFFFF0000
0000FFFFFFFF0000
0001FFFFFFFF8000
0003FFFFFFFFC000
0003FFFFFFFFC000
0007FFFFFFFFE000
000FFFFFFFFFF000
000FFFFFFFFFF000
001FFFFFFFFFF800
001FFFFFFFFFF800
001FFFFFFFFFF800
003FFFFFFFFFFC00
003FFFFFFFFFFC00
003FFFFFFFFFFC00
003FFFFFFFFFFC00
003FFFFFFFFFFC00
003FFFFFFFFFFC00
003FFFFFFFFFFC00
001FFFFFFFFFF800
001FFFFFFFFFF800
001FFFFFFFFFF800
000FFFFFFFFFF000
000FFFFFFFFFF000
0007FFFFFFFFE000
0003FFFFFFFFC000
0001FFFFFFFF8000
00003FDFFBFC0000
0000001FF8000000
0000003FFC000000
0000003FFC000000
0000007FFE000000
000000FFFF000000
000000FFFF000000
000001FFFF800000
000003FFFFC00000
000003FFFFC00000
000003FFFFC00000
0000000000000000
0000000000000000
0000000000000000
0000000000000000
0000000000000000
ENDCHAR

STARTCHAR kor_A2BD
ENCODING 41661
SWIDTH 1024 0
DWIDTH 64 0
BBX 64 64 0 -6
BITMAP
0000000000000000
0000000000000000
0000000000000000
0000FE00007F0000
0007FFC003FFE000
001FFFF00FFFF800
003FFFF81FFFFC00
007FFFFC3FFFFE00
00FFFFFE7FFFFF00
00FF83FE7FC1FF00
01FE00FFFF007F80
01FC007FFE003F80
01F8003FFC001F80
03F8001FF8001FC0
03F0001FF8000FC0
03F0000FF0000FC0
03F0000FF0000FC0
03F0000FF0000FC0
03F00007E0000FC0
03F80007E0001FC0
03F80003C0001FC0
01F8000000001F80
01F8000000001F80
01FC000000003F80
01FC000000003F80
00FC000000003F00
00FE000000007F00
00FE000000007F00
007F00000000FE00
007F00000000FE00
003F80000001FC00
003F80000001FC00
001FC0000003F800
001FE0000007F800
000FE0000007F000
0007F000000FE000
0007F800001FE000
0003F800001FC000
0003FC00003FC000
0001FE00007F8000
0000FF0000FF0000
0000FF0000FF0000
00007F8001FE0000
00003FC003FC0000
00001FE007F80000
00001FF00FF80000
00000FF00FF00000
000007F81FE00000
000003FC3FC00000
000001FE7F800000
000001FFFF800000
000000FFFF000000
0000007FFE000000
0000003FFC000000
0000001FF8000000
0000000FF0000000
00000007E0000000
00000003C0000000
0000000180000000
0000000000000000
0000000000000000
0000000000000000
0000000000000000
0000000000000000
ENDCHAR

STARTCHAR kor_A2BE
ENCODING 41662
SWIDTH 1024 0
DWIDTH 64 0
BBX 64 64 0 -6
BITMAP
0000000000000000
0000000000000000
0000000000000000
0000FE00007F0000
0007FFC003FFE000
001FFFF00FFFF800
003FFFF81FFFFC00
007FFFFC3FFFFE00
00FFFFFE7FFFFF00
00FFFFFE7FFFFF00
01FFFFFFFFFFFF80
01FFFFFFFFFFFF80
01FFFFFFFFFFFF80
03FFFFFFFFFFFFC0
03FFFFFFFFFFFFC0
03FFFFFFFFFFFFC0
03FFFFFFFFFFFFC0
03FFFFFFFFFFFFC0
03FFFFFFFFFFFFC0
03FFFFFFFFFFFFC0
03FFFFFFFFFFFFC0
01FFFFFFFFFFFF80
01FFFFFFFFFFFF80
01FFFFFFFFFFFF80
01FFFFFFFFFFFF80
00FFFFFFFFFFFF00
00FFFFFFFFFFFF00
00FFFFFFFFFFFF00
007FFFFFFFFFFE00
007FFFFFFFFFFE00
003FFFFFFFFFFC00
003FFFFFFFFFFC00
001FFFFFFFFFF800
001FFFFFFFFFF800
000FFFFFFFFFF000
0007FFFFFFFFE000
0007FFFFFFFFE000
0003FFFFFFFFC000
0003FFFFFFFFC000
0001FFFFFFFF8000
0000FFFFFFFF0000
0000FFFFFFFF0000
00007FFFFFFE0000
00003FFFFFFC0000
00001FFFFFF80000
00001FFFFFF80000
00000FFFFFF00000
000007FFFFE00000
000003FFFFC00000
000001FFFF800000
000001FFFF800000
000000FFFF000000
0000007FFE000000
0000003FFC000000
0000001FF8000000
0000000FF0000000
00000007E0000000
00000003C0000000
0000000180000000
0000000000000000
0000000000000000
0000000000000000
0000000000000000
0000000000000000
ENDCHAR

STARTCHAR kor_A2BF
ENCODING 41663
SWIDTH 1024 0
DWIDTH 64 0
BBX 64 64 0 -6
BITMAP
0000000000000000
0000000000000000
0000000000000000
00000007F0000000
0000003FFE000000
000000FFFF800000
000001FFFFC00000
000003FFFFE00000
000007FFFFF00000
000007F80FF00000
00000FE003F80000
00000FC001F80000
00000FC001F80000
00001F8000FC0000
00001F8000FC0000
00001F8000FC0000
00001F8000FC0000
00001F8000FC0000
00001FC001FC0000
00000FC001F80000
00000FE003F80000
00000FE003F80000
000007F007F00000
000007F80FF00000
0001F3FC1FE7C000
000FFFFE3FFFF800
003FFFFE3FFFFE00
007FFFFF7FFFFF00
00FFFFFF7FFFFF80
01FFFFFF7FFFFFC0
01FE0FFF7FF83FC0
03F801FE3FC00FE0
03F000F80F8007E0
03F00000000007E0
07E00000000003F0
07E00000000003F0
07E00000000003F0
07E00000000003F0
07E0001E3C0003F0
07E0003F7E0003F0
07E0003F7E0003F0
03F0007F7F0007E0
03F000FF7F8007E0
03F803FF7FE00FE0
01FE1FFF7FFC3FC0
01FFFFFF7FFFFFC0
00FFFFFF7FFFFF80
007FFFDF7DFFFF00
003FFFBF7EFFFE00
000FFE3F7E3FF800
0001F83E3E0FC000
0000007E3F000000
000001FE3FC00000
00000FFFFFF80000
00000FFFFFF80000
00000FFFFFF80000
00000FFFFFF80000
00000FFFFFF80000
00000FFFFFF80000
0000000000000000
0000000000000000
0000000000000000
0000000000000000
0000000000000000
ENDCHAR

STARTCHAR kor_A2C0
ENCODING 41664
SWIDTH 1024 0
DWIDTH 64 0
BBX 64 64 0 -6
BITMAP
0000000000000000
0000000000000000
0000000000000000
00000007F0000000
0000003FFE000000
000000FFFF800000
000001FFFFC00000
000003FFFFE00000
000007FFFFF00000
000007FFFFF00000
00000FFFFFF80000
00000FFFFFF80000
00000FFFFFF80000
00001FFFFFFC0000
00001FFFFFFC0000
00001FFFFFFC0000
00001FFFFFFC0000
00001FFFFFFC0000
00001FFFFFFC0000
00000FFFFFF80000
00000FFFFFF80000
00000FFFFFF80000
000007FFFFF00000
000007FFFFF00000
0001F3FFFFE7C000
000FFFFFFFFFF800
003FFFFFFFFFFE00
007FFFFFFFFFFF00
00FFFFFFFFFFFF80
01FFFFFFFFFFFFC0
01FFFFFFFFFFFFC0
03FFFFFFFFFFFFE0
03FFFFFFFFFFFFE0
03FFFFFFFFFFFFE0
07FFFFFFFFFFFFF0
07FFFFFFFFFFFFF0
07FFFFFFFFFFFFF0
07FFFFFFFFFFFFF0
07FFFFFFFFFFFFF0
07FFFFFFFFFFFFF0
07FFFFFFFFFFFFF0
03FFFFFFFFFFFFE0
03FFFFFFFFFFFFE0
03FFFFFFFFFFFFE0
01FFFFFFFFFFFFC0
01FFFFFFFFFFFFC0
00FFFFEFFBFFFF80
007FFFDFFDFFFF00
003FFF9FFCFFFE00
000FFE1FFC3FF800
0001F83FFE0FC000
0000003FFE000000
000000FFFF800000
000007FFFFF00000
000007FFFFF00000
000007FFFFF00000
000007FFFFF00000
000007FFFFF00000
000007FFFFF00000
0000000000000000
0000000000000000
0000000000000000
0000000000000000
0000000000000000
ENDCHAR

STARTCHAR kor_A2C1
ENCODING 41665
SWIDTH 1024 0
DWIDTH 64 0
BBX 64 64 0 -6
BITMAP
0000000000000000
0000000000000000
0000000000000000
0000000000000000
0000000000000000
0000001FFC000000
000001FFFFC00000
00000FFFFFF80000
00003FFFFFFE0000
0000FFF007FF8000
0001FF00007FC000
0003F800000FE000
0007E0000003F000
000FC0000001F800
001F80000000FC00
003F000000007E00
003E000000003E00
007C000000001F00
0078000000000F00
00F8000000000F80
00F0000000000780
00F0000000000780
01F00007F00007C0
01E0001FFC0003C0
01E0003FFE0003C0
01E0007FFF0003C0
03E000FFFF8003E0
03C000FFFF8001E0
03C001FFFFC001E0
03C001FFFFC001E0
03C001FFFFC001E0
03C001FFFFC001E0
03C001FFFFC001E0
03C001FFFFC001E0
03C001FFFFC001E0
03C000FFFF8001E0
03E000FFFF8003E0
01E0007FFF0003C0
01E0003FFE0003C0
01E0001FFC0003C0
01F00007F00007C0
00F0000000000780
00F0000000000780
00F8000000000F80
0078000000000F00
007C000000001F00
003E000000003E00
003F000000007E00
001F80000000FC00
000FC0000001F800
0007E0000003F000
0003F800000FE000
0001FF00007FC000
0000FFF007FF8000
00003FFFFFFE0000
00000FFFFFF80000
000001FFFFC00000
0000001FFC000000
0000000000000000
0000000000000000
0000000000000000
0000000000000000
0000000000000000
0000000000000000
ENDCHAR

STARTCHAR kor_A2C2
ENCODING 41666
SWIDTH 1024 0
DWIDTH 64 0
BBX 64 64 0 -6
BITMAP
0000000000000000
0000000000000000
00000000C0000000
00000001E0000000
00000003F0000000
00000007F8000000
0000000FFC000000
0000001FFE000000
0000003F3F000000
0000007E1F800000
000000FC0FC00000
000001F8C7E00000
000003F1E3F00000
000007E3F1F80000
00000FC7F8FC0000
00001F8FFC7E0000
00003F1FFE3F0000
00007E3FFF1F8000
0000FC7FFF8FC000
0001F8FFFFC7E000
0003F1FFFFE3F000
0007E3FFFFF1F800
000FC7FFFFF8FC00
001F8FFFFFFC7E00
003F1FFFFFFE3F00
007E3FFFFFFF1F80
00FC7FFFFFFF8FC0
01F8FFFFFFFFC7E0
03F1FFFFFFFFE3F0
07E3FFFFFFFFF1F8
0FC7FFFFFFFFF8FC
0FC7FFFFFFFFF8FC
07E3FFFFFFFFF1F8
03F1FFFFFFFFE3F0
01F8FFFFFFFFC7E0
00FC7FFFFFFF8FC0
007E3FFFFFFF1F80
003F1FFFFFFE3F00
001F8FFFFFFC7E00
000FC7FFFFF8FC00
0007E3FFFFF1F800
0003F1FFFFE3F000
0001F8FFFFC7E000
0000FC7FFF8FC000
00007E3FFF1F8000
00003F1FFE3F0000
00001F8FFC7E0000
00000FC7F8FC0000
000007E3F1F80000
000003F1E3F00000
000001F8C7E00000
000000FC0FC00000
0000007E1F800000
0000003F3F000000
0000001FFE000000
0000000FFC000000
00000007F8000000
00000003F0000000
00000001E0000000
00000000C0000000
0000000000000000
0000000000000000
0000000000000000
0000000000000000
ENDCHAR

STARTCHAR kor_A2C3
ENCODING 41667
SWIDTH 1024 0
DWIDTH 64 0
BBX 64 64 0 -6
BITMAP
0000000000000000
0000000000000000
0000000000000000
0000000000000000
0000000000000000
0000000000000000
01FFFFFFFFFFFFC0
01FFFFFFFFFFFFC0
01FFFFFFFFFFFFC0
01FFFFFFFFFFFFC0
01E00000000007C0
01E00000000007C0
01E00000000007C0
01E00000000007C0
01E00000000007C0
01E00000000007C0
01E00000000007C0
01E03FFFFFFC07C0
01E03FFFFFFC07C0
01E03FFFFFFC07C0
01E03FFFFFFC07C0
01E03FFFFFFC07C0
01E03FFFFFFC07C0
01E03FFFFFFC07C0
01E03FFFFFFC07C0
01E03FFFFFFC07C0
01E03FFFFFFC07C0
01E03FFFFFFC07C0
01E03FFFFFFC07C0
01E03FFFFFFC07C0
01E03FFFFFFC07C0
01E03FFFFFFC07C0
01E03FFFFFFC07C0
01E03FFFFFFC07C0
01E03FFFFFFC07C0
01E03FFFFFFC07C0
01E03FFFFFFC07C0
01E03FFFFFFC07C0
01E03FFFFFFC07C0
01E03FFFFFFC07C0
01E03FFFFFFC07C0
01E03FFFFFFC07C0
01E03FFFFFFC07C0
01E03FFFFFFC07C0
01E03FFFFFFC07C0
01E00000000007C0
01E00000000007C0
01E00000000007C0
01E00000000007C0
01E00000000007C0
01E00000000007C0
01E00000000007C0
01E00000000007C0
01FFFFFFFFFFFFC0
01FFFFFFFFFFFFC0
01FFFFFFFFFFFFC0
01FFFFFFFFFFFFC0
0000000000000000
0000000000000000
0000000000000000
0000000000000000
0000000000000000
0000000000000000
0000000000000000
ENDCHAR

STARTCHAR kor_A2C4
ENCODING 41668
SWIDTH 1024 0
DWIDTH 64 0
BBX 64 64 0 -6
BITMAP
0000000000000000
0000000000000000
0000000000000000
0000000000000000
0000000000000000
0000001FFC000000
000001FFFFC00000
00000FFFFFF80000
00003FFFFFFE0000
0000FFFF87FF8000
0001FFFF807FC000
0003FFFF800FE000
0007FFFF8003F000
000FFFFF8001F800
001FFFFF8000FC00
003FFFFF80007E00
003FFFFF80003E00
007FFFFF80001F00
007FFFFF80000F00
00FFFFFF80000F80
00FFFFFF80000780
00FFFFFF80000780
01FFFFFF800007C0
01FFFFFF800003C0
01FFFFFF800003C0
01FFFFFF800003C0
03FFFFFF800003E0
03FFFFFF800001E0
03FFFFFF800001E0
03FFFFFF800001E0
03FFFFFF800001E0
03FFFFFF800001E0
03FFFFFF800001E0
03FFFFFF800001E0
03FFFFFF800001E0
03FFFFFF800001E0
03FFFFFF800003E0
01FFFFFF800003C0
01FFFFFF800003C0
01FFFFFF800003C0
01FFFFFF800007C0
00FFFFFF80000780
00FFFFFF80000780
00FFFFFF80000F80
007FFFFF80000F00
007FFFFF80001F00
003FFFFF80003E00
003FFFFF80007E00
001FFFFF8000FC00
000FFFFF8001F800
0007FFFF8003F000
0003FFFF800FE000
0001FFFF807FC000
0000FFFF87FF8000
00003FFFFFFE0000
00000FFFFFF80000
000001FFFFC00000
0000001FFC000000
0000000000000000
0000000000000000
0000000000000000
0000000000000000
0000000000000000
0000000000000000
ENDCHAR

STARTCHAR kor_A2C5
ENCODING 41669
SWIDTH 1024 0
DWIDTH 64 0
BBX 64 64 0 -6
BITMAP
0000000000000000
0000000000000000
0000000000000000
0000000000000000
0000000000000000
0000001FFC000000
000001FFFFC00000
00000FFFFFF80000
00003FFFFFFE0000
0000FFF0FFFF8000
0001FF00FFFFC000
0003F800FFFFE000
0007E000FFFFF000
000FC000FFFFF800
001F8000FFFFFC00
003F0000FFFFFE00
003E0000FFFFFE00
007C0000FFFFFF00
00780000FFFFFF00
00F80000FFFFFF80
00F00000FFFFFF80
00F00000FFFFFF80
01F00000FFFFFFC0
01E00000FFFFFFC0
01E00000FFFFFFC0
01E00000FFFFFFC0
03E00000FFFFFFE0
03C00000FFFFFFE0
03C00000FFFFFFE0
03C00000FFFFFFE0
03C00000FFFFFFE0
03C00000FFFFFFE0
03C00000FFFFFFE0
03C00000FFFFFFE0
03C00000FFFFFFE0
03C00000FFFFFFE0
03E00000FFFFFFE0
01E00000FFFFFFC0
01E00000FFFFFFC0
01E00000FFFFFFC0
01F00000FFFFFFC0
00F00000FFFFFF80
00F00000FFFFFF80
00F80000FFFFFF80
00780000FFFFFF00
007C0000FFFFFF00
003E0000FFFFFE00
003F0000FFFFFE00
001F8000FFFFFC00
000FC000FFFFF800
0007E000FFFFF000
0003F800FFFFE000
0001FF00FFFFC000
0000FFF0FFFF8000
00003FFFFFFE0000
00000FFFFFF80000
000001FFFFC00000
0000001FFC000000
0000000000000000
0000000000000000
0000000000000000
0000000000000000
0000000000000000
0000000000000000
ENDCHAR

STARTCHAR kor_A2C6
ENCODING 41670
SWIDTH 1024 0
DWIDTH 64 0
BBX 64 64 0 -6
BITMAP
0000000000000000
0000000000000000
0000000000000000
0000000000000000
0000000000000000
03FFFFFFFFFFFFC0
03FFFFFFFFFFFFC0
03FFFFFFFFFFFFC0
03FFFFFFFFFFFFC0
03C00000000003C0
03C380700E01C3C0
03C7C0F81F03E3C0
03C7C0F81F03E3C0
03C7C0F81F03E3C0
03C380700E01C3C0
03C00000000003C0
03C00000000003C0
03C00000000003C0
03C00000000003C0
03C00000000003C0
03C00000000003C0
03C00000000003C0
03DC0701C0701FC0
03FE0F83E0F83FC0
03FE0F83E0F83FC0
03FE0F83E0F83FC0
03DC0701C0701FC0
03C00000000003C0
03C00000000003C0
03C00000000003C0
03C00000000003C0
03C00000000003C0
03C00000000003C0
03C00000000003C0
03C380380700E3C0
03C7C07C0F81F3C0
03C7C07C0F81F3C0
03C7C07C0F81F3C0
03C380380700E3C0
03C00000000003C0
03C00000000003C0
03C00000000003C0
03C00000000003C0
03C00000000003C0
03C00000000003C0
03C00000000003C0
03DC0701C0701FC0
03FE0F83E0F83FC0
03FE0F83E0F83FC0
03FE0F83E0F83FC0
03DC0701C0701FC0
03C00000000003C0
03C00000000003C0
03FFFFFFFFFFFFC0
03FFFFFFFFFFFFC0
03FFFFFFFFFFFFC0
03FFFFFFFFFFFFC0
0000000000000000
0000000000000000
0000000000000000
0000000000000000
0000000000000000
0000000000000000
0000000000000000
ENDCHAR

STARTCHAR kor_A2C7
ENCODING 41671
SWIDTH 1024 0
DWIDTH 64 0
BBX 64 64 0 -6
BITMAP
0000000000000000
0000000000000000
0000000000000000
0000000000000000
0000000000000000
03FFFFFFFFFFFFC0
03FFFFFFFFFFFFC0
03FFFFFFFFFFFFC0
03FFFFFFFFFFFFC0
03C00000000003C0
03C00000000003C0
03C00000000003C0
03C00000000003C0
03C00000000003C0
03C00000000003C0
03C00000000003C0
03C00000000003C0
03FFFFFFFFFFFFC0
03FFFFFFFFFFFFC0
03FFFFFFFFFFFFC0
03FFFFFFFFFFFFC0
03C00000000003C0
03C00000000003C0
03C00000000003C0
03C00000000003C0
03C00000000003C0
03C00000000003C0
03C00000000003C0
03C00000000003C0
03FFFFFFFFFFFFC0
03FFFFFFFFFFFFC0
03FFFFFFFFFFFFC0
03FFFFFFFFFFFFC0
03C00000000003C0
03C00000000003C0
03C00000000003C0
03C00000000003C0
03C00000000003C0
03C00000000003C0
03C00000000003C0
03C00000000003C0
03FFFFFFFFFFFFC0
03FFFFFFFFFFFFC0
03FFFFFFFFFFFFC0
03FFFFFFFFFFFFC0
03C00000000003C0
03C00000000003C0
03C00000000003C0
03C00000000003C0
03C00000000003C0
03C00000000003C0
03C00000000003C0
03C00000000003C0
03FFFFFFFFFFFFC0
03FFFFFFFFFFFFC0
03FFFFFFFFFFFFC0
03FFFFFFFFFFFFC0
0000000000000000
0000000000000000
0000000000000000
0000000000000000
0000000000000000
0000000000000000
0000000000000000
ENDCHAR

STARTCHAR kor_A2C8
ENCODING 41672
SWIDTH 1024 0
DWIDTH 64 0
BBX 64 64 0 -6
BITMAP
0000000000000000
0000000000000000
0000000000000000
0000000000000000
0000000000000000
03FFFFFFFFFFFFC0
03FFFFFFFFFFFFC0
03FFFFFFFFFFFFC0
03FFFFFFFFFFFFC0
03C03C03C03C03C0
03C03C03C03C03C0
03C03C03C03C03C0
03C03C03C03C03C0
03C03C03C03C03C0
03C03C03C03C03C0
03C03C03C03C03C0
03C03C03C03C03C0
03C03C03C03C03C0
03C03C03C03C03C0
03C03C03C03C03C0
03C03C03C03C03C0
03C03C03C03C03C0
03C03C03C03C03C0
03C03C03C03C03C0
03C03C03C03C03C0
03C03C03C03C03C0
03C03C03C03C03C0
03C03C03C03C03C0
03C03C03C03C03C0
03C03C03C03C03C0
03C03C03C03C03C0
03C03C03C03C03C0
03C03C03C03C03C0
03C03C03C03C03C0
03C03C03C03C03C0
03C03C03C03C03C0
03C03C03C03C03C0
03C03C03C03C03C0
03C03C03C03C03C0
03C03C03C03C03C0
03C03C03C03C03C0
03C03C03C03C03C0
03C03C03C03C03C0
03C03C03C03C03C0
03C03C03C03C03C0
03C03C03C03C03C0
03C03C03C03C03C0
03C03C03C03C03C0
03C03C03C03C03C0
03C03C03C03C03C0
03C03C03C03C03C0
03C03C03C03C03C0
03C03C03C03C03C0
03FFFFFFFFFFFFC0
03FFFFFFFFFFFFC0
03FFFFFFFFFFFFC0
03FFFFFFFFFFFFC0
0000000000000000
0000000000000000
0000000000000000
0000000000000000
0000000000000000
0000000000000000
0000000000000000
ENDCHAR

STARTCHAR kor_A2C9
ENCODING 41673
SWIDTH 1024 0
DWIDTH 64 0
BBX 64 64 0 -6
BITMAP
0000000000000000
0000000000000000
0000000000000000
0000000000000000
0000000000000000
03FFFFFFFFFFFFC0
03FFFFFFFFFFFFC0
03FFFFFFFFFFFFC0
03FFFFFFFFFFFFC0
03C00007E0001FC0
03C0000FC0003FC0
03C0001F80007FC0
03C0003F0000FFC0
03C0007E0001FBC0
03C000FC0003F3C0
03C001F80007E3C0
03C003F0000FC3C0
03C007E0001F83C0
03C00FC0003F03C0
03C01F80007E03C0
03C03F0000FC03C0
03C07E0001F803C0
03C0FC0003F003C0
03C1F80007E003C0
03C3F0000FC003C0
03C7E0001F8003C0
03CFC0003F0003C0
03DF80007E0003C0
03FF0000FC0003C0
03FE0001F80007C0
03FC0003F0000FC0
03F80007E0001FC0
03F0000FC0003FC0
03E0001F80007FC0
03C0003F0000FFC0
03C0007E0001FBC0
03C000FC0003F3C0
03C001F80007E3C0
03C003F0000FC3C0
03C007E0001F83C0
03C00FC0003F03C0
03C01F80007E03C0
03C03F0000FC03C0
03C07E0001F803C0
03C0FC0003F003C0
03C1F80007E003C0
03C3F0000FC003C0
03C7E0001F8003C0
03CFC0003F0003C0
03DF80007E0003C0
03FF0000FC0003C0
03FE0001F80003C0
03FC0003F00003C0
03FFFFFFFFFFFFC0
03FFFFFFFFFFFFC0
03FFFFFFFFFFFFC0
03FFFFFFFFFFFFC0
0000000000000000
0000000000000000
0000000000000000
0000000000000000
0000000000000000
0000000000000000
0000000000000000
ENDCHAR

STARTCHAR kor_A2CA
ENCODING 41674
SWIDTH 1024 0
DWIDTH 64 0
BBX 64 64 0 -6
BITMAP
0000000000000000
0000000000000000
0000000000000000
0000000000000000
0000000000000000
03FFFFFFFFFFFFC0
03FFFFFFFFFFFFC0
03FFFFFFFFFFFFC0
03FFFFFFFFFFFFC0
03F80007E00003C0
03FC0003F00003C0
03FE0001F80003C0
03FF0000FC0003C0
03DF80007E0003C0
03CFC0003F0003C0
03C7E0001F8003C0
03C3F0000FC003C0
03C1F80007E003C0
03C0FC0003F003C0
03C07E0001F803C0
03C03F0000FC03C0
03C01F80007E03C0
03C00FC0003F03C0
03C007E0001F83C0
03C003F0000FC3C0
03C001F80007E3C0
03C000FC0003F3C0
03C0007E0001FBC0
03C0003F0000FFC0
03E0001F80007FC0
03F0000FC0003FC0
03F80007E0001FC0
03FC0003F0000FC0
03FE0001F80007C0
03FF0000FC0003C0
03DF80007E0003C0
03CFC0003F0003C0
03C7E0001F8003C0
03C3F0000FC003C0
03C1F80007E003C0
03C0FC0003F003C0
03C07E0001F803C0
03C03F0000FC03C0
03C01F80007E03C0
03C00FC0003F03C0
03C007E0001F83C0
03C003F0000FC3C0
03C001F80007E3C0
03C000FC0003F3C0
03C0007E0001FBC0
03C0003F0000FFC0
03C0001F80007FC0
03C0000FC0003FC0
03FFFFFFFFFFFFC0
03FFFFFFFFFFFFC0
03FFFFFFFFFFFFC0
03FFFFFFFFFFFFC0
0000000000000000
0000000000000000
0000000000000000
0000000000000000
0000000000000000
0000000000000000
0000000000000000
ENDCHAR

STARTCHAR kor_A2CB
ENCODING 41675
SWIDTH 1024 0
DWIDTH 64 0
BBX 64 64 0 -6
BITMAP
0000000000000000
0000000000000000
0000000000000000
0000000000000000
0000000000000000
03FFFFFFFFFFFFC0
03FFFFFFFFFFFFC0
03FFFFFFFFFFFFC0
03FFFFFFFFFFFFC0
03C03C03C03C03C0
03C03C03C03C03C0
03C03C03C03C03C0
03C03C03C03C03C0
03C03C03C03C03C0
03C03C03C03C03C0
03C03C03C03C03C0
03C03C03C03C03C0
03FFFFFFFFFFFFC0
03FFFFFFFFFFFFC0
03FFFFFFFFFFFFC0
03FFFFFFFFFFFFC0
03C03C03C03C03C0
03C03C03C03C03C0
03C03C03C03C03C0
03C03C03C03C03C0
03C03C03C03C03C0
03C03C03C03C03C0
03C03C03C03C03C0
03C03C03C03C03C0
03FFFFFFFFFFFFC0
03FFFFFFFFFFFFC0
03FFFFFFFFFFFFC0
03FFFFFFFFFFFFC0
03C03C03C03C03C0
03C03C03C03C03C0
03C03C03C03C03C0
03C03C03C03C03C0
03C03C03C03C03C0
03C03C03C03C03C0
03C03C03C03C03C0
03C03C03C03C03C0
03FFFFFFFFFFFFC0
03FFFFFFFFFFFFC0
03FFFFFFFFFFFFC0
03FFFFFFFFFFFFC0
03C03C03C03C03C0
03C03C03C03C03C0
03C03C03C03C03C0
03C03C03C03C03C0
03C03C03C03C03C0
03C03C03C03C03C0
03C03C03C03C03C0
03C03C03C03C03C0
03FFFFFFFFFFFFC0
03FFFFFFFFFFFFC0
03FFFFFFFFFFFFC0
03FFFFFFFFFFFFC0
0000000000000000
0000000000000000
0000000000000000
0000000000000000
0000000000000000
0000000000000000
0000000000000000
ENDCHAR

STARTCHAR kor_A2CC
ENCODING 41676
SWIDTH 1024 0
DWIDTH 64 0
BBX 64 64 0 -6
BITMAP
0000000000000000
0000000000000000
0000000000000000
0000000000000000
0000000000000000
03FFFFFFFFFFFFC0
03FFFFFFFFFFFFC0
03FFFFFFFFFFFFC0
03FFFFFFFFFFFFC0
03FC0007F0001FC0
03FE000FF8003FC0
03FF001FFC007FC0
03DF803F7E00FFC0
03CFC07E3F01FBC0
03C7E0FC1F83F3C0
03C3F1F80FC7E3C0
03C1FBF007EFC3C0
03C0FFE003FF83C0
03C07FC001FF03C0
03C03F8000FE03C0
03C03F8000FC03C0
03C07FC001FE03C0
03C0FFE003FF03C0
03C1FBF007FF83C0
03C3F1F80FCFC3C0
03C7E0FC1F87E3C0
03CFC07E3F03F3C0
03DF803F7E01FBC0
03FF001FFC00FFC0
03FE000FF8007FC0
03FC0007F0003FC0
03F80007F0001FC0
03FC000FF8003FC0
03FE001FFC007FC0
03FF003F7E00FFC0
03DF807E3F01FBC0
03CFC0FC1F83F3C0
03C7E1F80FC7E3C0
03C3F3F007EFC3C0
03C1FFE003FF83C0
03C0FFC001FF03C0
03C07F8000FE03C0
03C03F8000FE03C0
03C07FC001FF03C0
03C0FFE003FF83C0
03C1FBF007EFC3C0
03C3F1F80FC7E3C0
03C7E0FC1F83F3C0
03CFC07E3F01FBC0
03DF803F7E00FFC0
03FF001FFC007FC0
03FE000FF8003FC0
03FC0007F0001FC0
03FFFFFFFFFFFFC0
03FFFFFFFFFFFFC0
03FFFFFFFFFFFFC0
03FFFFFFFFFFFFC0
0000000000000000
0000000000000000
0000000000000000
0000000000000000
0000000000000000
0000000000000000
0000000000000000
ENDCHAR

STARTCHAR kor_A2CD
ENCODING 41677
SWIDTH 1024 0
DWIDTH 64 0
BBX 64 64 0 -6
BITMAP
0000000000000000
0000000000000000
0000000000000000
0000000018000000
0000003038000000
0000007078000000
0000007078180000
000000F0F8380000
000000F0F8780000
000001E1F0780000
000001E1F0F80000
000003E3F0F00000
000003E3E1F00000
000007E7E1F00000
000007E7E3F00000
000007C7E3F00000
00000FCFE7E00000
00000FCFE7E00000
00000FCFE7E00000
00001FCFE7E00000
00001FCFE7E00000
00001FCFE7E00000
00001FCFE7E00000
00001FCFF7E00000
00000FEFF7F00000
00000FE7F7F00000
00000FF7FFF00000
000007F7FBF80000
000007F3FBF80000
000007F3FFF80000
000007FBFFFC0000
000003F9FDFC0000
000003F9FDFC0000
00007FF9FDFC0000
0001FFF9FCFFC000
0007FBF9FCFFF000
001FE3F9FCFFFC00
003F87F9F9FCFE00
007F07F3F9F83F00
00FE07F3F9F81F80
01FC07E7F3F80FC0
01F807E7F3F00FC0
03F807C7E3F007E0
03F00FCFE7E007E0
03F00F8FC7E00FE0
03F00F8FC7C00FE0
03F80F0F87C01FE0
03FC0F0F83803FE0
03FF0F0F8380FFE0
01FFE7070187FFC0
01FFFE07007FFFC0
00FFFFFFFFFFFF80
007FFFFFFFFFFF00
003FFFFFFFFFFE00
001FFFFFFFFFFC00
0007FFFFFFFFF000
0001FFFFFFFF8000
00003FFFFFFC0000
000003FFFF800000
0000000000000000
0000000000000000
0000000000000000
0000000000000000
0000000000000000
ENDCHAR

STARTCHAR kor_A2CE
ENCODING 41678
SWIDTH 1024 0
DWIDTH 64 0
BBX 64 64 0 -6
BITMAP
0000000000000000
0000000000000000
0000000000000000
0000000000000000
0000000000000000
0000000000000000
0000000000000000
0000000000000000
0000000000000000
0000000000000000
000003FFFFC00000
00003FFFFFFE0000
0001FFFFFFFFC000
000FFE00007FF800
003FE0000003FE00
00FF000000007F80
01F87EFFFF7E0FC0
03E0FEFFFF7F03E0
07C1FEFFFF7F81F0
0781EEE0077780F0
0F01CEE007738078
0E01CEFFFF738038
0E01CEFFFF738038
1E01EE7FFE77803C
1C00EE000077001C
1C00EE1FF877001C
1C00FE7FFE7F001C
1F03FEFFFF7FC07C
1FFFFDF81FBFFFFC
0FFFFFE007FFFFF8
03FF7FC003FEFFE0
0000F78001EF0000
0001FF0000FF8000
0003EF0000F7C000
0007CE000073E000
000F8E000071F000
001F0E000070F800
001E0E0000707800
003C0E0000703C00
003C0E0000703C00
00380F0000F01C00
00780F0000F01E00
0078078001E01E00
007007C003E00E00
007003E007C00E00
00F001F81F800F00
01E000FFFF000780
01E0007FFE000780
01C0001FF8000380
01F0000000000F80
01FFFFFFFFFFFF80
00FFFFFFFFFFFF00
003FFFFFFFFFFC00
0000000000000000
0000000000000000
0000000000000000
0000000000000000
0000000000000000
0000000000000000
0000000000000000
0000000000000000
0000000000000000
0000000000000000
0000000000000000
ENDCHAR

STARTCHAR kor_A2CF
ENCODING 41679
SWIDTH 1024 0
DWIDTH 64 0
BBX 64 64 0 -6
BITMAP
0000000000000000
0000000000000000
0000000000000000
0000000000000000
0000000000000000
0000000000000000
0000000000000000
0000000000000000
0000000000000000
0000000000000000
000003FFFFC00000
00003FFFFFFE0000
0001FFFFFFFFC000
000FFFFFFFFFF800
003FFFFFFFFFFE00
00FFFFFFFFFFFF80
01FFFFFFFFFFFFC0
03FFFFFFFFFFFFE0
07FFFF8001FFFFF0
07FFEF8001F7FFF0
0FFFCF8001F3FFF8
0FFFCFC003F3FFF8
0FFFCFFFFFF3FFF8
1FFFEFFFFFF7FFFC
1FFFEFFFFFF7FFFC
1FFFEFFFFFF7FFFC
1FFFFFF81FFFFFFC
1FFFFFC003FFFFFC
1FFFFF8001FFFFFC
0FFFFF0000FFFFF8
03FF7E00007EFFE0
0000FC00003F0000
0001FC00003F8000
0003FC00003FC000
0007F800001FE000
000FF800001FF000
001FF800001FF800
001FF800001FF800
003FF800001FFC00
003FF800001FFC00
003FFC00003FFC00
007FFC00003FFE00
007FFC00003FFE00
007FFE00007FFE00
007FFF0000FFFE00
00FFFF8001FFFF00
01FFFFC003FFFF80
01FFFFF81FFFFF80
01FFFFFFFFFFFF80
01FFFFFFFFFFFF80
01FFFFFFFFFFFF80
00FFFFFFFFFFFF00
003FFFFFFFFFFC00
0000000000000000
0000000000000000
0000000000000000
0000000000000000
0000000000000000
0000000000000000
0000000000000000
0000000000000000
0000000000000000
0000000000000000
0000000000000000
ENDCHAR

STARTCHAR kor_A2D0
ENCODING 41680
SWIDTH 1024 0
DWIDTH 64 0
BBX 64 64 0 -6
BITMAP
0000000000000000
0000000000000000
0000000000000000
0000000000000000
0000000000000000
0000000000000000
0000000000000000
0000000000000000
0000000000000000
0000000000000000
0000000000000000
0000000000000000
0000000000000000
0000000000000000
0000000000000000
0000000000000000
0000000000000000
00000FFFFFF80000
003FFFFFFFFF0000
07FFFFFFFFFFC000
1FFFF801FFEFF1FE
3FE00003FFE1F9FE
3C00000FFFE07DFE
3C00003F00001FCE
3FFFFFFE00000FCE
1FFFFFF8000007CE
07FFFFF0FFC001CE
0000F3E3FFC001CE
0000E787FFC001CE
0000E71FBF8001CE
0000E7FEFBC001CE
0000F7FFF7E001CE
00007FFFEFF801CE
00007FFFBE7E01CE
00003FFEFF3FC1CE
00001FFFFF0FC1CE
00001FFFEF03C1CE
00000FFF9E001FCE
000007FC3C00FFCE
000001E0F807FFCE
000001FFFFFFF1FE
000000FFFFFF81FE
0000007F9FFC01FE
0000000000000000
0000000000000000
0000000000000000
0000000000000000
0000000000000000
0000000000000000
0000000000000000
0000000000000000
0000000000000000
0000000000000000
0000000000000000
0000000000000000
0000000000000000
0000000000000000
0000000000000000
0000000000000000
0000000000000000
0000000000000000
0000000000000000
0000000000000000
0000000000000000
ENDCHAR

STARTCHAR kor_A2D1
ENCODING 41681
SWIDTH 1024 0
DWIDTH 64 0
BBX 64 64 0 -6
BITMAP
0000000000000000
0000000000000000
0000000000000000
0000000000000000
0000000000000000
0000000000000000
0000000000000000
0000000000000000
0000000000000000
0000000000000000
0000000000000000
0000000000000000
0000000000000000
0000000000000000
0000000000000000
0000000000000000
0000000000000000
00000FFFFFF80000
00007FFFFFFFFE00
0001FFFFFFFFFFF0
3FC7FBFFC00FFFFC
3FCFC3FFE00003FE
3FDF03FFF800001E
39FC00007E00001E
39F800003FFFFFFE
39F000000FFFFFFC
39C001FF87FFFFF0
39C001FFE3E78000
39C001FFF0F38000
39C000FEFC738000
39C001EFBFF38000
39C003F7FFF78000
39C00FFBFFFF0000
39C03F3EFFFF0000
39C1FE7FBFFE0000
39C1F87FFFFC0000
39C1E07BFFFC0000
39FC003CFFF80000
39FF801E1FF00000
39FFF00F83C00000
3FC7FFFFFFC00000
3FC0FFFFFF800000
3FC01FFCFF000000
0000000000000000
0000000000000000
0000000000000000
0000000000000000
0000000000000000
0000000000000000
0000000000000000
0000000000000000
0000000000000000
0000000000000000
0000000000000000
0000000000000000
0000000000000000
0000000000000000
0000000000000000
0000000000000000
0000000000000000
0000000000000000
0000000000000000
0000000000000000
0000000000000000
ENDCHAR

STARTCHAR kor_A2D2
ENCODING 41682
SWIDTH 1024 0
DWIDTH 64 0
BBX 64 64 0 -6
BITMAP
0000000000000000
0000000000000000
0000000000000000
000003FFF03F0000
00001FFFF03F0000
00007FFFF03F0000
0000FFFFF03F0000
0001FFFFF03F0000
0003FE01F03F0000
0007F801F03F0000
0007F001F03F0000
000FE001F03F0000
000FC001F03F0000
000FC001F03F0000
001F8001F03F0000
001F8001F03F0000
001F8001F03F0000
001F8001F03F0000
001F8001F03F0000
001F8001F03F0000
000FC001F03F0000
000FC001F03F0000
000FE001F03F0000
0007F001F03F0000
0007F801F03F0000
0003FE01F03F0000
0001FFFFF03F0000
0000FFFFF03F0000
00007FFFF03F0000
00001FFFF03F0000
000003FFF03F0000
00000001F03F0000
00000001F03F0000
00000001F03F0000
00000001F03F0000
00000001F03F0000
00000001F03F0000
00000001F03F0000
00000001F03F0000
00000001F03F0000
00000001F03F0000
00000001F03F0000
00000001F03F0000
00000001F03F0000
00000001F03F0000
00000001F03F0000
00000001F03F0000
00000001F03F0000
00000001F03F0000
00000001F03F0000
00000001F03F0000
00000001F03F0000
00000001F03F0000
00000001F03F0000
00000001F03F0000
00000001F03F0000
00000001F03F0000
00000001F03F0000
00000001F03F0000
00000001F03F0000
0000000000000000
0000000000000000
0000000000000000
0000000000000000
ENDCHAR

STARTCHAR kor_A2D3
ENCODING 41683
SWIDTH 1024 0
DWIDTH 64 0
BBX 64 64 0 -6
BITMAP
0000000000000000
00000007E0000000
00000007E0000000
00000007E0000000
00000007E0000000
00000007E0000000
00000007E0000000
00000007E0000000
00000007E0000000
00000007E0000000
00000007E0000000
00000007E0000000
00000007E0000000
00000007E0000000
00000007E0000000
00000007E0000000
00000007E0000000
0001FFFFFFFFC000
0001FFFFFFFFC000
0001FFFFFFFFC000
0001FFFFFFFFC000
0001FFFFFFFFC000
00000007E0000000
00000007E0000000
00000007E0000000
00000007E0000000
00000007E0000000
00000007E0000000
00000007E0000000
00000007E0000000
00000007E0000000
00000007E0000000
00000007E0000000
00000007E0000000
00000007E0000000
00000007E0000000
00000007E0000000
00000007E0000000
00000007E0000000
00000007E0000000
00000007E0000000
00000007E0000000
00000007E0000000
00000007E0000000
00000007E0000000
00000007E0000000
00000007E0000000
00000007E0000000
00000007E0000000
00000007E0000000
00000007E0000000
00000007E0000000
00000007E0000000
00000007E0000000
00000007E0000000
00000007E0000000
00000007E0000000
00000007E0000000
00000007E0000000
00000007E0000000
00000007E0000000
0000000000000000
0000000000000000
0000000000000000
ENDCHAR

STARTCHAR kor_A2D4
ENCODING 41684
SWIDTH 1024 0
DWIDTH 64 0
BBX 64 64 0 -6
BITMAP
0000000000000000
00000007E0000000
00000007E0000000
00000007E0000000
00000007E0000000
00000007E0000000
00000007E0000000
00000007E0000000
00000007E0000000
00000007E0000000
00000007E0000000
00000007E0000000
00000007E0000000
00000007E0000000
00000007E0000000
0001FFFFFFFF8000
0001FFFFFFFF8000
0001FFFFFFFF8000
0001FFFFFFFF8000
0001FFFFFFFF8000
00000007E0000000
00000007E0000000
00000007E0000000
00000007E0000000
00000007E0000000
0000FFFFFFFF0000
0000FFFFFFFF0000
0000FFFFFFFF0000
0000FFFFFFFF0000
0000FFFFFFFF0000
00000007E0000000
00000007E0000000
00000007E0000000
00000007E0000000
00000007E0000000
00000007E0000000
00000007E0000000
00000007E0000000
00000007E0000000
00000007E0000000
00000007E0000000
00000007E0000000
00000007E0000000
00000007E0000000
00000007E0000000
00000007E0000000
00000007E0000000
00000007E0000000
00000007E0000000
00000007E0000000
00000007E0000000
00000007E0000000
00000007E0000000
00000007E0000000
00000007E0000000
00000007E0000000
00000007E0000000
00000007E0000000
00000007E0000000
00000007E0000000
00000007E0000000
0000000000000000
0000000000000000
0000000000000000
ENDCHAR

STARTCHAR kor_A2D5
ENCODING 41685
SWIDTH 1024 0
DWIDTH 64 0
BBX 64 64 0 -6
BITMAP
0000000000000000
0000000000000000
0000000000000000
0000000000000000
0000000180000000
00000003C0000000
00000007E0000000
0000000FF0000000
0000000FF0000000
0000001FF8000000
0000003FFC000000
0000007FFE000000
000000FFFF000000
000000FFFF000000
000001FBDF800000
000003F3CFC00000
000007C3C3E00000
00000F83C1F00000
00000E03C0700000
00000003C0000000
00000003C0000000
00000003C0000000
00000003C0000000
00000003C0000000
00000003C0000000
00000003C0000000
00000003C0000000
00000003C0000000
00000003C0000000
00000003C0000000
00000003C0000000
00000003C0000000
00000003C0000000
00000003C0000000
00000003C0000000
00000003C0000000
00000003C0000000
00000003C0000000
00000003C0000000
00000003C0000000
00000003C0000000
00000003C0000000
00000003C0000000
00000E03C0700000
00000F83C1F00000
000007C3C3E00000
000003F3CFC00000
000001FBDF800000
000000FFFF000000
000000FFFF000000
0000007FFE000000
0000003FFC000000
0000001FF8000000
0000000FF0000000
0000000FF0000000
00000007E0000000
00000003C0000000
0000000180000000
0000000000000000
0000000000000000
0000000000000000
0000000000000000
0000000000000000
0000000000000000
ENDCHAR

STARTCHAR kor_A2D6
ENCODING 41686
SWIDTH 1024 0
DWIDTH 64 0
BBX 64 64 0 -6
BITMAP
0000000000000000
0000000000000000
0000000000000000
0000000000000000
0000000000000000
0000000000000000
0000000000000000
0000000000000000
0000000000000000
0000000000000000
0000000000000000
0000000000000000
00000000FFFFE000
00000000FFFFE000
000000001FFFE000
0000000003FFE000
00000000007FE000
00000000001FE000
00000000003FE000
00000000007FE000
0000000000FFE000
0000000001FBE000
0000000003F3E000
0000000007E1E000
000000000FC1E000
000000001F81E000
000000003F00E000
000000007E00E000
00000000FC00E000
00000001F8006000
00000003F0006000
00000007E0006000
0000000FC0000000
0000001F80000000
0000003F00000000
0000007E00000000
000000FC00000000
000001F800000000
000003F000000000
000007E000000000
00000FC000000000
00001F8000000000
00003F0000000000
00007E0000000000
0000FC0000000000
0001F80000000000
0003F00000000000
0007E00000000000
000FC00000000000
000F800000000000
000F000000000000
0006000000000000
0000000000000000
0000000000000000
0000000000000000
0000000000000000
0000000000000000
0000000000000000
0000000000000000
0000000000000000
0000000000000000
0000000000000000
0000000000000000
0000000000000000
ENDCHAR

STARTCHAR kor_A2D7
ENCODING 41687
SWIDTH 1024 0
DWIDTH 64 0
BBX 64 64 0 -6
BITMAP
0000000000000000
0000000000000000
0000000000000000
0000000000000000
0000000000000000
0000000000000000
0000000000000000
0000000000000000
0000000000000000
0000000000000000
0000000000003000
0000000000007800
000000000000F800
000000000001F800
000000000003F000
000000000007E000
00000000000FC000
00000000001F8000
00000000003F0000
00000000007E0000
0000000000FC0000
0000000001F80000
0000000003F00000
0000000007E00000
000000000FC00000
000000001F800000
000000003F000000
000000007E000000
00000000FC000000
00000001F8000000
00030003F0000000
00030007E0000000
0003000FC0000000
0003801F80000000
0003803F00000000
0003807E00000000
0003C0FC00000000
0003C1F800000000
0003C3F000000000
0003E7E000000000
0003EFC000000000
0003FF8000000000
0003FF0000000000
0003FE0000000000
0003FC0000000000
0003FF0000000000
0003FFE000000000
0003FFFC00000000
0003FFFF80000000
0003FFFF80000000
0000000000000000
0000000000000000
0000000000000000
0000000000000000
0000000000000000
0000000000000000
0000000000000000
0000000000000000
0000000000000000
0000000000000000
0000000000000000
0000000000000000
0000000000000000
0000000000000000
ENDCHAR

STARTCHAR kor_A2D8
ENCODING 41688
SWIDTH 1024 0
DWIDTH 64 0
BBX 64 64 0 -6
BITMAP
0000000000000000
0000000000000000
0000000000000000
0000000000000000
0000000000000000
0000000000000000
0000000000000000
0000000000000000
0000000000000000
0000000000000000
0000000000000000
0000000000000000
0003FFFF80000000
0003FFFF80000000
0003FFFC00000000
0003FFE000000000
0003FF0000000000
0003FC0000000000
0003FE0000000000
0003FF0000000000
0003FF8000000000
0003EFC000000000
0003E7E000000000
0003C3F000000000
0003C1F800000000
0003C0FC00000000
0003807E00000000
0003803F00000000
0003801F80000000
0003000FC0000000
00030007E0000000
00030003F0000000
00000001F8000000
00000000FC000000
000000007E000000
000000003F000000
000000001F800000
000000000FC00000
0000000007E00000
0000000003F00000
0000000001F80000
0000000000FC0000
00000000007E0000
00000000003F0000
00000000001F8000
00000000000FC000
000000000007E000
000000000003F000
000000000001F800
000000000000F800
0000000000007800
0000000000003000
0000000000000000
0000000000000000
0000000000000000
0000000000000000
0000000000000000
0000000000000000
0000000000000000
0000000000000000
0000000000000000
0000000000000000
0000000000000000
0000000000000000
ENDCHAR

STARTCHAR kor_A2D9
ENCODING 41689
SWIDTH 1024 0
DWIDTH 64 0
BBX 64 64 0 -6
BITMAP
0000000000000000
0000000000000000
0000000000000000
0000000000000000
0000000000000000
0000000000000000
0000000000000000
0000000000000000
0000000000000000
0000000000000000
0006000000000000
000F000000000000
000F800000000000
000FC00000000000
0007E00000000000
0003F00000000000
0001F80000000000
0000FC0000000000
00007E0000000000
00003F0000000000
00001F8000000000
00000FC000000000
000007E000000000
000003F000000000
000001F800000000
000000FC00000000
0000007E00000000
0000003F00000000
0000001F80000000
0000000FC0000000
00000007E0006000
00000003F0006000
00000001F8006000
00000000FC00E000
000000007E00E000
000000003F00E000
000000001F81E000
000000000FC1E000
0000000007E1E000
0000000003F3E000
0000000001FBE000
0000000000FFE000
00000000007FE000
00000000003FE000
00000000001FE000
00000000007FE000
0000000003FFE000
000000001FFFE000
00000000FFFFE000
00000000FFFFE000
0000000000000000
0000000000000000
0000000000000000
0000000000000000
0000000000000000
0000000000000000
0000000000000000
0000000000000000
0000000000000000
0000000000000000
0000000000000000
0000000000000000
0000000000000000
0000000000000000
ENDCHAR

STARTCHAR kor_A2DA
ENCODING 41690
SWIDTH 1024 0
DWIDTH 64 0
BBX 64 64 0 -6
BITMAP
0000000000000000
0000000000000000
0000000000000000
0000000000000000
0000000000000000
0000000000000000
0000000000000000
0000000000000000
0000000000000000
0000078000000000
0000078000000000
0000078000000000
0000078000000000
0000078000000000
0000078000000000
0000078000000000
0000078000000000
0000078000000000
0000078000000000
0000078000000000
0000078000000000
0000078000000000
00000783F8000000
0000078FFE000000
000007BFFF000000
000007FFFF800000
000007FFFFC00000
000007F8FFC00000
000007E03FE00000
000007C01FE00000
000007801FE00000
000007800FE00000
000007800FE00000
000007800FE00000
000007800FE00000
000007800FE00000
000007801FE00000
000007801FC00000
000007801FC00000
000007803FC00000
000007803F800000
000007807F800000
00000780FF000000
00000780FE000000
00000781FE000000
00000783FC000000
00000787F8000000
0000078FF0000000
000007BFE0000000
000007FF80000000
000007FF00000000
000007FC00000000
000007E000000000
0000070000000000
0000000000000000
0000000000000000
0000000000000000
0000000000000000
0000000000000000
0000000000000000
0000000000000000
0000000000000000
0000000000000000
0000000000000000
ENDCHAR

STARTCHAR kor_A2DB
ENCODING 41691
SWIDTH 1024 0
DWIDTH 64 0
BBX 64 64 0 -6
BITMAP
0000000000000000
0000000000000000
0000000000000000
0000000000000000
000000007C000000
000000007C000000
000000007C000000
000000007C000000
000000007C000000
000000007C000000
000000007C000000
000000007C000000
000000007C000000
000000007C000000
000000007C000000
000000007C000000
000000007C000000
000000007C000000
000000007C000000
000000007C000000
000000007C000000
000000007C000000
000000007C000000
000000007C000000
000000007C000000
000000007C000000
000000007C000000
000000007C000000
000000007C000000
000000007C000000
000000007C000000
000000007C000000
000000007C000000
000000007C000000
000000007C000000
000000007C000000
000000007C000000
000000007C000000
000000007C000000
000000007C000000
000000007C000000
000000007C000000
000000007C000000
000000007C000000
000000007C000000
000000007C000000
00000003FC000000
0000001FFC000000
0000007FFC000000
000000FFFC000000
000001FFFC000000
000001FFF8000000
000003FFF8000000
000003FFF0000000
000003FFE0000000
000003FFC0000000
000003FF00000000
000001F800000000
0000000000000000
0000000000000000
0000000000000000
0000000000000000
0000000000000000
0000000000000000
ENDCHAR

STARTCHAR kor_A2DC
ENCODING 41692
SWIDTH 1024 0
DWIDTH 64 0
BBX 64 64 0 -6
BITMAP
0000000000000000
0000000000000000
0000000000000000
0000000000000000
0000003000000000
0000003800000000
0000003C00000000
0000003C00000000
0000003E00000000
0000003F00000000
0000003F80000000
0000003FC0000000
0000003FE0000000
0000003FF0000000
0000003FFC000000
0000003FFE000000
0000003FFF800000
0000003FFFC00000
0000003DFFE00000
0000003C7FF00000
0000003C3FF80000
0000003C1FF80000
0000003C0FFC0000
0000003C07FC0000
0000003C03FC0000
0000003C01FE0000
0000003C00FE0000
0000003C00FE0000
0000003C007E0000
0000003C007E0000
0000003C003E0000
0000003C003E0000
0000003C003C0000
0000003C007C0000
0000003C007C0000
0000003C00F80000
0000003C00F80000
0000003C01F00000
0000003C03E00000
0000003C03C00000
0000003C07C00000
0000003C0F800000
0000003C1F000000
0000003C3E000000
0000003C38000000
0000003C00000000
000003FC00000000
00001FFC00000000
00007FFC00000000
0000FFFC00000000
0001FFFC00000000
0001FFF800000000
0003FFF800000000
0003FFF000000000
0003FFE000000000
0003FFC000000000
0003FF0000000000
0001F80000000000
0000000000000000
0000000000000000
0000000000000000
0000000000000000
0000000000000000
0000000000000000
ENDCHAR

STARTCHAR kor_A2DD
ENCODING 41693
SWIDTH 1024 0
DWIDTH 64 0
BBX 64 64 0 -6
BITMAP
0000000000000000
0000000000000000
0000000000000000
000000000000E000
00000000000FE000
0000000000FFE000
000000000FFFE000
00000000FFFFE000
0000000FFFFFE000
000000FFFFFFE000
00000FFFFFFFE000
00003FFFFFFFE000
00003FFFFFFFE000
00003FFFFFF9E000
00003FFFFF8FE000
00003FFFF8FFE000
00003FFF8FFFE000
00003FF8FFFFE000
00003F8FFFFFE000
00003CFFFFFFE000
00003FFFFFFFE000
00003FFFFFFFE000
00003FFFFFFFE000
00003FFFFFF9E000
00003FFFFF81E000
00003FFFF801E000
00003FFF8001E000
00003FF80001E000
00003F800001E000
00003C000001E000
00003C000001E000
00003C000001E000
00003C000001E000
00003C000001E000
00003C000001E000
00003C000001E000
00003C000001E000
00003C000001E000
00003C000001E000
00003C00000FE000
00003C00007FE000
00003C0001FFE000
00003C0003FFE000
00003C0007FFE000
00003C0007FFC000
0003FC000FFFC000
001FFC000FFF8000
007FFC000FFF0000
00FFFC000FFE0000
01FFFC000FF80000
01FFF80007C00000
03FFF80000000000
03FFF00000000000
03FFE00000000000
03FFC00000000000
03FF000000000000
01F8000000000000
0000000000000000
0000000000000000
0000000000000000
0000000000000000
0000000000000000
0000000000000000
0000000000000000
ENDCHAR

STARTCHAR kor_A2DE
ENCODING 41694
SWIDTH 1024 0
DWIDTH 64 0
BBX 64 64 0 -6
BITMAP
0000000000000000
0000000000000000
0000000000000000
0000000000000000
0000003FFC000000
000003FFFFC00000
00001FFFFFF80000
00007FFFFFFE0000
0000FFFFFFFF0000
0003FFFFFFFFC000
0007FFC003FFE000
000FFE00007FF000
001FF800001FF800
003FF000000FFC00
007FC0000003FE00
007F80000001FE00
00FF00000000FF00
01FE000000007F80
01FC000000007F80
03FC000000003FC0
03F803F00FE01FC0
03F803F01FE01FC0
07F003F03FC01FC0
07F003F07F800000
07F003F0FF000000
07E003F1FE000000
0FE003F3FC000000
0FE003F7F8000000
0FFFF3FFF03FFFF0
0FFFF3FFE03FFFF0
0FFFF3FFF03FFFF0
0FFFF3FFF83FFFF0
0FFFF3FFFC3FFFF0
0FFFF3FFFC3FFFF0
000003FCFE0007F0
000003F87F0007F0
000003F07F8007E0
000003F03F800FE0
000003F01FC00FE0
03F803F00FE00FE0
03F803F00FF01FC0
03F803F007F01FC0
03FC000000003FC0
01FC000000007F80
01FE000000007F80
00FF00000000FF00
007F80000001FE00
007FE0000007FE00
003FF000000FFC00
001FFC00003FF800
000FFF0000FFF000
0007FFE007FFE000
0003FFFFFFFFC000
0000FFFFFFFF0000
00007FFFFFFE0000
00001FFFFFF80000
000003FFFFC00000
0000003FFC000000
0000000000000000
0000000000000000
0000000000000000
0000000000000000
0000000000000000
0000000000000000
ENDCHAR

STARTCHAR kor_A2DF
ENCODING 41695
SWIDTH 1024 0
DWIDTH 64 0
BBX 64 64 0 -6
BITMAP
0000000000000000
0000000000000000
0000000000000000
001C000000003800
003E000000007C00
007F00000000FE00
007F00000000FE00
00FE000000007F00
01FDFFFFFFFFFF80
01F9FFFFFFFFDF80
03F9FFFFFFFFDFC0
03F1FFFFFFFFCFC0
03F1FFFFFFFFCFC0
07E00007E00007E0
07E0000FF00007E0
07E0000FF00007E0
0FC0001FF80003F0
0FC0003FFC0003F0
0FC0007FFE0003F0
0F8001FFFF8001F0
0F8003FFFFC001F0
1F800FFE7FF001F8
1F807FFC3FFE01F8
1F9FFFF81FFFF9F8
1F1FFFE007FFF8F8
1F0FFFC003FFF0F8
1F07FF0000FFE0F8
1F03F800001FC0F8
1F000000000000F8
1F000000000000F8
1F000000000000F8
1F000000000000F8
1F3FFFFFFFFFFCF8
1F3FFFFFFFFFFCF8
1F3FFFFFFFFFFCF8
1F3FFFFFFFFFFCF8
1F3FFFFFFFFFFCF8
1F000007E00000F8
1F800007E00001F8
1F800007E00001F8
1F800007E00001F8
0F800007E00001F0
0F800007E00001F0
0FC00007E00001F0
0FC00007E00003F0
0FC00007E00003F0
07C00007E00003E0
07E00007E00007E0
07E00007E00007E0
03F00007E0000FC0
03F00007E0000FC0
03F80007E0001FC0
01F80007E0001F80
01FC0007E0003F80
00FE0007E0007F00
007F0007E000FE00
007F0007E000FE00
003E000000007C00
001C000000003800
0000000000000000
0000000000000000
0000000000000000
0000000000000000
0000000000000000
ENDCHAR

STARTCHAR kor_A2E0
ENCODING 41696
SWIDTH 1024 0
DWIDTH 64 0
BBX 64 64 0 -6
BITMAP
0000000000000000
0000000000000000
0000000000000000
0000000000000000
0000000000000000
0000000000000000
0FC0003F00000000
0FE0003F00000000
0FE0003F00000000
0FF0003F00000000
0FF0003F00000000
0FF8003F00000000
0FF8003F00000000
0FFC003F00000000
0FFC003F00000000
0FFE003F00000000
0FFE003F00000000
0FFF003F00000000
0FFF003F00000000
0FFF803F00000000
0FDF803F001F8000
0FDFC03F00FFF000
0FCFC03F03FFFC00
0FCFE03F07FFFE00
0FC7E03F0FFFFF00
0FC7F03F1FF0FF80
0FC3F03F1FC03F80
0FC3F83F3F801FC0
0FC1F83F3F000FC0
0FC1FC3F3F000FC0
0FC0FC3F7E0007E0
0FC0FE3F7E0007E0
0FC07E3F7E0007E0
0FC07F3F7E0007E0
0FC03F3F7E0007E0
0FC03FBF7E0007E0
0FC01FBF7E0007E0
0FC01FFF7E0007E0
0FC00FFF7E0007E0
0FC00FFF7E0007E0
0FC007FF7E0007E0
0FC007FF7E0007E0
0FC003FF3F000FC0
0FC003FF3F000FC0
0FC001FF3F801FFE
0FC001FF1FC03FFF
0FC000FF1FF0FFFF
0FC000FF0FFFFF7F
0FC0007F07FFFE7F
0FC0007F03FFFC7F
0FC0003F00FFF03E
00000000001F8000
0000000000000000
0000000000000000
0000000000000000
0000000000000000
0000000000000000
0000000000000000
0000000000000000
0000000000000000
0000000000000000
0000000000000000
0000000000000000
0000000000000000
ENDCHAR

STARTCHAR kor_A2E1
ENCODING 41697
SWIDTH 1024 0
DWIDTH 64 0
BBX 64 64 0 -6
BITMAP
0000000000000000
0000000000000000
0000000000000000
0000000000000000
0001FF8000000000
0007FFE000000000
000FFFF000000000
001FFFF800000000
003FFFFC00000000
007FC3FC00000000
007F00FE00000000
00FE007E00000000
00FC007F00000000
00FC003F00000000
01F8003F00000000
01F8003F00000000
01F8003F00000000
01F0000000000000
01F0000000000000
03F0000000000000
03F00000003F0000
03F0000001FFE000
03F0000007FFF800
03F000000FFFFC00
03F000001FFFFE00
03F000003FE1FF00
03F000003F807F00
03F000007F003F80
03F000007E001F80
03F000007E001F80
03F00000FC000FC0
03F00000FC000FC0
03F00000FC000FC0
03F00000FC000FC0
03F00000FC000FC0
03F00000FC000FC0
03F00000FC000FC0
01F0003FFC000FC0
01F0003FFC000FC0
01F8003FFC000FC0
01F8003FFC000FC0
01F8003FFC000FC0
00FC003F7E001F80
00FC007E7E001F80
00FE007E7F003FFC
007F00FE3F807FFE
007FC3FC3FE1FFFE
003FFFFC1FFFFEFE
001FFFF80FFFFCFE
000FFFF007FFF8FE
0007FFE001FFE07C
0001FF80003F0000
0000000000000000
0000000000000000
0000000000000000
0000000000000000
0000000000000000
0000000000000000
0000000000000000
0000000000000000
0000000000000000
0000000000000000
0000000000000000
0000000000000000
ENDCHAR

STARTCHAR kor_A2E2
ENCODING 41698
SWIDTH 1024 0
DWIDTH 64 0
BBX 64 64 0 -6
BITMAP
0000000000000000
0000000000000000
0000000000000000
0000000000000000
0000000000000000
0000000000000000
07FFFFFEFC0003F0
07FFFFFEFC0003F0
07FFFFFEFC0003F0
07FFFFFEFE0007F0
07FFFFFEFE0007F0
0001F800FE0007F0
0001F800FE0007F0
0001F800FF000FF0
0001F800FF000FF0
0001F800FF000FF0
0001F800FF000FF0
0001F800FF801FF0
0001F800FF801FF0
0001F800FF801FF0
0001F800FF801FF0
0001F800FFC03FF0
0001F800FFC03FF0
0001F800FFC03FF0
0001F800FFC03FF0
0001F800FFE07FF0
0001F800FFE07FF0
0001F800FFE07FF0
0001F800FFE07FF0
0001F800FFF0FFF0
0001F800FFF0FFF0
0001F800FFF0FFF0
0001F800FFF0FFF0
0001F800FFF9FFF0
0001F800FDF9FBF0
0001F800FDF9FBF0
0001F800FDF9FBF0
0001F800FDFFFBF0
0001F800FCFFF3F0
0001F800FCFFF3F0
0001F800FCFFF3F0
0001F800FCFFF3F0
0001F800FC7FE3F0
0001F800FC7FE3F0
0001F800FC7FE3F0
0001F800FC7FE3F0
0001F800FC3FC3F0
0001F800FC3FC3F0
0001F800FC3FC3F0
0001F800FC3FC3F0
0001F800FC1F83F0
0001F800FC1F83F0
0000000000000000
0000000000000000
0000000000000000
0000000000000000
0000000000000000
0000000000000000
0000000000000000
0000000000000000
0000000000000000
0000000000000000
0000000000000000
0000000000000000
ENDCHAR

STARTCHAR kor_A2E3
ENCODING 41699
SWIDTH 1024 0
DWIDTH 64 0
BBX 64 64 0 -6
BITMAP
0000000000000000
0000000000000000
0000000000000000
0000000000000000
0000000000000000
0000000000000000
0000000000000000
0000000000000000
0000000000000000
0000000000000000
0000000000000000
0000000000000000
0000000000000000
0000000000000000
0000000000000000
0000000000000000
0000000000000000
0000000000000000
0000000000000000
0000000000000000
0000000000000000
0000000000000000
0000000000000000
0000000000000000
0000000000000000
0000000000000000
00FFC000FFE3F000
03FFF000FFFFFC00
07FFF800FFFFFE00
0FFFFC00FFFFFE00
0FFFFC00FFFFFF00
1FC0FE00FEFF7F00
1F807E00FC7E3F00
1F807E00FC7E3F00
1F807E00FC7E3F00
01FFFE00FC7E3F00
07FFFE00FC7E3F00
0FFFFE00FC7E3F00
1FFFFE00FC7E3F00
1FFFFE00FC7E3F00
3F80FE00FC7E3F00
3F007E00FC7E3F00
3F007E00FC7E3F00
3F007E00FC7E3F00
3F007E00FC7E3F00
3F007E00FC7E3F00
3F80FF1EFC7E3F3C
1FFFFFFFFC7E3F7E
1FFFFFFFFC7E3F7E
0FFFFFFFFC7E3F7E
07FFFFFFFC7E3F7E
01FFC7DEFC7E3F3C
0000000000000000
0000000000000000
0000000000000000
0000000000000000
0000000000000000
0000000000000000
0000000000000000
0000000000000000
0000000000000000
0000000000000000
0000000000000000
0000000000000000
ENDCHAR

STARTCHAR kor_A2E4
ENCODING 41700
SWIDTH 1024 0
DWIDTH 64 0
BBX 64 64 0 -6
BITMAP
0000000000000000
0000000000000000
0000000000000000
0000000000000000
0000000000000000
0000000000000000
0000000000000000
0000000000000000
0000000000000000
0000000000000000
0000000000000000
0000000000000000
0000000000000000
0000000000000000
0000000000000000
0000000000000000
0000000000000000
0000000000000000
0000000000000000
0000000000000000
0000000000000000
0000000000000000
0000000000000000
0000000000000000
0000000000000000
07E7F80000000000
07FFFE00FFE3F000
07FFFF00FFFFFC00
07FFFF80FFFFFE00
07FFFF80FFFFFE00
07FC3FC0FFFFFF00
07F00FC0FEFF7F00
07F00FC0FC7E3F00
07E007E0FC7E3F00
07E007E0FC7E3F00
07E007E0FC7E3F00
07E007E0FC7E3F00
07E007E0FC7E3F00
07E007E0FC7E3F00
07E007E0FC7E3F00
07E007E0FC7E3F00
07E007E0FC7E3F00
07F00FC0FC7E3F00
07F00FC0FC7E3F00
07FC3FC0FC7E3F00
07FFFF80FC7E3F00
07FFFFBCFC7E3F3C
07FFFF7EFC7E3F7E
07FFFE7EFC7E3F7E
07E7F87EFC7E3F7E
07E0007EFC7E3F7E
07E0003CFC7E3F3C
07E0000000000000
07E0000000000000
07E0000000000000
07E0000000000000
07E0000000000000
07E0000000000000
07E0000000000000
0000000000000000
0000000000000000
0000000000000000
0000000000000000
0000000000000000
ENDCHAR

STARTCHAR kor_A2E5
ENCODING 41701
SWIDTH 1024 0
DWIDTH 64 0
BBX 64 64 0 -6
BITMAP
0000000000000000
0000000000000000
0000000000000000
0000000000000000
0000000000000000
0000000000000000
0FFFFFFF000007E0
0FFFFFFF000007E0
0FFFFFFF000007E0
0FFFFFFF000007E0
0FFFFFFF000007E0
0001F800000007E0
0001F800000007E0
0001F800000007E0
0001F800000007E0
0001F800000007E0
0001F800000007E0
0001F800000007E0
0001F800000007E0
0001F8007FC007E0
0001F801FFF007E0
0001F803FFF807E0
0001F807FFFC07E0
0001F80FFFFE07E0
0001F80FF1FE07E0
0001F81FC07F07E0
0001F81F803F07E0
0001F81F803F07E0
0001F83F001F87E0
0001F83F001F87E0
0001F83F001F87E0
0001F83FFFFF87E0
0001F83FFFFF87E0
0001F83FFFFF87E0
0001F83FFFFF87E0
0001F83FFFFF87E0
0001F83F000007E0
0001F83F000007E0
0001F83F000007E0
0001F83F000007E0
0001F83F001F87E0
0001F83F001F87E0
0001F83F801F87E0
0001F81F803F07E0
0001F81F803F07E0
0001F81FC07F07E0
0001F80FF1FE07E0
0001F80FFFFE07E0
0001F807FFFC07E0
0001F803FFF807E0
0001F801FFF007E0
000000007FC00000
0000000000000000
0000000000000000
0000000000000000
0000000000000000
0000000000000000
0000000000000000
0000000000000000
0000000000000000
0000000000000000
0000000000000000
0000000000000000
0000000000000000
ENDCHAR

STARTCHAR default_char
ENCODING 41702
SWIDTH 64 0
DWIDTH 64 0
BBX 64 64 0 -6
BITMAP
0000000000000000
0000000000000000
300000000000000C
300000000000000C
0000000000000000
0000000000000000
0000000000000000
0000000000000000
0000000000000000
0000000000000000
0000000000000000
0000000000000000
0000000000000000
0000000000000000
0000000000000000
0000000000000000
0000000000000000
0000000000000000
0000000000000000
0000000000000000
0000000000000000
0000000000000000
0000000000000000
0000000000000000
0000000000000000
0000000000000000
0000000000000000
0000000000000000
0000000000000000
0000000000000000
0000000000000000
0000000000000000
0000000000000000
0000000000000000
0000000000000000
0000000000000000
0000000000000000
0000000000000000
0000000000000000
0000000000000000
0000000000000000
0000000000000000
0000000000000000
0000000000000000
0000000000000000
0000000000000000
0000000000000000
0000000000000000
0000000000000000
0000000000000000
0000000000000000
0000000000000000
0000000000000000
0000000000000000
0000000000000000
0000000000000000
0000000000000000
0000000000000000
0000000000000000
0000000000000000
300000000000000C
300000000000000C
0000000000000000
0000000000000000
ENDCHAR

STARTCHAR kor_A3A1
ENCODING 41889
SWIDTH 1024 0
DWIDTH 64 0
BBX 64 64 0 -6
BITMAP
0000000000000000
0000000000000000
0000000000000000
0000000000000000
0000001FF8000000
0000001FF8000000
0000001FF8000000
0000001FF8000000
0000001FF8000000
0000001FF8000000
0000001FF8000000
0000001FF8000000
0000001FF8000000
0000001FF8000000
0000001FF8000000
0000001FF8000000
0000001FF8000000
0000000FF0000000
0000000FF0000000
0000000FF0000000
0000000FF0000000
0000000FF0000000
0000000FF0000000
0000000FF0000000
0000000FF0000000
0000000FF0000000
0000000FF0000000
0000000FF0000000
00000007E0000000
00000007E0000000
00000007E0000000
00000007E0000000
00000007E0000000
00000007E0000000
00000007E0000000
00000007E0000000
00000007E0000000
0000000000000000
0000000000000000
0000000000000000
0000000000000000
0000000000000000
0000000FF0000000
0000000FF0000000
0000000FF0000000
0000000FF0000000
0000000FF0000000
0000000FF0000000
0000000FF0000000
0000000FF0000000
0000000000000000
0000000000000000
0000000000000000
0000000000000000
0000000000000000
0000000000000000
0000000000000000
0000000000000000
0000000000000000
0000000000000000
0000000000000000
0000000000000000
0000000000000000
0000000000000000
ENDCHAR

STARTCHAR kor_A3A2
ENCODING 41890
SWIDTH 1024 0
DWIDTH 64 0
BBX 64 64 0 -6
BITMAP
0000000000000000
0000000000000000
0000000000000000
000000FE7F000000
000000FE7F000000
000000FE7F000000
000000FE7F000000
000000FE7F000000
000000FE7F000000
000000FE7F000000
000000FE7F000000
000000FE7F000000
000000FE7F000000
000000FE7F000000
000000FE7F000000
000000FE7F000000
000000FE7F000000
000000FE7F000000
000000FE7F000000
000000FE7F000000
000000FE7F000000
0000000000000000
0000000000000000
0000000000000000
0000000000000000
0000000000000000
0000000000000000
0000000000000000
0000000000000000
0000000000000000
0000000000000000
0000000000000000
0000000000000000
0000000000000000
0000000000000000
0000000000000000
0000000000000000
0000000000000000
0000000000000000
0000000000000000
0000000000000000
0000000000000000
0000000000000000
0000000000000000
0000000000000000
0000000000000000
0000000000000000
0000000000000000
0000000000000000
0000000000000000
0000000000000000
0000000000000000
0000000000000000
0000000000000000
0000000000000000
0000000000000000
0000000000000000
0000000000000000
0000000000000000
0000000000000000
0000000000000000
0000000000000000
0000000000000000
0000000000000000
ENDCHAR

STARTCHAR kor_A3A3
ENCODING 41891
SWIDTH 1024 0
DWIDTH 64 0
BBX 64 64 0 -6
BITMAP
0000000000000000
0000000000000000
0000000000000000
0000000000000000
0000000000000000
0000000FC00FC000
0000000FC00FC000
0000001FC01FC000
0000001F801F8000
0000001F801F8000
0000001F801F8000
0000003F803F8000
0000003F003F0000
0000003F003F0000
0000003F003F0000
0000007F007F0000
0000007E007E0000
0000007E007E0000
0000007E007E0000
0003FFFFFFFFFF00
0003FFFFFFFFFF00
0007FFFFFFFFFF00
0007FFFFFFFFFF00
0007FFFFFFFFFE00
0007FFFFFFFFFE00
000001F801F80000
000001F801F80000
000003F003F00000
000003F003F00000
000003F003F00000
000003F003F00000
000007E007E00000
000007E007E00000
000007E007E00000
000007E007E00000
00000FC00FC00000
00000FC00FC00000
00000FC00FC00000
007FFFFFFFFFE000
007FFFFFFFFFE000
00FFFFFFFFFFE000
00FFFFFFFFFFE000
00FFFFFFFFFFC000
00FFFFFFFFFFC000
00003F003F000000
00003F003F000000
00003E003E000000
00007E007E000000
00007E007E000000
00007E007E000000
00007C007C000000
0000FC00FC000000
0000FC00FC000000
0000F800F8000000
0000F800F8000000
0001F801F8000000
0001F801F8000000
0001F001F0000000
0001F001F0000000
0000000000000000
0000000000000000
0000000000000000
0000000000000000
0000000000000000
ENDCHAR

STARTCHAR kor_A3A4
ENCODING 41892
SWIDTH 1024 0
DWIDTH 64 0
BBX 64 64 0 -6
BITMAP
0000000000000000
0000001E3C000000
0000001E3C000000
0000001E3C000000
0000001E3C000000
0000001E3C000000
0000003FFC000000
000000FFFF000000
000001FFFFC00000
000003FFFFE00000
000007FFFFF00000
000007FE3FF80000
00000FFE3FF80000
00000FFE3FFC0000
00001FDE3DFC0000
00001FDE3CF80000
00001F9E3CF00000
00001F9E3C600000
00001F9E3C000000
00001FDE3C000000
00001FFE3C000000
00000FFE3C000000
00000FFF3C000000
000007FFFC000000
000003FFFC000000
000001FFFF000000
0000007FFFC00000
0000001FFFE00000
0000001FFFF00000
0000001EFFF80000
0000001E3FF80000
0000001E3FFC0000
0000001E3DFC0000
0000001E3CFE0000
0000001E3CFE0000
00000C1E3C7E0000
00001E1E3C7E0000
00003E1E3C7E0000
00007F1E3C7E0000
00007F9E3C7E0000
00003FFE3CFE0000
00003FFE3CFC0000
00001FFE3FFC0000
00000FFE3FF80000
000007FFFFF80000
000001FFFFF00000
000000FFFFE00000
0000003FFF800000
0000001FFC000000
0000001E3C000000
0000001E3C000000
0000001E3C000000
0000001E3C000000
0000001E3C000000
0000000000000000
0000000000000000
0000000000000000
0000000000000000
0000000000000000
0000000000000000
0000000000000000
0000000000000000
0000000000000000
0000000000000000
ENDCHAR

STARTCHAR kor_A3A5
ENCODING 41893
SWIDTH 1024 0
DWIDTH 64 0
BBX 64 64 0 -6
BITMAP
0000000000000000
0000000000000000
0000000000000000
0000000000000000
00000FE0000000C0
00007FF8000001E0
0001FFFC000003F0
0003FFFE000007F0
0007FFFE00000FE0
000FF87F00001FC0
001FE03F00003F80
003FC01F00007F00
007F801F0000FE00
007F001F0001FC00
00FE001F0003F800
00FC001F0007F000
00F8003F000FE000
01F8003E001FC000
01F0007E003F8000
01F000FE007F0000
01F001FC00FE0000
01F003FC01FC0000
01F007F803F80000
01F80FF007F00000
01FC3FE00FE00000
00FFFFC01FC00000
00FFFF803F800000
007FFF007F000000
003FFC00FE000000
000FE001FC000000
00000003F801FC00
00000007F00FFF00
0000000FE03FFF80
0000001FC07FFFC0
0000003F80FFFFC0
0000007F01FF0FE0
000000FE03FC07E0
000001FC07F803E0
000003F80FF003E0
000007F00FE003E0
00000FE01FC003E0
00001FC01F8003E0
00003F801F0007E0
00007F003F0007C0
0000FE003E000FC0
0001FC003E001FC0
0003F8003E003F80
0007F0003E007F80
000FE0003E00FF00
001FC0003F01FE00
003F80003F87FC00
007F00001FFFF800
00FE00001FFFF000
01FC00000FFFE000
03F8000007FF8000
03F0000001FC0000
01E0000000000000
00C0000000000000
0000000000000000
0000000000000000
0000000000000000
0000000000000000
0000000000000000
0000000000000000
ENDCHAR

ENDFONT
